<svg width="100" height="90" viewBox="0 0 100 90" fill="none" xmlns="http://www.w3.org/2000/svg">
<mask id="path-1-inside-1_165_2017" fill="white">
<rect x="1.15234" y="0.00012207" width="78.2609" height="78.2609" rx="3.91304"/>
</mask>
<rect x="1.15234" y="0.00012207" width="78.2609" height="78.2609" rx="3.91304" stroke="#FF0000" stroke-width="10" mask="url(#path-1-inside-1_165_2017)"/>
<line x1="23.2188" y1="87.5001" x2="57.3492" y2="87.5001" stroke="#FF0000" stroke-width="5" stroke-linecap="square"/>
<line x1="88.6523" y1="75.7609" x2="88.6523" y2="2.49999" stroke="#FF0000" stroke-width="5" stroke-linecap="round"/>
<path d="M89 0.00012207C87.6193 0.00012207 86.5 1.11941 86.5 2.50012C86.5 3.88083 87.6193 5.00012 89 5.00012V0.00012207ZM97 5.00012H99.5V0.00012207H97V5.00012ZM89 5.00012H93V0.00012207H89V5.00012ZM93 5.00012H97V0.00012207H93V5.00012Z" fill="#FF0000"/>
<path d="M89.5 18.0001C88.1193 18.0001 87 19.1194 87 20.5001C87 21.8808 88.1193 23.0001 89.5 23.0001V18.0001ZM97 23.0001H99.5V18.0001H97V23.0001ZM89.5 23.0001H93V18.0001H89.5V23.0001ZM93 23.0001H97V18.0001H93V23.0001Z" fill="#FF0000"/>
<path d="M89 73.5001C87.6193 73.5001 86.5 74.6194 86.5 76.0001C86.5 77.3808 87.6193 78.5001 89 78.5001V73.5001ZM97 78.5001H99.5V73.5001H97V78.5001ZM89 78.5001H93V73.5001H89V78.5001ZM93 78.5001H97V73.5001H93V78.5001Z" fill="#FF0000"/>
<path d="M89.5 37.0001C88.1193 37.0001 87 38.1194 87 39.5001C87 40.8808 88.1193 42.0001 89.5 42.0001V37.0001ZM97 42.0001H99.5V37.0001H97V42.0001ZM89.5 42.0001H93V37.0001H89.5V42.0001ZM93 42.0001H97V37.0001H93V42.0001Z" fill="#FF0000"/>
<path d="M89.5 56.0001C88.1193 56.0001 87 57.1194 87 58.5001C87 59.8808 88.1193 61.0001 89.5 61.0001V56.0001ZM97 61.0001H99.5V56.0001H97V61.0001ZM89.5 61.0001H93V56.0001H89.5V61.0001ZM93 61.0001H97V56.0001H93V61.0001Z" fill="#FF0000"/>
</svg>
