<svg width="80" height="90" viewBox="0 0 80 90" fill="none" xmlns="http://www.w3.org/2000/svg">
<mask id="path-1-inside-1_165_2025" fill="white">
<rect x="1" width="78.2609" height="78.2609" rx="3.91304"/>
</mask>
<rect x="1" width="78.2609" height="78.2609" rx="3.91304" stroke="#FF0000" stroke-width="10" mask="url(#path-1-inside-1_165_2025)"/>
<mask id="path-2-inside-2_165_2025" fill="white">
<rect x="18" y="17" width="44" height="44" rx="3.91304"/>
</mask>
<rect x="18" y="17" width="44" height="44" rx="3.91304" stroke="#FF0000" stroke-width="10" mask="url(#path-2-inside-2_165_2025)"/>
<line x1="22.9336" y1="87.5" x2="57.064" y2="87.5" stroke="#FF0000" stroke-width="5" stroke-linecap="square"/>
<path d="M45.241 40.1549L45.2419 40.1541C46.3873 39.0592 46.9543 37.5881 46.9543 35.7579C46.9543 33.9439 46.3871 32.4964 45.2406 31.4339C44.1121 30.3731 42.5939 29.85 40.7035 29.85H33.5H33.35V30V47.1511V47.3011H33.5H37.0037H37.1537V47.1511V41.7637H40.7035C42.579 41.7637 44.0969 41.2318 45.241 40.1549ZM42.4615 34.1017L42.4614 34.1018L42.4635 34.1037C42.8828 34.4931 43.1016 35.0531 43.1016 35.8069C43.1016 36.543 42.8835 37.105 42.4615 37.512C42.0414 37.9171 41.4149 38.1315 40.5565 38.1315H37.1537V33.4822H40.5565C41.4149 33.4822 42.0414 33.6967 42.4615 34.1017Z" fill="#FF0000" stroke="#FF0000" stroke-width="0.3"/>
</svg>
