<svg width="80" height="90" viewBox="0 0 80 90" fill="none" xmlns="http://www.w3.org/2000/svg">
<path fill-rule="evenodd" clip-rule="evenodd" d="M5.87109 5V43H0.871094V3.91304C0.871094 1.75192 2.62302 0 4.78414 0H75.2189C77.38 0 79.132 1.75193 79.132 3.91304V69H78H74.132V5H5.87109Z" fill="#FF0000"/>
<line x1="22.9375" y1="87.5" x2="57.0679" y2="87.5" stroke="#FF0000" stroke-width="5" stroke-linecap="square"/>
<path d="M14.2275 57.2339L23.2462 57.1645L25.9042 50.9396C25.9884 50.7453 26.1771 50.6174 26.3887 50.6114C26.6002 50.605 26.7963 50.7216 26.8915 50.9108C27.5684 52.2509 28.5293 53.4272 29.7072 54.358L31.4063 55.7086C31.8044 56.0252 31.9021 56.5903 31.6333 57.0221L28.4291 62.2143C28.14 62.7663 27.706 63.2296 27.174 63.5538C26.6416 63.8782 26.031 64.0518 25.4076 64.0557L14.1451 64.1383C13.1712 64.1454 12.2392 63.7404 11.5797 63.0239C10.92 62.307 10.5943 61.3447 10.6823 60.3747C10.7835 59.5066 11.2007 58.7066 11.8548 58.1274C12.5088 57.5482 13.3537 57.2301 14.2273 57.2342L14.2275 57.2339ZM46.498 28.8545C48.1862 28.8368 49.7979 28.1501 50.9807 26.9453C52.1635 25.7405 52.82 24.1157 52.8069 22.4277C52.7948 20.7332 52.1099 19.113 50.9024 17.9242C49.6948 16.7349 48.0642 16.0748 46.3697 16.0895C44.6752 16.1037 43.0557 16.7913 41.8685 18.001C40.6818 19.2101 40.024 20.8419 40.0412 22.5365C40.0579 24.2309 40.7482 25.8493 41.9595 27.0344C43.1707 28.2194 44.8035 28.8744 46.498 28.8547L46.498 28.8545ZM25.6686 26.8957C25.1538 26.8524 24.6371 26.9525 24.1754 27.1836C23.7139 27.4152 23.3252 27.7698 23.0516 28.2081L17.5539 36.9908C17.1543 37.6097 17.0024 38.3561 17.1286 39.0822C17.2546 39.8078 17.6492 40.4597 18.2342 40.9073C18.8709 41.3658 19.6692 41.5398 20.4392 41.3886C21.2088 41.2371 21.8819 40.7735 22.2973 40.1079L26.9223 32.7248L32.4591 34.1302L29.2373 43.0366C28.754 44.5892 28.7536 46.2518 29.2351 47.8046C29.7166 49.3574 30.6582 50.7277 31.9347 51.7343L41.3931 59.2712L38.9099 71.551C38.74 72.3047 38.8205 73.0936 39.1393 73.7975C39.458 74.5015 39.998 75.082 40.6766 75.4516C41.1888 75.7106 41.757 75.8391 42.3309 75.8246C42.4655 75.8234 42.6002 75.8138 42.7337 75.7956C43.4529 75.7044 44.1255 75.3901 44.657 74.897C45.1882 74.404 45.5521 73.7565 45.6965 73.0463L48.562 58.5624C48.6919 57.9522 48.6514 57.3181 48.4449 56.7296C48.2387 56.1411 47.8743 55.6207 47.392 55.2251L40.735 47.6636L43.2362 39.1989L46.4291 43.0928L46.4292 43.0932C46.9617 43.8818 47.856 44.3495 48.8076 44.3368L49.0807 44.3205L59.498 43.2393L59.4984 43.2392C60.2741 43.1757 60.9869 42.788 61.4624 42.1721C61.9409 41.5559 62.1427 40.7686 62.0195 39.9982C61.882 39.2665 61.4707 38.6152 60.8699 38.1755C60.2693 37.7362 59.5241 37.5416 58.7849 37.6318L50.1939 38.5154L46.5335 33.3587C45.6951 32.1761 44.5265 31.2671 43.174 30.745C37.8542 28.6878 32.2634 27.4165 26.5774 26.9704L25.6686 26.8957Z" fill="#FF0000"/>
</svg>
