<svg width="36" height="46" viewBox="0 0 36 46" fill="none" xmlns="http://www.w3.org/2000/svg">
<g clip-path="url(#clip0_128_2663)">
<path d="M18.4102 28.6203C17.0492 28.6203 16.2551 29.9131 16.2551 31.6442C16.2551 33.3863 17.0734 34.6174 18.4234 34.6174C19.7845 34.6174 20.5654 33.3224 20.5654 31.5913C20.5654 29.9924 19.7977 28.6203 18.4102 28.6203Z" fill="#FF0000"/>
<path d="M22.4115 0.976349H4.76449C3.59441 0.976349 2.47226 1.44042 1.6449 2.26647C0.817531 3.09253 0.352722 4.2129 0.352722 5.38111V40.6192C0.352722 41.7874 0.817531 42.9078 1.6449 43.7338C2.47226 44.5599 3.59441 45.024 4.76449 45.024H31.2351C32.4051 45.024 33.5273 44.5599 34.3547 43.7338C35.182 42.9078 35.6468 41.7874 35.6468 40.6192V14.1906L22.4115 0.976349ZM11.724 35.0119C10.7843 35.7916 9.35713 36.1594 7.61228 36.1594C6.56449 36.1594 5.82551 36.0933 5.32257 36.0272V27.2816C6.22472 27.1519 7.13542 27.0908 8.04684 27.0988C9.74096 27.0988 10.8395 27.4027 11.6976 28.0502C12.624 28.7374 13.2064 29.8341 13.2064 31.4022C13.2064 33.1091 12.5843 34.2852 11.724 35.0119ZM18.3196 36.2144C15.6726 36.2144 14.1262 34.2191 14.1262 31.6819C14.1262 29.0149 15.8314 27.0217 18.4652 27.0217C21.2027 27.0217 22.6983 29.0677 22.6983 31.5256C22.6961 34.4437 20.9226 36.2144 18.3196 36.2144ZM28.588 34.5362C29.1946 34.5362 29.8696 34.4019 30.2689 34.2455L30.5733 35.8158C30.2027 36.0008 29.3689 36.199 28.2858 36.199C25.2042 36.199 23.616 34.2852 23.616 31.748C23.616 28.7109 25.7843 27.0217 28.4843 27.0217C29.5299 27.0217 30.3218 27.2331 30.6792 27.4181L30.2689 29.0171C29.7318 28.7955 29.1559 28.6832 28.5748 28.6867C26.9733 28.6867 25.7292 29.6514 25.7292 31.6335C25.7292 33.4152 26.788 34.5362 28.588 34.5362ZM22.4115 16.393H20.2057V5.38111L31.2351 16.393H22.4115Z" fill="#FF0000"/>
<path d="M8.25985 28.6449C7.81205 28.6449 7.52087 28.6845 7.34882 28.7242V34.5495C7.52087 34.5891 7.79882 34.5891 8.04808 34.5891C9.87455 34.6023 11.0635 33.6003 11.0635 31.4728C11.0768 29.6228 9.99367 28.6449 8.25985 28.6449Z" fill="#FF0000"/>
</g>
<defs>
<clipPath id="clip0_128_2663">
<rect width="36" height="44.4" fill="white" transform="translate(0 0.799988)"/>
</clipPath>
</defs>
</svg>
