<svg width="37" height="40" viewBox="0 0 37 40" fill="none" xmlns="http://www.w3.org/2000/svg">
<path fill-rule="evenodd" clip-rule="evenodd" d="M8.96412 1.90456C8.96412 0.852693 9.81709 0 10.869 0H25.4637C26.5166 0 27.3693 0.852632 27.3693 1.90456C27.3693 2.52079 27.0719 3.06239 26.6189 3.4106L26.6209 3.41741L24.1601 6.26928L24.1553 6.27235C23.9032 6.54044 23.5479 6.71076 23.1507 6.71076L18.1667 6.7111H13.1828C12.7863 6.7111 12.4303 6.5401 12.1789 6.27269L12.1741 6.26962L9.71292 3.41775L9.71496 3.41094C9.26122 3.06246 8.96412 2.5211 8.96412 1.90456ZM36.2646 31.6197C36.2646 36.2477 32.5121 40 27.8844 40H8.44891C3.82093 40 0.0686646 36.2475 0.0686646 31.6197C0.0686646 30.0249 0.522742 28.5386 1.29704 27.2693L1.29125 27.2595L9.32198 11.0288C9.42485 10.7655 9.54987 10.5145 9.69498 10.2753L9.71985 10.2256L9.72802 10.2208C10.5939 8.83303 12.1306 7.90613 13.8873 7.90613L18.1664 7.90579H22.4453C24.2023 7.90579 25.7386 8.83269 26.6049 10.2205L26.6137 10.2252L26.6386 10.275C26.7827 10.5141 26.9077 10.7652 27.0106 11.0285L35.0416 27.2591L35.0369 27.269C35.8101 28.5383 36.2646 30.0249 36.2646 31.6197ZM13.3704 31.2303H10.9999V28.7471H13.3704V17H16.249V34H13.3704V31.2303ZM17.4343 19.674H17.7729C17.9405 19.674 18.159 19.6568 18.4105 19.637C19.9375 19.5169 22.6836 19.3008 22.6836 22.2528C22.6836 25.2869 20.4417 25.1972 18.8674 25.1343C18.6578 25.1259 18.46 25.118 18.281 25.118H17.4343V27.5055H18.7888C19.9743 27.5055 21.3288 27.5055 22.3448 27.1234C26.5781 25.5954 26.5781 19.0056 22.5141 17.4774C21.1595 17 20.1436 17 18.7888 17H17.4343V19.674ZM17.6035 28.7466H21.6213V31.289H17.6035V28.7466Z" fill="#FF0000"/>
</svg>
