<svg width="41" height="40" viewBox="0 0 41 40" fill="none" xmlns="http://www.w3.org/2000/svg">
<path d="M20.8333 0C16.8777 0 13.0109 1.17298 9.72193 3.37061C6.43295 5.56824 3.8695 8.69181 2.35575 12.3463C0.841994 16.0009 0.445927 20.0222 1.21763 23.9018C1.98934 27.7814 3.89415 31.3451 6.6912 34.1421C9.48825 36.9392 13.0519 38.844 16.9315 39.6157C20.8111 40.3874 24.8325 39.9913 28.487 38.4776C32.1415 36.9638 35.2651 34.4004 37.4627 31.1114C39.6604 27.8224 40.8333 23.9556 40.8333 20C40.8232 14.6988 38.7128 9.61762 34.9642 5.86909C31.2157 2.12057 26.1345 0.0101653 20.8333 0ZM27.7564 13.8462C28.2128 13.8462 28.659 13.9815 29.0385 14.2351C29.418 14.4886 29.7138 14.8491 29.8884 15.2707C30.0631 15.6924 30.1088 16.1564 30.0198 16.6041C29.9307 17.0517 29.7109 17.4629 29.3882 17.7856C29.0655 18.1084 28.6543 18.3282 28.2066 18.4172C27.759 18.5062 27.295 18.4605 26.8733 18.2859C26.4516 18.1112 26.0912 17.8154 25.8376 17.4359C25.5841 17.0564 25.4487 16.6103 25.4487 16.1538C25.4487 15.5418 25.6919 14.9548 26.1246 14.5221C26.5574 14.0893 27.1444 13.8462 27.7564 13.8462ZM13.9103 13.8462C14.3667 13.8462 14.8128 13.9815 15.1923 14.2351C15.5718 14.4886 15.8676 14.8491 16.0423 15.2707C16.217 15.6924 16.2627 16.1564 16.1736 16.6041C16.0846 17.0517 15.8648 17.4629 15.542 17.7856C15.2193 18.1084 14.8081 18.3282 14.3605 18.4172C13.9128 18.5062 13.4488 18.4605 13.0271 18.2859C12.6055 18.1112 12.2451 17.8154 11.9915 17.4359C11.7379 17.0564 11.6026 16.6103 11.6026 16.1538C11.6026 15.5418 11.8457 14.9548 12.2785 14.5221C12.7113 14.0893 13.2982 13.8462 13.9103 13.8462ZM30.1603 25.3846C29.2151 27.022 27.8556 28.3817 26.2184 29.327C24.5811 30.2724 22.7239 30.7701 20.8333 30.7701C18.9428 30.7701 17.0855 30.2724 15.4483 29.327C13.8111 28.3817 12.4515 27.022 11.5064 25.3846C11.386 25.2099 11.303 25.0122 11.2627 24.804C11.2224 24.5957 11.2255 24.3813 11.272 24.1743C11.3185 23.9673 11.4074 23.7722 11.5329 23.6011C11.6584 23.4301 11.818 23.2869 12.0015 23.1805C12.1851 23.0741 12.3886 23.0068 12.5994 22.9829C12.8102 22.9589 13.0237 22.9788 13.2264 23.0413C13.4292 23.1038 13.6168 23.2076 13.7775 23.3461C13.9382 23.4846 14.0685 23.6549 14.1603 23.8462C14.8378 25.016 15.811 25.9871 16.9822 26.6622C18.1534 27.3374 19.4815 27.6927 20.8333 27.6927C22.1852 27.6927 23.5133 27.3374 24.6845 26.6622C25.8557 25.9871 26.8289 25.016 27.5064 23.8462C27.7262 23.5273 28.0581 23.3031 28.4359 23.2182C28.8137 23.1334 29.2097 23.1941 29.5447 23.3883C29.8797 23.5825 30.1292 23.8959 30.2433 24.266C30.3574 24.636 30.3277 25.0355 30.1603 25.3846Z" fill="#FF0000"/>
</svg>
