<svg width="56" height="38" viewBox="0 0 56 38" fill="none" xmlns="http://www.w3.org/2000/svg">
<path d="M55.5072 11.0778L45.3891 0.18928C45.1532 -0.0502078 44.7799 -0.0697854 44.5247 0.169249L40.2809 4.23733C40.045 4.47682 40.0257 4.85563 40.2612 5.1147L50.3793 16.0032C50.6152 16.2427 50.9884 16.2623 51.2436 16.0233L55.4875 11.9552C55.723 11.7161 55.723 11.3373 55.5072 11.0778ZM51.8134 12.3145C51.2827 12.813 50.4381 12.793 49.9469 12.2548C49.4558 11.7162 49.4755 10.8589 50.0057 10.3603C50.5363 9.86174 51.381 9.88178 51.8721 10.4199C52.3637 10.9586 52.344 11.8159 51.8134 12.3145ZM11.0659 1.68551C10.8107 1.48609 10.4178 1.52616 10.2213 1.78522L0.790822 14.1095C0.594354 14.3685 0.633827 14.7674 0.889056 14.9668L5.52581 18.616C5.78104 18.8154 6.17398 18.7753 6.37044 18.5163L15.8009 6.19203C15.9974 5.93296 15.9579 5.53412 15.7027 5.3347L11.0659 1.68551ZM6.62563 14.5283C6.17393 15.1065 5.34859 15.2262 4.75918 14.7677C4.18952 14.3093 4.07154 13.4715 4.52324 12.8732C4.97494 12.295 5.80028 12.1753 6.38969 12.6338C6.97953 13.0922 7.07776 13.93 6.62563 14.5283Z" fill="#FF0000"/>
<path d="M41.7353 26.4732L31.3621 18.2568L29.4759 20.0114C26.8038 22.4446 24.4072 23.1025 22.5797 23.1025C22.1083 23.1025 21.6956 23.0624 21.3027 22.9827C18.8073 22.5438 17.1181 20.9289 16.3515 19.533C15.4086 18.0172 15.6836 16.1227 17.0194 14.8867L24.4654 8.00663C23.5813 7.32868 22.5594 6.98949 21.5184 6.98949C20.0646 6.98949 18.6301 7.64739 17.6872 8.90405L10.4179 18.4362C9.82853 19.2138 9.55356 20.1909 9.67153 21.1685L10.143 25.0371C10.2609 26.0142 10.7521 26.8915 11.5182 27.4898L24.2684 37.5806C24.6219 37.8597 25.0543 37.9995 25.467 37.9995C25.9977 37.9995 26.5279 37.7801 26.901 37.3612L27.4707 36.7229C28.2171 35.8851 28.1386 34.5888 27.2939 33.8513L29.4353 35.6661C29.8085 35.9853 30.2409 36.1246 30.6926 36.1246C31.1838 36.1246 31.675 35.9452 32.0481 35.5664L32.716 34.9281C33.5607 34.1104 33.5019 32.7345 32.6178 31.9769L34.2093 33.3132C34.5825 33.6124 35.0149 33.7717 35.4666 33.7717C35.9578 33.7717 36.4489 33.5723 36.8419 33.2135L37.4313 32.6353C38.2566 31.8176 38.1974 30.4818 37.3528 29.7236L38.3939 30.6411C38.7671 30.9602 39.2192 31.1196 39.6709 31.1196C40.2208 31.1196 40.791 30.8801 41.1642 30.4016L42.068 29.3048C42.7368 28.4474 42.5997 27.1512 41.7353 26.4732ZM46.804 16.6218L38.0414 7.54816C37.6682 7.14932 37.1573 6.90983 36.6266 6.83015L32.1474 6.23189C31.44 6.13218 30.7326 6.37167 30.2025 6.85019L29.1416 7.82726L19.063 17.1405C18.9451 17.2402 18.6898 17.5393 18.9253 17.8981L18.9841 17.9978C19.377 18.7358 20.3594 19.6728 21.8131 19.9324C23.5616 20.2316 25.4873 19.4739 27.4322 17.6987L31.2046 14.1887L43.0713 23.5816L46.7647 20.0717C47.7277 19.1542 47.7276 17.5989 46.804 16.6218Z" fill="#FF0000"/>
</svg>
