<svg width="41" height="40" viewBox="0 0 41 40" fill="none" xmlns="http://www.w3.org/2000/svg">
<path d="M32.5952 0.211055C32.314 -0.0701924 31.8577 -0.0705108 31.5764 0.211055L29.4591 2.32843C29.3947 2.37403 29.3379 2.43142 29.2917 2.49552L28.6868 3.10043C26.925 4.86254 26.5369 7.48431 27.4747 9.69352L15.7721 21.3961L19.1293 24.7015L30.8065 13.0243C33.0156 13.9624 35.6375 13.574 37.3993 11.8125L38.0083 11.2035C38.0714 11.1592 38.1266 11.1033 38.1716 11.0405L40.2889 8.92316C40.5702 8.6416 40.5705 8.1856 40.2889 7.90407L32.5952 0.211055ZM29.8848 3.94033L36.5592 10.6147L36.38 10.7939C34.6125 12.5614 31.6938 12.5232 29.8347 10.6638C27.976 8.80507 27.9378 5.88648 29.7053 4.11858L29.8848 3.94033ZM17.7366 26.0937L14.3635 22.8042L10.2713 26.8964C10.197 26.9691 10.1399 27.0517 10.0982 27.1372L9.95083 27.5947L8.99165 30.8664C8.86091 31.31 9.18936 31.6374 9.63228 31.507L13.2362 30.4503C13.2693 30.4359 13.3012 30.4273 13.3337 30.4133C13.4313 30.3706 13.5235 30.3062 13.6022 30.228L17.7366 26.0937ZM8.36519 20.0231C8.22744 19.8844 8.03866 19.8091 7.84383 19.812C7.65665 19.812 7.47872 19.8891 7.34638 20.0228L3.02821 24.3372L2.55053 24.8149C1.28744 26.0776 0.667609 28.5387 0.526631 31.141C0.385685 33.743 0.775358 36.4959 2.39143 38.112C4.00751 39.7281 6.75622 40.1138 9.35824 39.9726C11.9606 39.831 14.4194 39.2099 15.6825 37.9468L16.1602 37.4692L20.4784 33.1547C20.7596 32.8732 20.7596 32.4172 20.4784 32.136L16.9899 28.6475L14.4048 31.2326C14.2893 31.3484 14.1385 31.4195 13.9768 31.4377L8.36301 32.9316C7.90383 32.983 7.51575 32.5949 7.5671 32.1357L9.06105 26.5216C9.07891 26.3599 9.15098 26.2091 9.26608 26.0937C10.1277 25.2324 10.9893 24.3702 11.8512 23.5086L8.36519 20.0231Z" fill="#FF0000"/>
</svg>
