<svg width="728" height="55" viewBox="0 0 728 55" fill="none" xmlns="http://www.w3.org/2000/svg">
<g clip-path="url(#clip0_5_2883)">
<path d="M29.1051 -14.6855L-133.71 201.623V147.058L-11.9644 -14.6855H29.1051Z" fill="#00A400"/>
<path d="M111.717 -14.6855L-133.71 311.379V256.814L70.6474 -14.6855H111.717Z" fill="#00A400"/>
<path d="M70.6474 -14.6855L-133.71 256.814V201.623L29.1051 -14.6855H70.6474Z" fill="#FF0000"/>
<path d="M194.334 -14.6855L-133.71 421.129V366.569L153.264 -14.6855H194.334Z" fill="#00A400"/>
<path d="M153.264 -14.6855L-133.71 366.569V311.379L111.717 -14.6855H153.264Z" fill="#FF0000"/>
<path d="M277.32 -14.6855L-93.5272 478H-133.71V476.32L235.876 -14.6855H277.32Z" fill="#00A400"/>
<path d="M235.876 -14.6855L-133.71 476.32V421.129L194.334 -14.6855H235.876Z" fill="#FF0000"/>
<path d="M358.814 -14.6855L-12.0334 478H-53.4822L317.37 -14.6855H358.814Z" fill="#00A400"/>
<path d="M317.37 -14.6855L-53.4822 478H-93.5273L277.32 -14.6855H317.37Z" fill="#FF0000"/>
<path d="M439.982 -14.6855L69.1305 478H28.0117L398.859 -14.6855H439.982Z" fill="#00A400"/>
<path d="M398.859 -14.6855L28.0119 478H-12.0332L358.814 -14.6855H398.859Z" fill="#FF0000"/>
<path d="M521.191 -14.6855L150.344 478H108.91L479.757 -14.6855H521.191Z" fill="#00A400"/>
<path d="M479.757 -14.6855L108.91 478H69.1306L439.983 -14.6855H479.757Z" fill="#FF0000"/>
<path d="M603.369 -14.6855L232.522 478H191.325L562.172 -14.6855H603.369Z" fill="#00A400"/>
<path d="M562.172 -14.6855L191.325 478H150.344L521.191 -14.6855H562.172Z" fill="#FF0000"/>
<path d="M684.484 -14.6855L313.637 478H272.459L643.311 -14.6855H684.484Z" fill="#00A400"/>
<path d="M643.311 -14.6855L272.459 478H232.522L603.369 -14.6855H643.311Z" fill="#FF0000"/>
<path d="M766.322 -14.6855L395.47 478H353.962L724.814 -14.6855H766.322Z" fill="#00A400"/>
<path d="M724.814 -14.6855L353.963 478H313.637L684.484 -14.6855H724.814Z" fill="#FF0000"/>
<path d="M848.156 -14.6855L477.309 478H435.801L806.648 -14.6855H848.156Z" fill="#00A400"/>
<path d="M806.648 -14.6855L435.801 478H395.47L766.322 -14.6855H806.648Z" fill="#FF0000"/>
<path d="M929.349 -14.6855L558.492 478H517.635L888.487 -14.6855H929.349Z" fill="#00A400"/>
<path d="M888.487 -14.6855L517.635 478H477.309L848.156 -14.6855H888.487Z" fill="#FF0000"/>
<path d="M986.445 -14.6855V16.5556L639.115 478H597.858L968.705 -14.6855H986.445Z" fill="#00A400"/>
<path d="M968.705 -14.6855L597.858 478H558.493L929.349 -14.6855H968.705Z" fill="#FF0000"/>
<path d="M986.445 16.5554V68.8539L678.475 478H639.115L986.445 16.5554Z" fill="#FF0000"/>
</g>
<defs>
<clipPath id="clip0_5_2883">
<rect width="728" height="55" fill="white"/>
</clipPath>
</defs>
</svg>
