<svg width="41" height="36" viewBox="0 0 41 36" fill="none" xmlns="http://www.w3.org/2000/svg">
<path d="M38.7274 22.353C37.2096 20.0765 36.0712 17.5467 35.481 14.8908C34.5534 10.7588 32.5298 7.42822 29.2412 7.00669C29.4942 4.39279 31.4337 2.49533 31.2228 1.94746C30.9699 1.31517 30.5482 1.44162 29.1148 1.10432C27.9343 0.809049 27.5549 4.81455 27.8078 7.04908C25.4469 7.3864 23.7603 9.24152 22.7062 11.8133C23.5918 12.3192 24.4349 13.0358 25.1516 13.8793C30.3373 19.9081 26.9223 31.5447 23.4229 35.6343C23.3808 35.6764 23.3385 35.7187 23.2964 35.7608C23.5494 35.8028 23.8023 35.8028 24.0976 35.8028C25.236 35.8028 26.29 35.5499 27.2596 35.0861C28.1028 34.7067 29.0304 34.7067 29.8735 35.0861C30.8432 35.5499 31.8972 35.8028 33.0356 35.8028C37.1673 35.8028 40.4981 32.4723 40.4981 28.3403C40.5402 26.4428 39.8656 24.1242 38.7274 22.3532L38.7274 22.353Z" fill="#FF0000"/>
<path d="M23.423 15.3965C20.0501 11.5177 15.5811 13.162 13.8104 14.0896C14.4006 10.9696 16.1293 8.77737 17.0989 7.76544C17.5627 7.2596 17.3098 6.41614 16.6351 6.28965H16.5507C15.4546 6.12114 14.3583 6.58492 13.7259 7.47016C12.3766 9.40971 12.1661 12.1921 12.1661 14.0472C10.3533 13.1196 5.92633 11.5174 2.59555 15.3965C-1.70494 20.3713 1.49944 30.7852 4.32422 34.1159C6.51666 36.6877 10.8592 35.6758 12.4191 35.1699C12.7985 35.0435 13.1779 35.0435 13.5575 35.1699C15.1174 35.6337 19.4599 36.6877 21.6524 34.1159C24.5192 30.7851 27.6813 20.3715 23.4232 15.3965H23.423ZM9.29915 30.6587C9.08828 30.8272 8.87742 30.8696 8.62451 30.8696C8.28718 30.8696 7.99221 30.7431 7.78136 30.4479C6.01061 28.1289 4.23992 21.1725 6.39005 18.685C6.76943 18.2212 7.44408 18.1791 7.90785 18.5585C8.37163 18.9379 8.41369 19.6125 8.03431 20.0763C6.8538 21.4676 7.9499 27.1172 9.51009 29.1409C9.88947 29.647 9.80536 30.3214 9.29922 30.6587L9.29915 30.6587Z" fill="#FF0000"/>
<path d="M9.97372 12.0236C10.5219 12.1501 11.0277 11.7283 11.0277 11.1805C10.9857 10.2529 10.7748 8.81953 9.88932 7.76551C9.0038 6.6694 7.69688 6.16332 6.76934 5.95274C6.22116 5.82628 5.71532 6.24801 5.71532 6.79589C5.75738 7.72343 5.96824 9.15682 6.85374 10.2108C7.73927 11.2649 9.04618 11.7707 9.97372 12.0236Z" fill="#FF0000"/>
<path d="M25.2781 6.28973C25.8263 6.41619 26.3321 5.99446 26.3321 5.44659C26.2901 4.51905 26.0792 3.08565 25.1937 2.03163C24.3082 0.935523 23.0013 0.429442 22.0737 0.218864C21.5256 0.0924036 21.0197 0.514133 21.0197 1.06201C21.0618 1.98955 21.2726 3.42294 22.1581 4.47696C23.0437 5.57307 24.3506 6.07885 25.2781 6.28973Z" fill="#FF0000"/>
</svg>
