<svg width="41" height="36" viewBox="0 0 41 36" fill="none" xmlns="http://www.w3.org/2000/svg">
<path d="M39.0595 22.353C37.5417 20.0765 36.4033 17.5467 35.813 14.8908C34.8855 10.7588 32.8618 7.42822 29.5733 7.00669C29.8262 4.39279 31.7657 2.49533 31.5548 1.94746C31.3019 1.31517 30.8802 1.44162 29.4468 1.10432C28.2663 0.809049 27.8869 4.81455 28.1399 7.04908C25.7789 7.3864 24.0923 9.24152 23.0383 11.8133C23.9238 12.3192 24.7669 13.0358 25.4836 13.8793C30.6693 19.9081 27.2544 31.5447 23.7549 35.6343C23.7129 35.6764 23.6705 35.7187 23.6285 35.7608C23.8814 35.8028 24.1343 35.8028 24.4296 35.8028C25.568 35.8028 26.622 35.5499 27.5917 35.0861C28.4348 34.7067 29.3624 34.7067 30.2056 35.0861C31.1752 35.5499 32.2292 35.8028 33.3676 35.8028C37.4993 35.8028 40.8302 32.4723 40.8302 28.3403C40.8722 26.4428 40.1976 24.1242 39.0594 22.3532L39.0595 22.353Z" fill="white"/>
<path d="M23.7551 15.3965C20.3821 11.5177 15.9131 13.162 14.1424 14.0896C14.7326 10.9696 16.4613 8.77737 17.4309 7.76544C17.8947 7.2596 17.6418 6.41614 16.9672 6.28965H16.8828C15.7866 6.12114 14.6903 6.58492 14.058 7.47016C12.7087 9.40971 12.4981 12.1921 12.4981 14.0472C10.6853 13.1196 6.25836 11.5174 2.92758 15.3965C-1.37291 20.3713 1.83147 30.7852 4.65625 34.1159C6.84869 36.6877 11.1913 35.6758 12.7511 35.1699C13.1305 35.0435 13.5099 35.0435 13.8896 35.1699C15.4494 35.6337 19.7919 36.6877 21.9844 34.1159C24.8512 30.7851 28.0133 20.3715 23.7552 15.3965H23.7551ZM9.63118 30.6587C9.42031 30.8272 9.20945 30.8696 8.95654 30.8696C8.61921 30.8696 8.32424 30.7431 8.11339 30.4479C6.34264 28.1289 4.57196 21.1725 6.72209 18.685C7.10147 18.2212 7.77611 18.1791 8.23988 18.5585C8.70366 18.9379 8.74572 19.6125 8.36634 20.0763C7.18583 21.4676 8.28193 27.1172 9.84212 29.1409C10.2215 29.647 10.1374 30.3214 9.63125 30.6587L9.63118 30.6587Z" fill="white"/>
<path d="M10.3058 12.0236C10.8539 12.1501 11.3598 11.7283 11.3598 11.1805C11.3177 10.2529 11.1069 8.81953 10.2214 7.76551C9.33583 6.6694 8.02892 6.16332 7.10138 5.95274C6.55319 5.82628 6.04735 6.24801 6.04735 6.79589C6.08941 7.72343 6.30027 9.15682 7.18577 10.2108C8.0713 11.2649 9.37821 11.7707 10.3058 12.0236Z" fill="white"/>
<path d="M25.6102 6.28973C26.1583 6.41619 26.6642 5.99446 26.6642 5.44659C26.6221 4.51905 26.4113 3.08565 25.5258 2.03163C24.6402 0.935523 23.3333 0.429442 22.4058 0.218864C21.8576 0.0924036 21.3518 0.514133 21.3518 1.06201C21.3938 1.98955 21.6047 3.42294 22.4902 4.47696C23.3757 5.57307 24.6826 6.07885 25.6102 6.28973Z" fill="white"/>
</svg>
