<svg width="33" height="40" viewBox="0 0 33 40" fill="none" xmlns="http://www.w3.org/2000/svg">
<path d="M14.7488 22.7596V38.1996C14.7488 39.1914 13.9406 39.9996 12.9488 39.9996L2.59687 40C1.60507 40 0.796875 39.1918 0.796875 38.2V22.76C0.796875 22.3202 1.15703 21.96 1.59687 21.96H13.9488C14.3887 21.96 14.7488 22.3202 14.7488 22.76V22.7596Z" fill="#FF0000"/>
<path d="M32.2048 22.7596V38.1996C32.2048 39.1914 31.3966 39.9996 30.4048 39.9996L19.1808 40C18.1886 40 17.3808 39.1918 17.3808 38.2V22.76C17.3808 22.3202 17.741 21.96 18.1808 21.96H31.4048C31.845 21.96 32.2048 22.3202 32.2048 22.76V22.7596Z" fill="#FF0000"/>
<path d="M28.7888 0.799691C28.7888 0.487581 28.6048 0.207892 28.333 0.0797719C28.0529 -0.0561678 27.7169 -0.0163218 27.4771 0.183682L21.0931 5.39967C20.9091 5.55162 20.8052 5.78365 20.8052 6.0235V8.83949H28.7892L28.7888 0.799691Z" fill="#FF0000"/>
<path d="M30.1568 11.2397V20.3595H19.4288V11.2397C19.4288 10.7998 19.789 10.4397 20.2288 10.4397H29.3569C29.8046 10.4397 30.1565 10.7998 30.1565 11.2397H30.1568Z" fill="#FF0000"/>
</svg>
