<svg width="29" height="40" viewBox="0 0 29 40" fill="none" xmlns="http://www.w3.org/2000/svg">
<path d="M28.1138 35.3825L25.5758 19.0884C25.1172 16.1664 22.6005 14.0124 19.6359 14.0124H18.8361V10.0134C18.8361 8.91494 17.9404 8.00859 16.8314 8.00859V4.00956H20.8304C21.9288 4.00956 22.8352 3.11379 22.8352 2.00478C22.8352 0.906353 21.9394 0 20.8304 0H6.83925C6.51933 0 6.22073 0.0639841 5.94347 0.202613L1.94445 2.20739C0.963408 2.7086 0.568828 3.903 1.04867 4.90539C1.41125 5.60922 2.10439 6.00382 2.85085 6.00382C3.14944 6.00382 3.44803 5.9505 3.74662 5.79054L7.32972 4.00962H12.8536V8.00865C11.7552 8.00865 10.8489 8.90442 10.8489 10.0134V14.0125H9.98507C7.03114 14.0125 4.50376 16.1772 4.06657 19.0885L1.54992 35.3825C1.18734 37.8246 3.05356 40 5.50625 40H24.1579C26.6105 40 28.4874 37.8032 28.1142 35.3825M7.34099 24.0044L8.00215 19.7068C8.16211 18.7258 9.00454 18.0112 9.98568 18.0112H19.6473C20.6497 18.0112 21.4814 18.715 21.6308 19.6961L22.292 24.015H7.34142L7.34099 24.0044Z" fill="#FF0000"/>
<path d="M4.83487 12.007C4.83487 10.9086 2.83009 8.008 2.83009 8.008C2.83009 8.008 0.835938 10.9086 0.835938 12.007C0.835938 13.1161 1.73171 14.0118 2.83009 14.0118C3.93914 14.0011 4.83487 13.1054 4.83487 12.007Z" fill="#FF0000"/>
</svg>
