<svg width="28" height="40" viewBox="0 0 28 40" fill="none" xmlns="http://www.w3.org/2000/svg">
<path d="M27.7779 35.3825L25.2399 19.0884C24.7813 16.1664 22.2646 14.0124 19.3 14.0124H18.5002V10.0134C18.5002 8.91494 17.6044 8.00859 16.4954 8.00859V4.00956H20.4945C21.5929 4.00956 22.4992 3.11379 22.4992 2.00478C22.4992 0.906353 21.6035 0 20.4945 0H6.50331C6.1834 0 5.8848 0.0639841 5.60754 0.202613L1.60851 2.20739C0.62747 2.7086 0.232891 3.903 0.712734 4.90539C1.07531 5.60922 1.76845 6.00382 2.51491 6.00382C2.8135 6.00382 3.11209 5.9505 3.41068 5.79054L6.99378 4.00962H12.5177V8.00865C11.4193 8.00865 10.5129 8.90442 10.5129 10.0134V14.0125H9.64913C6.6952 14.0125 4.16782 16.1772 3.73064 19.0885L1.21399 35.3825C0.851407 37.8246 2.71762 40 5.17031 40H23.8219C26.2746 40 28.1515 37.8032 27.7782 35.3825M7.00505 24.0044L7.66621 19.7068C7.82617 18.7258 8.6686 18.0112 9.64974 18.0112H19.3113C20.3137 18.0112 21.1455 18.715 21.2949 19.6961L21.956 24.015H7.00548L7.00505 24.0044Z" fill="white"/>
<path d="M4.49893 12.007C4.49893 10.9086 2.49415 8.008 2.49415 8.008C2.49415 8.008 0.5 10.9086 0.5 12.007C0.5 13.1161 1.39577 14.0118 2.49415 14.0118C3.60321 14.0011 4.49893 13.1054 4.49893 12.007Z" fill="white"/>
</svg>
