<svg width="37" height="40" viewBox="0 0 37 40" fill="none" xmlns="http://www.w3.org/2000/svg">
<path d="M36.2283 35.1438C34.8783 34.2255 34.0004 32.7815 33.8193 31.1825C33.3898 27.3145 33.4946 20.6358 33.6116 16.6207C28.4691 17.2077 23.3073 17.5232 18.2388 17.5232C13.2158 17.5232 8.235 17.213 3.38378 16.6343C3.51348 21.0245 3.59742 27.3894 3.17519 31.1823C3.07169 32.1092 2.72866 33.0016 2.17958 33.7678C1.81004 34.2929 1.33609 34.7564 0.775591 35.1418C0.410476 35.3876 0.18358 35.7938 0.168748 36.2289C0.154231 36.6622 0.343262 37.0643 0.685651 37.33C1.39064 37.8806 2.48977 38.5052 3.77702 38.4035C4.83953 38.5938 14.0151 40.2055 18.4971 39.9773C18.7963 39.9927 19.1169 40 19.4543 40C24.1598 40 32.1991 38.5862 33.213 38.4045C33.3089 38.4133 33.4027 38.4177 33.5008 38.4177C34.6729 38.4177 35.6713 37.8298 36.2967 37.341C36.6451 37.075 36.8389 36.6732 36.8282 36.239C36.8174 35.8044 36.5944 35.3956 36.2283 35.1438ZM12.5256 30.9079C10.1279 29.0854 9.97921 25.7505 9.97258 25.6081C9.95964 25.2783 10.1988 24.9877 10.5349 24.9426C10.6214 24.9334 12.1664 24.7406 13.8831 25.0981C13.8036 25.5002 13.7534 25.9151 13.7534 26.345C13.7534 26.416 13.7553 26.5135 13.7698 26.6319C13.88 29.117 15.4285 31.1817 16.4124 32.2522C15.2048 32.1465 13.7153 31.8139 12.5256 30.9079ZM18.9238 32.0776C18.801 32.1875 18.6458 32.2392 18.4971 32.2392C18.3485 32.2392 18.1999 32.1875 18.0771 32.0776C17.9544 31.9741 15.1559 29.5246 15.059 26.5132C15.0461 26.4422 15.0461 26.3838 15.0461 26.345C15.0461 23.2492 17.9673 20.8256 18.0901 20.7287C18.3293 20.5349 18.6717 20.5349 18.9046 20.7287C19.034 20.8256 21.9486 23.2491 21.9486 26.345C21.9486 26.3838 21.9486 26.4418 21.9357 26.5132C21.8385 29.5183 19.0399 31.9745 18.9238 32.0776ZM24.482 30.9079C23.2882 31.817 21.7892 32.1483 20.5774 32.2531C21.5879 31.1496 23.1152 29.0911 23.2245 26.6322C23.2393 26.5135 23.2412 26.416 23.2412 26.345C23.2412 25.9139 23.1945 25.4961 23.1143 25.0931C24.8304 24.7315 26.3751 24.929 26.4663 24.9426C26.7961 24.9877 27.035 25.2787 27.0287 25.6081C27.0217 25.7505 26.8667 29.0854 24.482 30.9079Z" fill="#FF0000"/>
<path d="M1.29305 15.0805C6.83169 15.8495 12.4933 16.2307 18.2388 16.2307C23.9844 16.2307 29.8204 15.8495 35.7016 15.0805C36.0181 15.0417 36.264 14.764 36.264 14.4408V14.3244C36.264 12.4048 34.771 10.8474 32.929 10.8474H4.06563C2.23025 10.8474 0.737314 12.4051 0.737314 14.3244V14.4408C0.737314 14.7637 0.976531 15.0354 1.29305 15.0805Z" fill="#FF0000"/>
<path d="M18.2388 0C11.5918 0 6.6935 5.58075 4.57455 8.53102H31.9023C29.7838 5.58075 24.8863 0 18.2388 0Z" fill="#FF0000"/>
</svg>
