<svg width="38" height="40" viewBox="0 0 38 40" fill="none" xmlns="http://www.w3.org/2000/svg">
<path d="M36.5604 35.1438C35.2103 34.2255 34.3324 32.7815 34.1513 31.1825C33.7218 27.3145 33.8266 20.6358 33.9437 16.6207C28.8011 17.2077 23.6394 17.5232 18.5708 17.5232C13.5478 17.5232 8.56704 17.213 3.71581 16.6343C3.84551 21.0245 3.92945 27.3894 3.50722 31.1823C3.40372 32.1092 3.06069 33.0016 2.51161 33.7678C2.14208 34.2929 1.66812 34.7564 1.10762 35.1418C0.742508 35.3876 0.515611 35.7938 0.500779 36.2289C0.486262 36.6622 0.675293 37.0643 1.01768 37.33C1.72267 37.8806 2.82181 38.5052 4.10906 38.4035C5.17156 38.5938 14.3471 40.2055 18.8291 39.9773C19.1283 39.9927 19.4489 40 19.7863 40C24.4918 40 32.5312 38.5862 33.545 38.4045C33.641 38.4133 33.7347 38.4177 33.8328 38.4177C35.0049 38.4177 36.0033 37.8298 36.6288 37.341C36.9772 37.075 37.1709 36.6732 37.1602 36.239C37.1495 35.8044 36.9264 35.3956 36.5604 35.1438ZM12.8576 30.9079C10.4599 29.0854 10.3112 25.7505 10.3046 25.6081C10.2917 25.2783 10.5309 24.9877 10.867 24.9426C10.9534 24.9334 12.4984 24.7406 14.2152 25.0981C14.1356 25.5002 14.0855 25.9151 14.0855 26.345C14.0855 26.416 14.0873 26.5135 14.1019 26.6319C14.212 29.117 15.7605 31.1817 16.7445 32.2522C15.5368 32.1465 14.0473 31.8139 12.8576 30.9079ZM19.2558 32.0776C19.1331 32.1875 18.9778 32.2392 18.8292 32.2392C18.6805 32.2392 18.5319 32.1875 18.4092 32.0776C18.2864 31.9741 15.4879 29.5246 15.3911 26.5132C15.3781 26.4422 15.3781 26.3838 15.3781 26.345C15.3781 23.2492 18.2994 20.8256 18.4221 20.7287C18.6614 20.5349 19.0037 20.5349 19.2366 20.7287C19.366 20.8256 22.2807 23.2491 22.2807 26.345C22.2807 26.3838 22.2807 26.4418 22.2677 26.5132C22.1705 29.5183 19.3719 31.9745 19.2558 32.0776ZM24.814 30.9079C23.6202 31.817 22.1212 32.1483 20.9094 32.2531C21.9199 31.1496 23.4473 29.0911 23.5565 26.6322C23.5713 26.5135 23.5732 26.416 23.5732 26.345C23.5732 25.9139 23.5265 25.4961 23.4464 25.0931C25.1624 24.7315 26.7071 24.929 26.7984 24.9426C27.1281 24.9877 27.367 25.2787 27.3607 25.6081C27.3538 25.7505 27.1988 29.0854 24.814 30.9079Z" fill="white"/>
<path d="M1.62508 15.0805C7.16372 15.8495 12.8253 16.2307 18.5708 16.2307C24.3165 16.2307 30.1524 15.8495 36.0336 15.0805C36.3502 15.0417 36.596 14.764 36.596 14.4408V14.3244C36.596 12.4048 35.1031 10.8474 33.261 10.8474H4.39767C2.56228 10.8474 1.06935 12.4051 1.06935 14.3244V14.4408C1.06935 14.7637 1.30856 15.0354 1.62508 15.0805Z" fill="white"/>
<path d="M18.5708 0C11.9238 0 7.02553 5.58075 4.90658 8.53102H32.2343C30.1158 5.58075 25.2183 0 18.5708 0Z" fill="white"/>
</svg>
