<svg width="23" height="40" viewBox="0 0 23 40" fill="none" xmlns="http://www.w3.org/2000/svg">
<path fill-rule="evenodd" clip-rule="evenodd" d="M3.55612 39.9966H18.092C20.8988 39.9966 22.0146 38.1651 22.0146 36.2685V23.0495C22.0146 19.9124 20.1291 17.6441 18.6766 17.1312C17.223 16.6183 12.9066 13.0569 12.9066 13.0569V9.95949C12.6853 10.0006 12.4583 10.022 12.2259 10.022H5.84066V13.9971C5.84066 15.7631 3.8495 18.6459 2.30843 22.3586C-0.0791653 28.1096 0.0280723 31.0398 0.0280723 37.0475C0.0280723 37.9591 0.672183 40.0978 3.55615 39.9965L3.55612 39.9966ZM19.7855 6.94047C20.3107 8.41158 21.2662 10.2835 22.9745 11.7423L21.2935 13.6017C21.2935 13.6017 17.2661 11.9904 15.22 8.51221C15.559 8.05668 15.7971 7.52124 15.8998 6.94054L19.7855 6.94047ZM8.88879 0H19.4919V5.7823H14.7979V6.29188C14.7979 7.7065 13.6405 8.86413 12.2256 8.86413H4.78785C3.37293 8.86413 2.21561 7.70627 2.21561 6.29188L8.88856 0.000299698L8.88879 0ZM20.6503 0H22.9745V5.7823H20.6503V0Z" fill="#FF0000"/>
</svg>
