<svg width="21" height="40" viewBox="0 0 21 40" fill="none" xmlns="http://www.w3.org/2000/svg">
<path fill-rule="evenodd" clip-rule="evenodd" d="M4.65254 7.01752C5.5881 7.01752 6.40695 6.4327 6.52388 5.37996C6.52388 4.91205 6.99179 4.4444 7.45944 4.4444H13.5412C14.0091 4.4444 14.4767 4.91231 14.4767 5.37996C14.4767 6.43267 15.4123 7.01752 16.3481 7.01752C18.5701 7.01752 20.3246 8.77194 20.3246 10.9941V38.0117C20.3246 39.1814 19.3891 40 18.2194 40H2.78098C1.61135 40 0.675781 39.1814 0.675781 38.0117V32.7486H9.33072C10.7341 32.7486 11.9038 31.579 11.9038 30.1756V16.2571C11.9038 14.8537 10.7341 13.684 9.33072 13.684H0.675781V10.9941C0.675781 8.77201 2.4302 7.01752 4.65232 7.01752H4.65254ZM0.675995 15.6725H9.33093C9.68193 15.6725 9.91575 15.9063 9.91575 16.2573V30.1757C9.91575 30.5268 9.68193 30.7606 9.33093 30.7606H0.675995V15.6725Z" fill="#FF0000"/>
<path fill-rule="evenodd" clip-rule="evenodd" d="M5.93896 0H15.0617C15.5297 0 15.8804 0.351005 15.8804 0.818637V3.15791C15.8804 3.62582 15.5294 3.97654 15.0617 3.97654H5.93896C5.47105 3.97654 5.12032 3.62554 5.12032 3.15791V0.818637C5.12032 0.350726 5.47133 0 5.93896 0Z" fill="#FF0000"/>
</svg>
