<svg width="20" height="40" viewBox="0 0 20 40" fill="none" xmlns="http://www.w3.org/2000/svg">
<path fill-rule="evenodd" clip-rule="evenodd" d="M4.3166 7.01752C5.25216 7.01752 6.07102 6.4327 6.18794 5.37996C6.18794 4.91205 6.65585 4.4444 7.12351 4.4444H13.2052C13.6732 4.4444 14.1408 4.91231 14.1408 5.37996C14.1408 6.43267 15.0764 7.01752 16.0122 7.01752C18.2342 7.01752 19.9887 8.77194 19.9887 10.9941V38.0117C19.9887 39.1814 19.0531 40 17.8835 40H2.44504C1.27541 40 0.339844 39.1814 0.339844 38.0117V32.7486H8.99478C10.3982 32.7486 11.5678 31.579 11.5678 30.1756V16.2571C11.5678 14.8537 10.3982 13.684 8.99478 13.684H0.339844V10.9941C0.339844 8.77201 2.09426 7.01752 4.31639 7.01752H4.3166ZM0.340057 15.6725H8.99499C9.346 15.6725 9.57981 15.9063 9.57981 16.2573V30.1757C9.57981 30.5268 9.346 30.7606 8.99499 30.7606H0.340057V15.6725Z" fill="white"/>
<path fill-rule="evenodd" clip-rule="evenodd" d="M5.60302 0H14.7258C15.1937 0 15.5444 0.351005 15.5444 0.818637V3.15791C15.5444 3.62582 15.1934 3.97654 14.7258 3.97654H5.60302C5.13511 3.97654 4.78438 3.62554 4.78438 3.15791V0.818637C4.78438 0.350726 5.13539 0 5.60302 0Z" fill="white"/>
</svg>
