<svg width="35" height="35" viewBox="0 0 35 35" fill="none" xmlns="http://www.w3.org/2000/svg">
<path d="M3.03187 30.418C2.7303 30.418 2.48553 30.1732 2.48553 29.8716L2.4858 16.5678C2.4858 16.2662 2.73057 16.0215 3.03214 16.0215C3.33372 16.0215 3.57848 16.2662 3.57848 16.5678V29.8716C3.57821 30.1735 3.33345 30.418 3.03187 30.418Z" fill="white"/>
<path d="M7.10089 24.7024C6.79932 24.7024 6.55456 24.4577 6.55456 24.1561V22.0935C6.55456 21.792 6.79932 21.5472 7.10089 21.5472C7.40247 21.5472 7.64723 21.792 7.64723 22.0935V24.1561C7.64723 24.4577 7.40247 24.7024 7.10089 24.7024Z" fill="white"/>
<path d="M24.1635 25.49C24.1635 27.3108 25.6442 28.7915 27.465 28.7915H32.6505V22.1886H27.465C25.6443 22.1889 24.1635 23.6695 24.1635 25.49ZM29.684 25.4973C29.684 26.5022 28.8595 27.3202 27.8468 27.3202C26.8419 27.3202 26.0239 26.5022 26.0239 25.4973C26.0239 24.4846 26.8419 23.6602 27.8468 23.6602C28.8595 23.6602 29.684 24.4846 29.684 25.4973Z" fill="white"/>
<path d="M29.1762 16.0046H29.0289V10.5358C29.0289 9.42432 28.1309 8.51904 27.0197 8.51904H25.7977L26.9018 9.62305H27.0194C27.52 9.62305 27.9247 10.0353 27.9247 10.5358V16.0046H6.76409C5.15957 16.0046 3.78307 14.93 3.49604 13.4506C3.28251 12.3908 3.60644 11.3086 4.36472 10.5579C4.55616 10.3667 4.76215 10.2046 4.99048 10.0721C4.858 9.7116 4.77696 9.32872 4.76969 8.93884C4.3281 9.14483 3.93065 9.4246 3.58469 9.77057C2.78253 10.5802 2.34068 11.6549 2.33344 12.781C2.33344 12.7882 2.32617 12.803 2.32617 12.8176V31.2037C2.32617 33.2867 4.01906 34.9723 6.0948 34.9723H6.43946L6.43892 26.5241C6.43892 26.2193 6.6861 25.9721 6.99091 25.9721C7.29572 25.9721 7.5429 26.2193 7.5429 26.5241V34.9716H29.1764C31.0901 34.9716 32.6504 33.4112 32.6504 31.4976V29.895H27.4649C25.0353 29.895 23.0595 27.9191 23.0595 25.4895C23.0595 23.06 25.0353 21.0841 27.4649 21.0841H32.6504V19.4782C32.6504 17.5643 31.0898 16.0046 29.1762 16.0046Z" fill="white"/>
<path d="M6.62388 6.9663C6.13812 7.45959 5.86591 8.10719 5.86591 8.79892C5.86591 9.49092 6.13813 10.146 6.62388 10.639L10.8928 14.9007H17.1564L7.92717 5.67074L6.62388 6.9663Z" fill="white"/>
<path d="M27.9251 10.6758V15.3276C29.0145 13.9659 29.0145 12.0229 27.9251 10.6758Z" fill="white"/>
<path d="M26.8877 11.1684L16.4873 0.768019C15.4789 -0.240381 13.8302 -0.240381 12.8218 0.768019L8.70741 4.88992L18.7177 14.9002H21.9669C21.9577 14.8921 21.9459 14.8891 21.9373 14.8805L19.1585 12.1009C18.9428 11.8852 18.9428 11.536 19.1585 11.3203C19.3742 11.1046 19.7234 11.1046 19.9391 11.3203L23.5184 14.9002H26.8218L26.888 14.834C27.8961 13.8181 27.8961 12.1771 26.8877 11.1684ZM17.8563 8.80592C17.444 9.21817 16.8921 9.44623 16.3107 9.44623C15.7291 9.44623 15.1771 9.2179 14.7651 8.80592C14.4191 8.45992 14.2056 8.01831 14.1469 7.54737C13.6832 7.4884 13.2341 7.27514 12.8883 6.92914C12.4761 6.51689 12.248 5.96492 12.248 5.38355C12.248 4.80194 12.4761 4.24997 12.8883 3.83769C13.7128 3.0132 15.148 3.0132 15.9798 3.83769C16.3258 4.18369 16.5393 4.6253 16.598 5.09625C17.0689 5.15521 17.5181 5.37601 17.8566 5.71448C18.7101 6.56833 18.7101 7.95207 17.8563 8.80592ZM24.433 13.1647C24.3253 13.2724 24.1842 13.3266 24.0426 13.3266C23.901 13.3266 23.7602 13.2727 23.6522 13.1647L20.8734 10.3851C20.6577 10.1695 20.6577 9.82023 20.8734 9.60456C21.0899 9.38808 21.4391 9.38969 21.654 9.60456L24.4328 12.3842C24.6487 12.5998 24.6487 12.9491 24.433 13.1647Z" fill="white"/>
</svg>
