<svg width="59" height="40" viewBox="0 0 59 40" fill="none" xmlns="http://www.w3.org/2000/svg">
<path d="M22.5305 19.9264C22.5305 31.614 28.6187 39.1763 38.969 39.8528V32.3061C33.7293 31.657 31.129 27.5474 31.129 19.9225C31.129 12.2976 33.7293 8.18797 38.969 7.54279V0C28.6187 0.676466 22.5305 8.2388 22.5305 19.9264ZM42.0385 0V7.5467C47.2704 8.19188 49.8198 12.3054 49.8198 19.9264C49.8198 27.5513 47.2704 31.6648 42.0385 32.31V39.8567C52.3927 39.1763 58.4809 31.5632 58.4809 19.9303C58.4809 8.29746 52.3927 0.680376 42.0385 0Z" fill="#FF0000"/>
<path d="M14.551 1.36695L0.519531 6.3886V14.1541L18.4297 6.68852V1.36695H14.551ZM9.89003 40H18.4297V10.016L9.89003 13.5705V40Z" fill="#FF0000"/>
</svg>
