<svg width="35" height="35" viewBox="0 0 35 35" fill="none" xmlns="http://www.w3.org/2000/svg">
<g clip-path="url(#clip0_162_3430)">
<path d="M29.9295 17.5967C29.0697 14.9108 27.3786 12.5676 25.1005 10.9055C22.8223 9.24298 20.0751 8.34757 17.2552 8.34807C16.215 8.35904 15.1795 8.48918 14.1691 8.7363C13.3995 6.75521 13.7434 4.51434 15.0716 2.85518C15.6735 2.10751 16.546 1.62712 17.4996 1.51794C18.4532 1.409 19.4115 1.68025 20.1667 2.27272C20.6071 2.62535 20.8893 3.13836 20.9512 3.69886C21.0131 4.25962 20.8496 4.82185 20.4967 5.262C20.308 5.49816 20.0329 5.64949 19.7322 5.6824C19.4317 5.71505 19.1305 5.62659 18.8953 5.4365C18.6872 5.27004 18.6525 4.96664 18.8175 4.75727C18.9401 4.60423 18.9969 4.40878 18.975 4.21381C18.953 4.01909 18.8546 3.84094 18.7013 3.71885C18.3762 3.4883 17.9265 3.5619 17.6918 3.88383C17.3611 4.28716 17.2066 4.8065 17.2632 5.32513C17.3199 5.84374 17.5827 6.31749 17.9925 6.63991C18.5348 7.07273 19.2264 7.27284 19.9161 7.19654C20.6056 7.12001 21.2365 6.77347 21.6708 6.23244C22.2703 5.49108 22.5467 4.5399 22.4375 3.59266C22.3605 2.62464 21.8906 1.73048 21.1371 1.11808C20.0706 0.268532 18.7103 -0.121647 17.3557 0.033077C16.0012 0.187832 14.7639 0.874824 13.9166 1.94273C12.6876 3.472 12.1183 5.42769 12.3347 7.37759C12.4025 7.981 12.5426 8.57395 12.7519 9.14393C10.8342 9.83389 9.10027 10.9549 7.68361 12.4203C6.26695 13.8858 5.20535 15.6567 4.58052 17.5969C3.25283 17.7565 2.08841 18.5591 1.46646 19.7429C0.844507 20.9268 0.84452 22.3411 1.46646 23.525C2.0884 24.7091 3.25283 25.5115 4.58052 25.6713C5.43887 28.3586 7.12922 30.7038 9.40759 32.3675C11.6858 34.0315 14.434 34.9283 17.2555 34.9283C20.0769 34.9283 22.8249 34.0315 25.1033 32.3675C27.3817 30.7037 29.072 28.3585 29.9304 25.6713C31.2581 25.5114 32.4225 24.7091 33.0444 23.525C33.6664 22.3411 33.6664 20.9268 33.0444 19.7429C32.4225 18.5591 31.2581 17.7565 29.9304 17.5969L29.9295 17.5967ZM13.1888 18.3149H13.1885C13.9609 18.3149 14.7015 18.6215 15.2474 19.1676C15.7933 19.7135 16.1001 20.4541 16.1001 21.2262C16.1001 21.6337 15.7699 21.9639 15.3627 21.9639C14.9537 21.9639 14.6206 21.6351 14.6152 21.2262C14.5392 20.7622 14.2465 20.362 13.8268 20.1493C13.4074 19.9365 12.9117 19.9365 12.4923 20.1493C12.0726 20.362 11.7799 20.7622 11.7039 21.2262C11.7039 21.6337 11.3737 21.9639 10.9662 21.9639C10.559 21.9639 10.2288 21.6337 10.2288 21.2262C10.2414 20.4498 10.559 19.7092 11.1127 19.1644C11.6664 18.6198 12.4119 18.3147 13.1885 18.3149H13.1888ZM12.4511 24.264C12.4511 23.8565 12.7813 23.5263 13.1885 23.5263C13.596 23.5263 13.9262 23.8565 13.9262 24.264C13.9262 25.453 14.5606 26.5521 15.5905 27.1468C16.6207 27.7414 17.8894 27.7414 18.9195 27.1468C19.9494 26.5521 20.5838 25.453 20.5838 24.264C20.5838 23.8431 20.925 23.5021 21.3456 23.5021C21.7665 23.5021 22.1074 23.8431 22.1074 24.264C22.1074 25.9802 21.1918 27.5659 19.7055 28.4243C18.2191 29.2824 16.3879 29.2824 14.9015 28.4243C13.4152 27.5659 12.4996 25.9802 12.4996 24.264H12.4511ZM23.5338 22.0416V22.0414C23.1263 22.0414 22.7961 21.7112 22.7961 21.3039C22.7201 20.8397 22.4274 20.4397 22.008 20.2267C21.5883 20.014 21.0926 20.014 20.6732 20.2267C20.2538 20.4397 19.9608 20.8397 19.8848 21.3039C19.8794 21.7129 19.5465 22.0414 19.1375 22.0414C18.7301 22.0414 18.3999 21.7112 18.3999 21.3039C18.3999 20.2482 18.9631 19.2726 19.8775 18.7446C20.7918 18.2167 21.9183 18.2167 22.8326 18.7446C23.747 19.2727 24.3102 20.2483 24.3102 21.3039C24.3003 21.4996 24.2128 21.6834 24.067 21.8143C23.9213 21.9454 23.7295 22.0131 23.5338 22.0026L23.5338 22.0416Z" fill="white"/>
</g>
<defs>
<clipPath id="clip0_162_3430">
<rect width="35" height="35" fill="white"/>
</clipPath>
</defs>
</svg>
