<svg width="104" height="40" viewBox="0 0 104 40" fill="none" xmlns="http://www.w3.org/2000/svg">
<path d="M22.367 12.8703C22.367 15.6523 20.5965 17.1794 12.1572 24.0534L8.65371 26.8793L8.60844 26.9153L6.17729 28.8768H17.7389L19.1189 27.7627C26.5545 21.7623 30.921 18.3812 30.921 12.4897C30.921 6.35846 26.0735 1.1043 17.8768 0.54054V8.0667C20.9679 8.64248 22.367 10.698 22.367 12.8703ZM0.824091 39.3271H31.8108V31.9099H2.40713L0.824091 33.1853V39.3271ZM14.8458 7.97828V0.545492C6.80541 1.12127 1.08581 6.16818 0.53125 13.9624H9.03072C9.61358 10.4816 11.4407 8.37086 14.8458 7.97828Z" fill="#FF0000"/>
<path d="M61.5556 18.7878C64.6276 17.3132 66.3986 14.4211 66.3986 11.0911C66.3986 4.99801 61.0484 0.538247 53.2711 0.0099216V7.45857C56.4745 7.95092 57.8958 9.80378 57.8958 12.1304C57.8958 14.968 55.4142 15.9515 51.6353 15.9515H47.2065V22.7763H52.7006C57.5436 22.7763 59.136 24.4146 59.136 27.0339C59.136 29.8988 57.334 31.7888 53.2711 32.0728V39.4595C61.9041 39.1469 67.6401 34.9377 67.6401 27.7979C67.6376 23.4832 65.3941 20.2612 61.5556 18.7878ZM44.4272 26.9223H35.8649C36.5172 34.7206 42.5421 38.8071 50.2326 39.3999V31.9922C47.1061 31.5842 45.0213 30.0773 44.4272 26.9223ZM50.2326 7.37919V0C42.8373 0.461355 37.11 4.48581 36.2766 12.0734H44.7819C45.5087 8.95797 47.4186 7.65328 50.2326 7.37919Z" fill="#FF0000"/>
<path d="M97.385 19.3283C100.457 17.8537 102.228 14.9616 102.228 11.6317C102.228 5.53855 96.8777 1.07879 89.1004 0.550462V7.99911C92.3038 8.49146 93.7251 10.3443 93.7251 12.6709C93.7251 15.5085 91.2435 16.492 87.4646 16.492H83.0358V23.3168H88.5299C93.3729 23.3168 94.9653 24.9551 94.9653 27.5744C94.9653 30.4393 93.1633 32.3294 89.1004 32.6134V40C97.7335 39.6875 103.469 35.4782 103.469 28.3384C103.467 24.0237 101.223 20.8017 97.385 19.3283ZM80.2565 27.4628H71.6942C72.3465 35.2612 78.3714 39.3477 86.0619 39.9405V32.5327C82.9354 32.1247 80.8506 30.6179 80.2565 27.4628ZM86.0619 7.91973V0.54054C78.6666 1.0019 72.9394 5.02635 72.1059 12.6139H80.6112C81.338 9.49851 83.2479 8.19382 86.0619 7.91973Z" fill="#FF0000"/>
</svg>
