<svg width="35" height="35" viewBox="0 0 35 35" fill="none" xmlns="http://www.w3.org/2000/svg">
<path d="M0 9.99626C0.742921 11.3071 2.09738 12.0936 3.45184 12.0061C4.36944 14.2346 3.53933 15.458 4.01978 17.4243C4.50052 19.4342 6.46682 20.2646 6.94727 21.9248C7.51521 24.0658 6.68509 27.2118 6.37933 30.1832C5.6364 30.0957 3.32075 31.1444 4.28195 32.8924H8.21453C8.69528 30.7951 9.83116 28.523 10.3119 25.4205C10.7488 28.9599 11.9724 28.6977 14.2445 30.5329C12.3218 30.0521 8.78247 30.1832 8.95745 32.8924H20.9739C21.0614 32.8049 22.1537 32.1934 22.5034 32.1495C23.7706 32.4992 25.6494 32.9796 26.7417 32.8924C31.9852 32.5867 33.2524 32.2806 34.738 27.7801C36.0924 22.1434 29.4509 15.0647 29.1888 18.1673C29.1452 18.9103 34.1264 22.8864 32.9467 27.7801C31.8544 32.3681 27.1353 31.3194 25.868 30.6204C27.3533 16.5507 18.265 15.2833 18.265 15.2833C18.265 15.2833 13.0652 13.3606 11.3175 11.9625C10.4873 11.2635 9.78802 8.55431 8.69573 6.85019C7.03521 4.27206 4.10772 4.27206 1.83566 2C1.57348 3.26727 1.35491 5.32075 2.09783 6.23835C0.743071 6.80629 0.743071 8.94727 0.000449763 9.99596L0 9.99626Z" fill="white"/>
</svg>
