<svg width="35" height="35" viewBox="0 0 35 35" fill="none" xmlns="http://www.w3.org/2000/svg">
<path d="M34.1788 12.0312H30.0861L28.9486 9.1875C27.7796 6.26377 24.9899 4.375 21.8406 4.375H13.1589C10.0103 4.375 7.21987 6.26377 6.05024 9.1875L4.91274 12.0312H0.820748C0.286861 12.0312 -0.104838 12.533 0.0250444 13.0505L0.435201 14.6911C0.526119 15.0562 0.854244 15.3125 1.2309 15.3125H2.60288C1.68481 16.1144 1.0935 17.2799 1.0935 18.5938V21.875C1.0935 22.977 1.5146 23.9716 2.18725 24.7413V28.4375C2.18725 29.6454 3.16684 30.625 4.37475 30.625H6.56225C7.77016 30.625 8.74975 29.6454 8.74975 28.4375V26.25H26.2498V28.4375C26.2498 29.6454 27.2293 30.625 28.4373 30.625H30.6248C31.8327 30.625 32.8123 29.6454 32.8123 28.4375V24.7413C33.4849 23.9723 33.906 22.9776 33.906 21.875V18.5938C33.906 17.2799 33.3147 16.1144 32.3973 15.3125H33.7693C34.1459 15.3125 34.4741 15.0562 34.565 14.6911L34.9751 13.0505C35.1043 12.533 34.7126 12.0312 34.1788 12.0312ZM10.1122 10.8124C10.6105 9.56689 11.817 8.75 13.1589 8.75H21.8406C23.1825 8.75 24.389 9.56689 24.8874 10.8124L26.2498 14.2188H8.74975L10.1122 10.8124ZM6.56225 21.8613C5.24975 21.8613 4.37475 20.9891 4.37475 19.6807C4.37475 18.3723 5.24975 17.5 6.56225 17.5C7.87475 17.5 9.8435 19.4626 9.8435 20.771C9.8435 22.0794 7.87475 21.8613 6.56225 21.8613ZM28.4373 21.8613C27.1248 21.8613 25.156 22.0794 25.156 20.771C25.156 19.4626 27.1248 17.5 28.4373 17.5C29.7498 17.5 30.6248 18.3723 30.6248 19.6807C30.6248 20.9891 29.7498 21.8613 28.4373 21.8613Z" fill="white"/>
</svg>
