<svg width="117" height="40" viewBox="0 0 117 40" fill="none" xmlns="http://www.w3.org/2000/svg">
<path d="M30.15 24.1032V1.36695H17.5523L0.894531 24.159V31.5536H18.5424V24.1032H10.0313L21.0748 8.70576H21.6154V40H30.15V31.5536L36.0022 31.5007V24.159L30.15 24.1032Z" fill="#FF0000"/>
<path d="M40.1031 19.9264C40.1031 31.614 46.1913 39.1763 56.5416 39.8528V32.3061C51.3019 31.657 48.7016 27.5474 48.7016 19.9225C48.7016 12.2976 51.3019 8.18797 56.5416 7.54279V0C46.1913 0.676466 40.1031 8.2388 40.1031 19.9264ZM59.6111 0V7.5467C64.843 8.19188 67.3925 12.3054 67.3925 19.9264C67.3925 27.5513 64.843 31.6648 59.6111 32.31V39.8567C69.9654 39.1763 76.0536 31.5632 76.0536 19.9303C76.0536 8.29746 69.9654 0.680376 59.6111 0Z" fill="#FF0000"/>
<path d="M80.1545 19.9264C80.1545 31.614 86.2427 39.1763 96.593 39.8528V32.3061C91.3533 31.657 88.753 27.5474 88.753 19.9225C88.753 12.2976 91.3533 8.18797 96.593 7.54279V0C86.2427 0.676466 80.1545 8.2388 80.1545 19.9264ZM99.6625 0V7.5467C104.894 8.19188 107.444 12.3054 107.444 19.9264C107.444 27.5513 104.894 31.6648 99.6625 32.31V39.8567C110.017 39.1763 116.105 31.5632 116.105 19.9303C116.105 8.29746 110.017 0.680376 99.6625 0Z" fill="#FF0000"/>
</svg>
