<svg width="35" height="35" viewBox="0 0 35 35" fill="none" xmlns="http://www.w3.org/2000/svg">
<path d="M20.6185 2.00002C20.4979 2.00002 20.3768 2.04336 20.2809 2.13157L18.5572 3.71432C18.4598 3.80381 18.402 3.92823 18.3963 4.06055C18.3905 4.19287 18.4376 4.32188 18.5271 4.41927L28.023 14.7577C28.1125 14.8554 28.2369 14.9133 28.3692 14.9189C28.3764 14.9191 28.3835 14.9194 28.3906 14.9194C28.5153 14.9194 28.6359 14.8725 28.7279 14.7878L30.4519 13.2051C30.6549 13.0187 30.6684 12.7028 30.4818 12.4999L20.9859 2.16139C20.8875 2.05431 20.7531 2 20.6183 2L20.6185 2.00002ZM14.3882 2.00002C14.2533 2.00002 14.119 2.05432 14.0203 2.16141L4.52446 12.4999C4.33809 12.7028 4.35161 13.0187 4.55455 13.2051L6.27828 14.7878C6.37057 14.8725 6.49116 14.9194 6.61584 14.9194C6.62298 14.9194 6.63012 14.9191 6.63725 14.9189C6.76932 14.9133 6.89399 14.8554 6.98348 14.7578L16.4793 4.41929C16.5691 4.3219 16.616 4.19289 16.6104 4.06057C16.6048 3.92825 16.5469 3.80383 16.4495 3.71434L14.7255 2.13159C14.6296 2.04338 14.5088 2.00004 14.3882 2.00004L14.3882 2.00002ZM1.4977 11.2356V11.2359H1.49235C1.23663 11.2359 0.852669 11.2448 0.555621 11.4159C0.50514 11.4452 0.454658 11.4801 0.406986 11.522C0.326674 11.5918 0.264721 11.6711 0.216788 11.7529C0.0202204 12.0887 0.0357737 12.5463 0.0360282 12.7871L0.0339886 14.5223C0.0299094 14.8173 0.00109936 15.3866 0.282823 15.7688C0.322851 15.8233 0.369506 15.8751 0.423554 15.9222C0.448795 15.9444 0.474545 15.9648 0.500806 15.9834C0.842954 16.2269 1.32912 16.2353 1.64274 16.2353H1.64529C1.73681 16.2353 1.82936 16.2338 1.91732 16.2325L17.3095 16.2432V16.2435H17.3233H17.5033L17.6835 16.2437H17.6838C17.6884 16.2437 17.6929 16.2435 17.6975 16.2435L33.089 16.2392H33.0893C33.1778 16.2404 33.2713 16.2422 33.3636 16.2422C33.6775 16.2422 34.1634 16.2338 34.5056 15.9908V15.9906C34.5321 15.972 34.5578 15.9516 34.5831 15.9296V15.9294C34.6371 15.8822 34.6838 15.8305 34.7238 15.7762C35.0055 15.3942 34.9772 14.8249 34.9731 14.5297L34.9719 12.7944C34.9724 12.5538 34.9882 12.0961 34.7916 11.7603C34.7439 11.6785 34.6817 11.599 34.6017 11.5291C34.5537 11.4873 34.5035 11.4524 34.453 11.4233H34.4528C34.154 11.2507 33.7672 11.2425 33.5115 11.2425H33.511C33.4281 11.2425 33.3447 11.2441 33.2662 11.2456L30.2093 11.2446L30.9596 12.0612C31.3882 12.528 31.3574 13.2538 30.8906 13.6825L29.1668 15.2652C28.9547 15.46 28.6776 15.5673 28.3907 15.5673C28.3744 15.5673 28.3581 15.5671 28.3418 15.5663C28.0376 15.5536 27.7513 15.4202 27.5453 15.1961L23.914 11.2426L17.8129 11.2405C17.8099 11.2403 17.8065 11.2403 17.8035 11.2403H17.2046H17.2031H17.1954L11.0951 11.2398L7.46101 15.1961C7.25527 15.4202 6.9687 15.5536 6.66481 15.5663C6.64849 15.5671 6.63218 15.5673 6.61586 15.5673C6.32904 15.5673 6.0519 15.46 5.83976 15.2652L4.11603 13.6825C3.64921 13.2539 3.61836 12.528 4.04693 12.0612L4.80209 11.2392L1.74212 11.2387V11.239C1.6636 11.2374 1.58023 11.2359 1.49737 11.2357L1.4977 11.2356ZM17.6509 18.706H17.6545C18.4211 18.7081 19.0409 19.3312 19.0391 20.0975L19.0208 27.0114C19.019 27.7768 18.3977 28.3955 17.6328 28.3955H17.6292C16.8626 28.3935 16.2428 27.7706 16.2445 27.004L16.2629 20.0908C16.2647 19.3254 16.886 18.7064 17.6509 18.7064V18.706ZM8.81752 18.523C9.45312 18.523 10.0265 18.9623 10.1708 19.6086L11.7958 26.8847C11.9628 27.6327 11.4917 28.3746 10.7436 28.5416C10.6417 28.5646 10.5399 28.5753 10.4397 28.5753C9.80389 28.5753 9.23078 28.136 9.08647 27.4897L7.46143 20.2136C7.29443 19.4653 7.76533 18.7236 8.51362 18.5564C8.6156 18.5337 8.71732 18.523 8.81752 18.523V18.523ZM26.4653 18.5265C26.5655 18.5265 26.6675 18.5375 26.7695 18.5605C27.5178 18.7277 27.9885 19.4699 27.8212 20.2179L26.1931 27.4934C26.0485 28.1394 25.4754 28.5784 24.8398 28.5784C24.7393 28.5784 24.6374 28.5675 24.5354 28.5448C23.7873 28.3773 23.3164 27.6354 23.484 26.8873L25.1121 19.6119C25.2566 18.9661 25.8298 18.5268 26.4654 18.5268L26.4653 18.5265ZM2.20717 16.9339L4.50454 29.0724C4.50505 29.0752 4.50556 29.0778 4.50607 29.0803L4.50709 29.0857C4.64221 29.7414 4.8087 30.6335 5.26328 31.1286C5.77038 31.6811 6.54286 31.6804 7.01377 31.6969C7.01862 31.6972 7.02346 31.6972 7.02831 31.6972L16.6103 31.7517V31.752C16.6414 31.7579 16.6735 31.7612 16.7064 31.7612H16.7092L17.4983 31.7568L18.2877 31.7614H18.2905C18.3231 31.7614 18.3552 31.7584 18.3863 31.7523L27.9684 31.7018C27.9732 31.7018 27.978 31.7015 27.9831 31.7013C28.4538 31.6849 29.2263 31.686 29.7336 31.134C30.1885 30.6389 30.3555 29.747 30.4906 29.0913L30.4919 29.0859C30.4924 29.0831 30.4929 29.0806 30.4934 29.078L32.7959 16.9401L17.7039 16.9445C17.6968 16.9445 17.6897 16.9447 17.6825 16.9447H17.6818L17.5018 16.9445H17.322H17.3004H17.3001L2.20717 16.9339Z" fill="white"/>
</svg>
