<svg width="33" height="40" viewBox="0 0 33 40" fill="none" xmlns="http://www.w3.org/2000/svg">
<path d="M1.8626 10.9694C1.8626 14.6236 3.83747 17.6703 7.13481 19.1099C2.94129 20.7157 0.664062 24.2038 0.664062 28.4667C0.664062 35.2644 6.80658 39.5424 15.21 40V32.5568C11.421 32.219 9.29219 30.5519 9.29219 27.7503C9.29219 24.7962 11.3801 23.2858 15.21 22.9889V15.9965C11.6934 15.6655 10.4294 14.1169 10.4294 11.9636C10.4294 9.63873 11.9426 7.86544 15.21 7.45684V0C7.56792 0.509381 1.8626 4.88406 1.8626 10.9694ZM26.3659 19.1099C29.6006 17.6703 31.6381 14.6236 31.6381 10.9694C31.6381 4.89632 25.9573 0.528448 18.2908 0.00272396V7.46638C21.5295 7.88859 23.0713 9.65235 23.0713 11.9636C23.0713 14.1047 21.7761 15.6478 18.2908 15.991V22.9916C22.1384 23.298 24.2086 24.8057 24.2086 27.7503C24.2086 30.5424 22.0975 32.2067 18.2908 32.5541V40C26.716 39.5288 32.8367 35.2549 32.8367 28.4695C32.8367 24.2038 30.5595 20.7157 26.3659 19.1099Z" fill="#FF0000"/>
</svg>
