<svg width="307" height="239" viewBox="0 0 307 239" fill="none" xmlns="http://www.w3.org/2000/svg">
<path opacity="0.5" d="M30.69 234.674H26.81L28.15 233.514C29.76 232.114 30.5 231.474 30.5 230.434C30.5 229.264 29.56 228.364 28.13 228.364C26.71 228.364 25.7 229.234 25.5 230.624H26.34C26.53 229.724 27.1 229.154 28.09 229.154C29.06 229.154 29.67 229.704 29.67 230.464C29.67 231.184 29.17 231.614 27.47 233.104L25.44 234.874V235.474H30.69V234.674ZM34.4352 228.364C32.6752 228.364 31.6152 229.654 31.6152 231.974C31.6152 234.294 32.6752 235.584 34.4352 235.584C36.2152 235.584 37.2552 234.264 37.2552 231.974C37.2552 229.684 36.2152 228.364 34.4352 228.364ZM34.4352 234.794C33.2552 234.794 32.4552 233.984 32.4552 231.974C32.4552 229.964 33.2552 229.154 34.4352 229.154C35.6152 229.154 36.4152 229.964 36.4152 231.974C36.4152 233.984 35.6152 234.794 34.4352 234.794ZM40.3297 228.474L38.2697 229.274V230.094L39.8797 229.444V235.474H40.7097V228.474H40.3297ZM44.9218 230.854C44.2318 230.854 43.7218 231.074 43.3218 231.444L43.7818 229.264H46.9718V228.474H43.1518L42.3018 232.464H43.1018C43.4218 231.914 43.9618 231.554 44.7618 231.554C45.7418 231.554 46.4618 232.184 46.4618 233.154C46.4618 234.084 45.7518 234.794 44.7518 234.794C43.8218 234.794 43.0818 234.314 42.8718 233.404H42.0318C42.2418 234.844 43.4218 235.584 44.7518 235.584C46.1918 235.584 47.3018 234.584 47.3018 233.154C47.3018 231.734 46.2318 230.854 44.9218 230.854Z" fill="#999999"/>
<path opacity="0.5" d="M66.69 234.674H62.81L64.15 233.514C65.76 232.114 66.5 231.474 66.5 230.434C66.5 229.264 65.56 228.364 64.13 228.364C62.71 228.364 61.7 229.234 61.5 230.624H62.34C62.53 229.724 63.1 229.154 64.09 229.154C65.06 229.154 65.67 229.704 65.67 230.464C65.67 231.184 65.17 231.614 63.47 233.104L61.44 234.874V235.474H66.69V234.674ZM70.4352 228.364C68.6752 228.364 67.6152 229.654 67.6152 231.974C67.6152 234.294 68.6752 235.584 70.4352 235.584C72.2152 235.584 73.2552 234.264 73.2552 231.974C73.2552 229.684 72.2152 228.364 70.4352 228.364ZM70.4352 234.794C69.2552 234.794 68.4552 233.984 68.4552 231.974C68.4552 229.964 69.2552 229.154 70.4352 229.154C71.6152 229.154 72.4152 229.964 72.4152 231.974C72.4152 233.984 71.6152 234.794 70.4352 234.794ZM76.3297 228.474L74.2697 229.274V230.094L75.8797 229.444V235.474H76.7097V228.474H76.3297ZM80.8718 230.764C80.3418 230.764 79.9318 230.924 79.5618 231.134L81.5518 228.474H80.5818C78.7718 230.884 78.0318 231.844 78.0318 233.064C78.0318 234.654 79.2218 235.584 80.6418 235.584C82.1118 235.584 83.2618 234.604 83.2618 233.094C83.2618 231.594 82.1218 230.764 80.8718 230.764ZM80.6418 234.794C79.6618 234.794 78.8718 234.154 78.8718 233.104C78.8718 232.054 79.6218 231.414 80.6518 231.414C81.6418 231.414 82.4318 232.044 82.4318 233.094C82.4318 234.124 81.6418 234.794 80.6418 234.794Z" fill="#999999"/>
<path opacity="0.5" d="M102.69 234.674H98.81L100.15 233.514C101.76 232.114 102.5 231.474 102.5 230.434C102.5 229.264 101.56 228.364 100.13 228.364C98.71 228.364 97.7 229.234 97.5 230.624H98.34C98.53 229.724 99.1 229.154 100.09 229.154C101.06 229.154 101.67 229.704 101.67 230.464C101.67 231.184 101.17 231.614 99.47 233.104L97.44 234.874V235.474H102.69V234.674ZM106.435 228.364C104.675 228.364 103.615 229.654 103.615 231.974C103.615 234.294 104.675 235.584 106.435 235.584C108.215 235.584 109.255 234.264 109.255 231.974C109.255 229.684 108.215 228.364 106.435 228.364ZM106.435 234.794C105.255 234.794 104.455 233.984 104.455 231.974C104.455 229.964 105.255 229.154 106.435 229.154C107.615 229.154 108.415 229.964 108.415 231.974C108.415 233.984 107.615 234.794 106.435 234.794ZM112.33 228.474L110.27 229.274V230.094L111.88 229.444V235.474H112.71V228.474H112.33ZM113.932 228.474V229.274H117.722L114.622 235.474H115.562L118.702 229.104V228.474H113.932Z" fill="#999999"/>
<path opacity="0.5" d="M209.69 234.674H205.81L207.15 233.514C208.76 232.114 209.5 231.474 209.5 230.434C209.5 229.264 208.56 228.364 207.13 228.364C205.71 228.364 204.7 229.234 204.5 230.624H205.34C205.53 229.724 206.1 229.154 207.09 229.154C208.06 229.154 208.67 229.704 208.67 230.464C208.67 231.184 208.17 231.614 206.47 233.104L204.44 234.874V235.474H209.69V234.674ZM213.435 228.364C211.675 228.364 210.615 229.654 210.615 231.974C210.615 234.294 211.675 235.584 213.435 235.584C215.215 235.584 216.255 234.264 216.255 231.974C216.255 229.684 215.215 228.364 213.435 228.364ZM213.435 234.794C212.255 234.794 211.455 233.984 211.455 231.974C211.455 229.964 212.255 229.154 213.435 229.154C214.615 229.154 215.415 229.964 215.415 231.974C215.415 233.984 214.615 234.794 213.435 234.794ZM222.444 234.674H218.564L219.904 233.514C221.514 232.114 222.254 231.474 222.254 230.434C222.254 229.264 221.314 228.364 219.884 228.364C218.464 228.364 217.454 229.234 217.254 230.624H218.094C218.284 229.724 218.854 229.154 219.844 229.154C220.814 229.154 221.424 229.704 221.424 230.464C221.424 231.184 220.924 231.614 219.224 233.104L217.194 234.874V235.474H222.444V234.674ZM226.189 228.364C224.429 228.364 223.369 229.654 223.369 231.974C223.369 234.294 224.429 235.584 226.189 235.584C227.969 235.584 229.009 234.264 229.009 231.974C229.009 229.684 227.969 228.364 226.189 228.364ZM226.189 234.794C225.009 234.794 224.209 233.984 224.209 231.974C224.209 229.964 225.009 229.154 226.189 229.154C227.369 229.154 228.169 229.964 228.169 231.974C228.169 233.984 227.369 234.794 226.189 234.794Z" fill="#999999"/>
<path opacity="0.5" d="M138.69 234.674H134.81L136.15 233.514C137.76 232.114 138.5 231.474 138.5 230.434C138.5 229.264 137.56 228.364 136.13 228.364C134.71 228.364 133.7 229.234 133.5 230.624H134.34C134.53 229.724 135.1 229.154 136.09 229.154C137.06 229.154 137.67 229.704 137.67 230.464C137.67 231.184 137.17 231.614 135.47 233.104L133.44 234.874V235.474H138.69V234.674ZM142.435 228.364C140.675 228.364 139.615 229.654 139.615 231.974C139.615 234.294 140.675 235.584 142.435 235.584C144.215 235.584 145.255 234.264 145.255 231.974C145.255 229.684 144.215 228.364 142.435 228.364ZM142.435 234.794C141.255 234.794 140.455 233.984 140.455 231.974C140.455 229.964 141.255 229.154 142.435 229.154C143.615 229.154 144.415 229.964 144.415 231.974C144.415 233.984 143.615 234.794 142.435 234.794ZM148.33 228.474L146.27 229.274V230.094L147.88 229.444V235.474H148.71V228.474H148.33ZM153.942 231.784C154.612 231.534 154.972 230.964 154.972 230.284C154.972 229.114 153.932 228.364 152.622 228.364C151.302 228.364 150.272 229.114 150.272 230.284C150.272 230.964 150.632 231.534 151.292 231.784C150.482 232.054 150.032 232.724 150.032 233.564C150.032 234.834 151.172 235.584 152.622 235.584C154.072 235.584 155.202 234.834 155.202 233.564C155.202 232.724 154.752 232.054 153.942 231.784ZM152.622 229.144C153.522 229.144 154.142 229.604 154.142 230.374C154.142 231.014 153.712 231.474 152.622 231.474C151.532 231.474 151.102 231.014 151.102 230.374C151.102 229.604 151.722 229.144 152.622 229.144ZM152.622 234.804C151.592 234.804 150.862 234.334 150.862 233.504C150.862 232.624 151.462 232.204 152.622 232.204C153.762 232.204 154.372 232.624 154.372 233.504C154.372 234.334 153.642 234.804 152.622 234.804Z" fill="#999999"/>
<path opacity="0.5" d="M246.69 234.674H242.81L244.15 233.514C245.76 232.114 246.5 231.474 246.5 230.434C246.5 229.264 245.56 228.364 244.13 228.364C242.71 228.364 241.7 229.234 241.5 230.624H242.34C242.53 229.724 243.1 229.154 244.09 229.154C245.06 229.154 245.67 229.704 245.67 230.464C245.67 231.184 245.17 231.614 243.47 233.104L241.44 234.874V235.474H246.69V234.674ZM250.435 228.364C248.675 228.364 247.615 229.654 247.615 231.974C247.615 234.294 248.675 235.584 250.435 235.584C252.215 235.584 253.255 234.264 253.255 231.974C253.255 229.684 252.215 228.364 250.435 228.364ZM250.435 234.794C249.255 234.794 248.455 233.984 248.455 231.974C248.455 229.964 249.255 229.154 250.435 229.154C251.615 229.154 252.415 229.964 252.415 231.974C252.415 233.984 251.615 234.794 250.435 234.794ZM259.444 234.674H255.564L256.904 233.514C258.514 232.114 259.254 231.474 259.254 230.434C259.254 229.264 258.314 228.364 256.884 228.364C255.464 228.364 254.454 229.234 254.254 230.624H255.094C255.284 229.724 255.854 229.154 256.844 229.154C257.814 229.154 258.424 229.704 258.424 230.464C258.424 231.184 257.924 231.614 256.224 233.104L254.194 234.874V235.474H259.444V234.674ZM262.287 228.474L260.227 229.274V230.094L261.837 229.444V235.474H262.667V228.474H262.287Z" fill="#999999"/>
<path opacity="0.5" d="M174.69 234.674H170.81L172.15 233.514C173.76 232.114 174.5 231.474 174.5 230.434C174.5 229.264 173.56 228.364 172.13 228.364C170.71 228.364 169.7 229.234 169.5 230.624H170.34C170.53 229.724 171.1 229.154 172.09 229.154C173.06 229.154 173.67 229.704 173.67 230.464C173.67 231.184 173.17 231.614 171.47 233.104L169.44 234.874V235.474H174.69V234.674ZM178.435 228.364C176.675 228.364 175.615 229.654 175.615 231.974C175.615 234.294 176.675 235.584 178.435 235.584C180.215 235.584 181.255 234.264 181.255 231.974C181.255 229.684 180.215 228.364 178.435 228.364ZM178.435 234.794C177.255 234.794 176.455 233.984 176.455 231.974C176.455 229.964 177.255 229.154 178.435 229.154C179.615 229.154 180.415 229.964 180.415 231.974C180.415 233.984 179.615 234.794 178.435 234.794ZM184.33 228.474L182.27 229.274V230.094L183.88 229.444V235.474H184.71V228.474H184.33ZM188.652 228.364C187.192 228.364 186.032 229.344 186.032 230.854C186.032 232.354 187.182 233.184 188.422 233.184C188.952 233.184 189.362 233.024 189.732 232.814L187.742 235.474H188.712C190.522 233.064 191.262 232.104 191.262 230.884C191.262 229.294 190.082 228.364 188.652 228.364ZM188.642 232.534C187.662 232.534 186.872 231.904 186.872 230.854C186.872 229.824 187.652 229.154 188.652 229.154C189.642 229.154 190.432 229.794 190.432 230.844C190.432 231.894 189.672 232.534 188.642 232.534Z" fill="#999999"/>
<path opacity="0.5" d="M281.69 234.674H277.81L279.15 233.514C280.76 232.114 281.5 231.474 281.5 230.434C281.5 229.264 280.56 228.364 279.13 228.364C277.71 228.364 276.7 229.234 276.5 230.624H277.34C277.53 229.724 278.1 229.154 279.09 229.154C280.06 229.154 280.67 229.704 280.67 230.464C280.67 231.184 280.17 231.614 278.47 233.104L276.44 234.874V235.474H281.69V234.674ZM285.435 228.364C283.675 228.364 282.615 229.654 282.615 231.974C282.615 234.294 283.675 235.584 285.435 235.584C287.215 235.584 288.255 234.264 288.255 231.974C288.255 229.684 287.215 228.364 285.435 228.364ZM285.435 234.794C284.255 234.794 283.455 233.984 283.455 231.974C283.455 229.964 284.255 229.154 285.435 229.154C286.615 229.154 287.415 229.964 287.415 231.974C287.415 233.984 286.615 234.794 285.435 234.794ZM294.444 234.674H290.564L291.904 233.514C293.514 232.114 294.254 231.474 294.254 230.434C294.254 229.264 293.314 228.364 291.884 228.364C290.464 228.364 289.454 229.234 289.254 230.624H290.094C290.284 229.724 290.854 229.154 291.844 229.154C292.814 229.154 293.424 229.704 293.424 230.464C293.424 231.184 292.924 231.614 291.224 233.104L289.194 234.874V235.474H294.444V234.674ZM300.577 234.674H296.697L298.037 233.514C299.647 232.114 300.387 231.474 300.387 230.434C300.387 229.264 299.447 228.364 298.017 228.364C296.597 228.364 295.587 229.234 295.387 230.624H296.227C296.417 229.724 296.987 229.154 297.977 229.154C298.947 229.154 299.557 229.704 299.557 230.464C299.557 231.184 299.057 231.614 297.357 233.104L295.327 234.874V235.474H300.577V234.674Z" fill="#999999"/>
<path opacity="0.5" d="M10.1031 209.744C8.34313 209.744 7.28313 211.034 7.28313 213.354C7.28313 215.674 8.34313 216.964 10.1031 216.964C11.8831 216.964 12.9231 215.644 12.9231 213.354C12.9231 211.064 11.8831 209.744 10.1031 209.744ZM10.1031 216.174C8.92313 216.174 8.12313 215.364 8.12313 213.354C8.12313 211.344 8.92313 210.534 10.1031 210.534C11.2831 210.534 12.0831 211.344 12.0831 213.354C12.0831 215.364 11.2831 216.174 10.1031 216.174Z" fill="#999999"/>
<path opacity="0.5" d="M4.63438 142.817L2.57438 143.617V144.437L4.18438 143.787V149.817H5.01438V142.817H4.63438ZM9.29648 142.707C7.53648 142.707 6.47648 143.997 6.47648 146.317C6.47648 148.637 7.53648 149.927 9.29648 149.927C11.0765 149.927 12.1165 148.607 12.1165 146.317C12.1165 144.027 11.0765 142.707 9.29648 142.707ZM9.29648 149.137C8.11648 149.137 7.31648 148.327 7.31648 146.317C7.31648 144.307 8.11648 143.497 9.29648 143.497C10.4765 143.497 11.2765 144.307 11.2765 146.317C11.2765 148.327 10.4765 149.137 9.29648 149.137Z" fill="#999999"/>
<path opacity="0.5" d="M5.69 81.2361H1.81L3.15 80.0761C4.76 78.6761 5.5 78.0361 5.5 76.9961C5.5 75.8261 4.56 74.9261 3.13 74.9261C1.71 74.9261 0.7 75.7961 0.5 77.1861H1.34C1.53 76.2861 2.1 75.7161 3.09 75.7161C4.06 75.7161 4.67 76.2661 4.67 77.0261C4.67 77.7461 4.17 78.1761 2.47 79.6661L0.44 81.4361V82.0361H5.69V81.2361ZM9.43516 74.9261C7.67516 74.9261 6.61516 76.2161 6.61516 78.5361C6.61516 80.8561 7.67516 82.1461 9.43516 82.1461C11.2152 82.1461 12.2552 80.8261 12.2552 78.5361C12.2552 76.2461 11.2152 74.9261 9.43516 74.9261ZM9.43516 81.3561C8.25516 81.3561 7.45516 80.5461 7.45516 78.5361C7.45516 76.5261 8.25516 75.7161 9.43516 75.7161C10.6152 75.7161 11.4152 76.5261 11.4152 78.5361C11.4152 80.5461 10.6152 81.3561 9.43516 81.3561Z" fill="#999999"/>
<path opacity="0.5" d="M4.44 11.31C5.1 11.07 5.45 10.5 5.45 9.84C5.45 8.68 4.42 7.89 3.08 7.89C1.83 7.89 0.81 8.48 0.55 9.91H1.39C1.63 8.99 2.22 8.68 3.06 8.68C3.98 8.68 4.61 9.16 4.61 9.94C4.61 10.62 4.1 11.02 3.04 11.02H2.31V11.75H3.28C4.42 11.75 4.84 12.28 4.84 12.98C4.84 13.8 4.21 14.32 3.17 14.32C2.24 14.32 1.49 13.95 1.28 13H0.44C0.65 14.43 1.81 15.11 3.18 15.11C4.65 15.11 5.68 14.32 5.68 13.04C5.68 12.19 5.22 11.56 4.44 11.31ZM9.52305 7.89C7.76305 7.89 6.70305 9.18 6.70305 11.5C6.70305 13.82 7.76305 15.11 9.52305 15.11C11.303 15.11 12.343 13.79 12.343 11.5C12.343 9.21 11.303 7.89 9.52305 7.89ZM9.52305 14.32C8.34305 14.32 7.54305 13.51 7.54305 11.5C7.54305 9.49 8.34305 8.68 9.52305 8.68C10.703 8.68 11.503 9.49 11.503 11.5C11.503 13.51 10.703 14.32 9.52305 14.32Z" fill="#999999"/>
<rect opacity="0.2" x="21.25" y="217.25" width="284.5" height="0.5" rx="0.25" stroke="#999999" stroke-width="0.5" stroke-dasharray="2.98 5.96"/>
<rect opacity="0.2" x="21" y="150" width="285" height="0" stroke="#999999"/>
<rect opacity="0.2" x="21" y="82" width="285" height="0" stroke="#999999"/>
<rect opacity="0.2" x="21.25" y="14.25" width="284.5" height="0.5" rx="0.25" stroke="#999999" stroke-width="0.5" stroke-dasharray="2.98 5.96"/>
<path d="M302 20.6418C302 19.4077 301 18.4072 299.765 18.4072H278.165C276.931 18.4072 275.93 19.4077 275.93 20.6418V218.026H302V20.6418Z" fill="#FF0000"/>
<path d="M266 59.3742C266 58.1401 265 57.1396 263.765 57.1396H242.165C240.931 57.1396 239.93 58.1401 239.93 59.3742V218.026H266V59.3742Z" fill="#FF0000"/>
<path d="M158 136.838C158 135.604 157 134.604 155.765 134.604H134.165C132.931 134.604 131.93 135.604 131.93 136.838V218.026H158V136.838Z" fill="#FF0000"/>
<path d="M122 164.397C122 163.163 121 162.162 119.765 162.162H98.1649C96.9308 162.162 95.9304 163.163 95.9304 164.397V218.026H122V164.397Z" fill="#FF0000"/>
<path d="M86 185.997C86 184.763 84.9996 183.763 83.7655 183.763H62.1649C60.9308 183.763 59.9304 184.763 59.9304 185.997V218.026H86V185.997Z" fill="#FF0000"/>
<path d="M50 212.812C50 211.578 48.9996 210.577 47.7655 210.577H26.1649C24.9308 210.577 23.9304 211.578 23.9304 212.812V218.026H50V212.812Z" fill="#FF0000"/>
<path d="M230 91.4025C230 90.1684 229 89.168 227.765 89.168H206.165C204.931 89.168 203.93 90.1684 203.93 91.4025V218.026H230V91.4025Z" fill="#FF0000"/>
<path d="M194 113.003C194 111.769 193 110.769 191.765 110.769H170.165C168.931 110.769 167.93 111.769 167.93 113.003V218.026H194V113.003Z" fill="#FF0000"/>
<path d="M204.165 75.46V77.632H206.313V79.264H204.165V81.436H202.449V79.264H200.301V77.632H202.449V75.46H204.165ZM214.609 78.556V80.152L213.433 80.164V82H211.717V80.164H207.553V78.556L210.901 73.6H213.433V78.544L214.609 78.556ZM209.389 78.544H211.717V75.196H211.609L209.389 78.544ZM216.308 74.332C216.932 73.748 217.704 73.456 218.624 73.456C219.544 73.456 220.316 73.74 220.94 74.308C221.572 74.876 221.888 75.624 221.888 76.552C221.888 76.744 221.876 76.928 221.852 77.104C221.828 77.28 221.78 77.472 221.708 77.68C221.636 77.88 221.572 78.056 221.516 78.208C221.46 78.352 221.36 78.544 221.216 78.784C221.072 79.016 220.96 79.2 220.88 79.336C220.8 79.464 220.656 79.668 220.448 79.948C220.248 80.228 220.1 80.436 220.004 80.572C219.908 80.7 219.728 80.936 219.464 81.28C219.208 81.616 219.024 81.856 218.912 82H216.896L219.164 79.084C218.82 79.244 218.476 79.324 218.132 79.324C217.38 79.324 216.732 79.084 216.188 78.604C215.644 78.116 215.372 77.44 215.372 76.576C215.372 75.656 215.684 74.908 216.308 74.332ZM218.624 78.016C219.08 78.016 219.448 77.888 219.728 77.632C220.008 77.368 220.148 77.012 220.148 76.564C220.148 76.116 220.004 75.76 219.716 75.496C219.436 75.224 219.076 75.088 218.636 75.088C218.188 75.088 217.82 75.224 217.532 75.496C217.244 75.768 217.1 76.128 217.1 76.576C217.1 77.024 217.24 77.376 217.52 77.632C217.808 77.888 218.176 78.016 218.624 78.016ZM227.302 77.848C226.878 78.288 226.31 78.508 225.598 78.508C224.886 78.508 224.318 78.288 223.894 77.848C223.47 77.4 223.258 76.776 223.258 75.976C223.258 75.184 223.47 74.568 223.894 74.128C224.318 73.68 224.886 73.456 225.598 73.456C226.31 73.456 226.878 73.68 227.302 74.128C227.726 74.568 227.938 75.184 227.938 75.976C227.938 76.776 227.726 77.4 227.302 77.848ZM232.186 73.6L227.386 82H225.754L230.554 73.6H232.186ZM224.746 75.976C224.746 76.776 225.03 77.176 225.598 77.176C226.166 77.176 226.45 76.776 226.45 75.976C226.45 75.184 226.166 74.788 225.598 74.788C225.03 74.788 224.746 75.184 224.746 75.976ZM230.638 77.764C231.07 77.316 231.642 77.092 232.354 77.092C233.066 77.092 233.634 77.316 234.058 77.764C234.482 78.204 234.694 78.824 234.694 79.624C234.694 80.416 234.482 81.036 234.058 81.484C233.634 81.924 233.066 82.144 232.354 82.144C231.642 82.144 231.07 81.924 230.638 81.484C230.214 81.036 230.002 80.416 230.002 79.624C230.002 78.832 230.214 78.212 230.638 77.764ZM233.206 79.624C233.206 78.824 232.922 78.424 232.354 78.424C231.786 78.424 231.502 78.824 231.502 79.624C231.502 80.416 231.786 80.812 232.354 80.812C232.922 80.812 233.206 80.416 233.206 79.624Z" fill="#999999"/>
<path d="M239.852 43.46V45.632H242V47.264H239.852V49.436H238.136V47.264H235.988V45.632H238.136V43.46H239.852ZM247.044 44.36C247.828 44.36 248.492 44.612 249.036 45.116C249.58 45.612 249.852 46.288 249.852 47.144C249.852 48.048 249.548 48.776 248.94 49.328C248.332 49.872 247.564 50.144 246.636 50.144C245.772 50.144 245.024 49.904 244.392 49.424C243.768 48.936 243.424 48.236 243.36 47.324H245.1C245.156 47.724 245.324 48.024 245.604 48.224C245.892 48.424 246.232 48.524 246.624 48.524C247.072 48.524 247.432 48.392 247.704 48.128C247.976 47.864 248.112 47.528 248.112 47.12C248.112 46.712 247.976 46.388 247.704 46.148C247.432 45.9 247.08 45.776 246.648 45.776C246 45.776 245.536 46.008 245.256 46.472H243.612L244.656 41.6H249.456V43.232H245.94L245.628 44.744C246.036 44.488 246.508 44.36 247.044 44.36ZM255.903 45.608C256.319 45.784 256.639 46.052 256.863 46.412C257.087 46.764 257.199 47.172 257.199 47.636C257.199 48.404 256.895 49.016 256.287 49.472C255.687 49.92 254.915 50.144 253.971 50.144C253.035 50.144 252.263 49.92 251.655 49.472C251.055 49.016 250.755 48.404 250.755 47.636C250.755 47.172 250.867 46.764 251.091 46.412C251.315 46.052 251.635 45.784 252.051 45.608C251.723 45.448 251.463 45.212 251.271 44.9C251.087 44.588 250.995 44.236 250.995 43.844C250.995 43.148 251.279 42.576 251.847 42.128C252.415 41.68 253.123 41.456 253.971 41.456C254.827 41.456 255.539 41.68 256.107 42.128C256.675 42.576 256.959 43.148 256.959 43.844C256.959 44.236 256.863 44.588 256.671 44.9C256.487 45.212 256.231 45.448 255.903 45.608ZM254.919 43.34C254.703 43.156 254.387 43.064 253.971 43.064C253.555 43.064 253.239 43.156 253.023 43.34C252.815 43.516 252.711 43.756 252.711 44.06C252.711 44.652 253.131 44.948 253.971 44.948C254.819 44.948 255.243 44.652 255.243 44.06C255.243 43.756 255.135 43.516 254.919 43.34ZM253.971 48.536C254.451 48.536 254.819 48.448 255.075 48.272C255.339 48.088 255.471 47.824 255.471 47.48C255.471 46.784 254.971 46.436 253.971 46.436C252.979 46.436 252.483 46.784 252.483 47.48C252.483 47.824 252.611 48.088 252.867 48.272C253.131 48.448 253.499 48.536 253.971 48.536ZM262.614 45.848C262.19 46.288 261.622 46.508 260.91 46.508C260.198 46.508 259.63 46.288 259.206 45.848C258.782 45.4 258.57 44.776 258.57 43.976C258.57 43.184 258.782 42.568 259.206 42.128C259.63 41.68 260.198 41.456 260.91 41.456C261.622 41.456 262.19 41.68 262.614 42.128C263.038 42.568 263.25 43.184 263.25 43.976C263.25 44.776 263.038 45.4 262.614 45.848ZM267.498 41.6L262.698 50H261.066L265.866 41.6H267.498ZM260.058 43.976C260.058 44.776 260.342 45.176 260.91 45.176C261.478 45.176 261.762 44.776 261.762 43.976C261.762 43.184 261.478 42.788 260.91 42.788C260.342 42.788 260.058 43.184 260.058 43.976ZM265.95 45.764C266.382 45.316 266.954 45.092 267.666 45.092C268.378 45.092 268.946 45.316 269.37 45.764C269.794 46.204 270.006 46.824 270.006 47.624C270.006 48.416 269.794 49.036 269.37 49.484C268.946 49.924 268.378 50.144 267.666 50.144C266.954 50.144 266.382 49.924 265.95 49.484C265.526 49.036 265.314 48.416 265.314 47.624C265.314 46.832 265.526 46.212 265.95 45.764ZM268.518 47.624C268.518 46.824 268.234 46.424 267.666 46.424C267.098 46.424 266.814 46.824 266.814 47.624C266.814 48.416 267.098 48.812 267.666 48.812C268.234 48.812 268.518 48.416 268.518 47.624Z" fill="#999999"/>
<path d="M275.799 4.46V6.632H277.947V8.264H275.799V10.436H274.083V8.264H271.935V6.632H274.083V4.46H275.799ZM283.064 5.276C283.816 5.276 284.464 5.52 285.008 6.008C285.552 6.488 285.824 7.16 285.824 8.024C285.824 8.944 285.512 9.696 284.888 10.28C284.264 10.856 283.492 11.144 282.572 11.144C281.652 11.144 280.876 10.86 280.244 10.292C279.62 9.724 279.308 8.976 279.308 8.048C279.308 7.856 279.32 7.672 279.344 7.496C279.368 7.32 279.416 7.132 279.488 6.932C279.56 6.724 279.62 6.548 279.668 6.404C279.724 6.26 279.824 6.068 279.968 5.828C280.12 5.58 280.232 5.396 280.304 5.276C280.376 5.148 280.52 4.94 280.736 4.652C280.952 4.356 281.1 4.152 281.18 4.04C281.268 3.928 281.448 3.692 281.72 3.332C281.992 2.972 282.176 2.728 282.272 2.6H284.3L282.02 5.516C282.38 5.356 282.728 5.276 283.064 5.276ZM282.56 9.512C283.008 9.512 283.372 9.376 283.652 9.104C283.94 8.832 284.084 8.472 284.084 8.024C284.084 7.576 283.94 7.224 283.652 6.968C283.372 6.712 283.012 6.584 282.572 6.584C282.116 6.584 281.744 6.716 281.456 6.98C281.176 7.236 281.036 7.588 281.036 8.036C281.036 8.484 281.18 8.844 281.468 9.116C281.756 9.38 282.12 9.512 282.56 9.512ZM287.673 3.332C288.297 2.748 289.069 2.456 289.989 2.456C290.909 2.456 291.681 2.74 292.305 3.308C292.937 3.876 293.253 4.624 293.253 5.552C293.253 5.744 293.241 5.928 293.217 6.104C293.193 6.28 293.145 6.472 293.073 6.68C293.001 6.88 292.937 7.056 292.881 7.208C292.825 7.352 292.725 7.544 292.581 7.784C292.437 8.016 292.325 8.2 292.245 8.336C292.165 8.464 292.021 8.668 291.813 8.948C291.613 9.228 291.465 9.436 291.369 9.572C291.273 9.7 291.093 9.936 290.829 10.28C290.573 10.616 290.389 10.856 290.277 11H288.261L290.529 8.084C290.185 8.244 289.841 8.324 289.497 8.324C288.745 8.324 288.097 8.084 287.553 7.604C287.009 7.116 286.737 6.44 286.737 5.576C286.737 4.656 287.049 3.908 287.673 3.332ZM289.989 7.016C290.445 7.016 290.813 6.888 291.093 6.632C291.373 6.368 291.513 6.012 291.513 5.564C291.513 5.116 291.369 4.76 291.081 4.496C290.801 4.224 290.441 4.088 290.001 4.088C289.553 4.088 289.185 4.224 288.897 4.496C288.609 4.768 288.465 5.128 288.465 5.576C288.465 6.024 288.605 6.376 288.885 6.632C289.173 6.888 289.541 7.016 289.989 7.016ZM298.667 6.848C298.243 7.288 297.675 7.508 296.963 7.508C296.251 7.508 295.683 7.288 295.259 6.848C294.835 6.4 294.623 5.776 294.623 4.976C294.623 4.184 294.835 3.568 295.259 3.128C295.683 2.68 296.251 2.456 296.963 2.456C297.675 2.456 298.243 2.68 298.667 3.128C299.091 3.568 299.303 4.184 299.303 4.976C299.303 5.776 299.091 6.4 298.667 6.848ZM303.551 2.6L298.751 11H297.119L301.919 2.6H303.551ZM296.111 4.976C296.111 5.776 296.395 6.176 296.963 6.176C297.531 6.176 297.815 5.776 297.815 4.976C297.815 4.184 297.531 3.788 296.963 3.788C296.395 3.788 296.111 4.184 296.111 4.976ZM302.003 6.764C302.435 6.316 303.007 6.092 303.719 6.092C304.431 6.092 304.999 6.316 305.423 6.764C305.847 7.204 306.059 7.824 306.059 8.624C306.059 9.416 305.847 10.036 305.423 10.484C304.999 10.924 304.431 11.144 303.719 11.144C303.007 11.144 302.435 10.924 302.003 10.484C301.579 10.036 301.367 9.416 301.367 8.624C301.367 7.832 301.579 7.212 302.003 6.764ZM304.571 8.624C304.571 7.824 304.287 7.424 303.719 7.424C303.151 7.424 302.867 7.824 302.867 8.624C302.867 9.416 303.151 9.812 303.719 9.812C304.287 9.812 304.571 9.416 304.571 8.624Z" fill="#999999"/>
</svg>
