<svg width="24" height="41" viewBox="0 0 24 41" fill="none" xmlns="http://www.w3.org/2000/svg">
<path fill-rule="evenodd" clip-rule="evenodd" d="M4.38815 40.9927H18.924C21.7308 40.9927 22.8466 39.1612 22.8466 37.2646V24.0456C22.8466 20.9085 20.9612 18.6402 19.5087 18.1273C18.055 17.6144 13.7387 14.053 13.7387 14.053V10.9556C13.5173 10.9967 13.2903 11.018 13.0579 11.018H6.67269V14.9932C6.67269 16.7592 4.68153 19.642 3.14046 23.3547C0.752866 29.1057 0.860104 32.0359 0.860104 38.0435C0.860104 38.9552 1.50421 41.0939 4.38819 40.9926L4.38815 40.9927ZM20.6176 7.93656C21.1427 9.40768 22.0983 11.2796 23.8065 12.7384L22.1256 14.5978C22.1256 14.5978 18.0981 12.9865 16.052 9.5083C16.391 9.05277 16.6291 8.51733 16.7318 7.93664L20.6176 7.93656ZM9.72082 0.996094H20.3239V6.77839H15.6299V7.28798C15.6299 8.70259 14.4726 9.86022 13.0576 9.86022H5.61988C4.20496 9.86022 3.04764 8.70236 3.04764 7.28798L9.72059 0.996393L9.72082 0.996094ZM21.4824 0.996094H23.8065V6.77839H21.4824V0.996094Z" fill="white"/>
</svg>
