<svg width="27" height="41" viewBox="0 0 27 41" fill="none" xmlns="http://www.w3.org/2000/svg">
<path d="M0.713534 17.213C3.44006 19.2711 8.25516 20.3938 13.6639 20.3938C19.0726 20.3938 23.8874 19.2711 26.6142 17.213V33.9324C26.6142 38.0555 20.733 40.9961 13.6639 40.9961C6.5948 40.9961 0.713534 38.0554 0.713534 33.9324V17.213ZM18.673 28.0419C17.1399 28.4289 15.4334 28.6344 13.6635 28.6344C11.8935 28.6344 10.187 28.4289 8.65386 28.0419C8.02341 27.8827 7.3832 28.265 7.2243 28.8954C7.06515 29.5259 7.44712 30.1658 8.07761 30.325C9.8023 30.7602 11.7023 30.9889 13.6635 30.9889C15.6246 30.9889 17.5247 30.7603 19.2493 30.325C19.8798 30.1658 20.2617 29.5258 20.1026 28.8954C19.9437 28.2649 19.3035 27.8827 18.673 28.0419ZM3.10232 10.1396C4.908 12.5486 7.86568 14.7809 11.476 16.4645C12.8276 17.0947 14.1795 17.6056 15.4994 17.9893C14.8996 18.0222 14.2865 18.0392 13.6632 18.0392C6.51117 18.0392 0.712891 15.7991 0.712891 13.0358C0.712891 11.9563 1.59743 10.9568 3.10182 10.1395L3.10232 10.1396ZM12.4709 14.3305C6.34949 11.4761 2.3275 6.83321 3.87929 3.50449C5.43143 0.176337 11.5732 0.272618 17.6952 3.127C23.8167 5.98168 27.8387 10.6243 26.2862 13.953C24.7343 17.2812 18.5923 17.1852 12.4709 14.3305Z" fill="white"/>
</svg>
