<svg width="40" height="36" viewBox="0 0 40 36" fill="none" xmlns="http://www.w3.org/2000/svg">
<path d="M38.2274 22.3496C36.7096 20.0731 35.5712 17.5433 34.981 14.8874C34.0534 10.7554 32.0298 7.42481 28.7412 7.00327C28.9942 4.38937 30.9337 2.49191 30.7228 1.94404C30.4699 1.31175 30.0482 1.4382 28.6148 1.1009C27.4343 0.805631 27.0549 4.81113 27.3078 7.04566C24.9469 7.38298 23.2603 9.2381 22.2062 11.8099C23.0918 12.3158 23.9349 13.0324 24.6516 13.8759C29.8373 19.9047 26.4223 31.5413 22.9229 35.6309C22.8808 35.6729 22.8385 35.7153 22.7964 35.7573C23.0494 35.7994 23.3023 35.7994 23.5976 35.7994C24.736 35.7994 25.79 35.5465 26.7596 35.0827C27.6028 34.7033 28.5304 34.7033 29.3735 35.0827C30.3432 35.5465 31.3972 35.7994 32.5356 35.7994C36.6673 35.7994 39.9981 32.4688 39.9981 28.3369C40.0402 26.4394 39.3656 24.1208 38.2274 22.3498L38.2274 22.3496Z" fill="white"/>
<path d="M22.923 15.3931C19.5501 11.5143 15.0811 13.1585 13.3104 14.0862C13.9006 10.9662 15.6293 8.77395 16.5989 7.76202C17.0627 7.25618 16.8098 6.41272 16.1351 6.28624H16.0507C14.9546 6.11772 13.8583 6.58151 13.2259 7.46674C11.8766 9.40629 11.6661 12.1887 11.6661 14.0438C9.8533 13.1162 5.42633 11.514 2.09555 15.3931C-2.20494 20.3679 0.999437 30.7818 3.82422 34.1125C6.01666 36.6843 10.3592 35.6724 11.9191 35.1665C12.2985 35.0401 12.6779 35.0401 13.0575 35.1665C14.6174 35.6303 18.9599 36.6843 21.1524 34.1125C24.0192 30.7816 27.1813 20.368 22.9232 15.3931H22.923ZM8.79915 30.6553C8.58828 30.8238 8.37742 30.8662 8.12451 30.8662C7.78718 30.8662 7.49221 30.7397 7.28136 30.4444C5.51061 28.1255 3.73992 21.169 5.89005 18.6815C6.26943 18.2178 6.94408 18.1757 7.40785 18.5551C7.87163 18.9345 7.91369 19.6091 7.53431 20.0729C6.3538 21.4642 7.4499 27.1137 9.01009 29.1375C9.38947 29.6436 9.30536 30.318 8.79922 30.6553L8.79915 30.6553Z" fill="white"/>
<path d="M9.47372 12.0202C10.0219 12.1467 10.5277 11.7249 10.5277 11.177C10.4857 10.2495 10.2748 8.81611 9.38932 7.76209C8.5038 6.66599 7.19688 6.1599 6.26934 5.94933C5.72116 5.82287 5.21532 6.2446 5.21532 6.79247C5.25738 7.72001 5.46824 9.1534 6.35374 10.2074C7.23927 11.2614 8.54618 11.7673 9.47372 12.0202Z" fill="white"/>
<path d="M24.7781 6.28631C25.3263 6.41277 25.8321 5.99104 25.8321 5.44317C25.7901 4.51563 25.5792 3.08223 24.6937 2.02821C23.8082 0.932105 22.5013 0.426024 21.5737 0.215446C21.0256 0.0889856 20.5197 0.510715 20.5197 1.05859C20.5618 1.98613 20.7726 3.41952 21.6581 4.47354C22.5437 5.56965 23.8506 6.07543 24.7781 6.28631Z" fill="white"/>
</svg>
