<svg width="560" height="103" viewBox="0 0 560 103" fill="none" xmlns="http://www.w3.org/2000/svg">
<g clip-path="url(#clip0_2_22)">
<path d="M0 12C0 5.37258 5.37258 0 12 0H560V103H12C5.37259 103 0 97.6274 0 91V12Z" fill="#FF0000"/>
<path d="M123.63 83.44H141.56V43.44H170.32V83.44H188.25V26.89H123.63V83.44ZM470.7 55.44C470.7 74.44 486.12 84.28 503.98 84.28C510.69 84.28 516.98 82.9 522.24 79.51L522.73 79.83V83.47H539.73V26.89H522.73V30.77L522.24 31.01C516.633 27.6543 510.193 25.9457 503.66 26.08C486.05 26.08 470.66 36.08 470.66 54.92V55.41L470.7 55.44ZM505.52 67.88C495.99 67.88 488.52 65.05 488.52 55.28C488.52 45.28 496.44 42.51 505.52 42.51C514.6 42.51 522.73 45.26 522.73 55.28C522.73 65.05 515.13 67.88 505.52 67.88ZM397.66 92.57H414.39V83.44H450.26V92.57H467V69.06H461V26.89L410.11 27.05L409.79 33.35C409 49.43 407 63.16 403.41 69.06H397.67V92.57H397.66ZM444 69.06H418.91C421.41 63.73 423.03 54.06 423.84 41.35H444V69.06ZM336.59 83.44H392.25V69.06H351.94V62H390.47V48.3H351.94V41.3H391.84V26.89H336.59V83.44ZM270.33 83.44H307.25C321.96 83.44 329.25 76.65 329.25 65.44V64.7C329.25 53.63 322.79 47.7 306.46 47.7H285.68V41.27H325.58V26.89H270.32V83.44H270.33ZM307.74 69.06H285.68V61.14H307.74C310.89 61.14 312.59 61.95 312.59 65.14C312.59 67.97 310.9 69.14 307.74 69.14V69.06ZM212.9 55.25C212.9 45.47 220.58 42.48 229.3 42.48C238.02 42.48 245.7 45.48 245.7 55.25C245.7 64.78 238.51 67.85 229.3 67.85C220.09 67.85 212.9 64.78 212.9 55.25ZM229.3 84.25C248.2 84.25 263.47 74.39 263.47 55.41V54.92C263.47 36.1 248.28 26.09 229.3 26.09C210.32 26.09 195.12 36.09 195.12 54.92V55.41C195.12 74.41 210.39 84.25 229.3 84.25Z" fill="white"/>
<path d="M11.7 103.2C10.1648 103.201 8.64447 102.9 7.22567 102.314C5.80687 101.728 4.51744 100.868 3.43099 99.7832C2.34455 98.6986 1.48236 97.4106 0.893674 95.9928C0.304983 94.575 0.00131266 93.0552 0 91.52L0 11.69C-5.61992e-07 10.154 0.302701 8.63307 0.890804 7.21412C1.47891 5.79518 2.34088 4.50604 3.42746 3.42039C4.51403 2.33474 5.80391 1.47387 7.22336 0.886981C8.64281 0.300092 10.164 -0.00130966 11.7 4.27755e-06H91.5C93.036 -0.00130966 94.5572 0.300092 95.9766 0.886981C97.3961 1.47387 98.686 2.33474 99.7725 3.42039C100.859 4.50604 101.721 5.79518 102.309 7.21412C102.897 8.63307 103.2 10.154 103.2 11.69V103.21L11.7 103.2Z" fill="white"/>
<path d="M14.0001 7.43994C12.2617 7.44781 10.5967 8.14116 9.36658 9.36942C8.13646 10.5977 7.44057 12.2616 7.43005 13.9999V49.2799L49.2701 7.43994H14.0001Z" fill="#FF0000"/>
<path d="M95.77 14C95.77 12.2469 95.0736 10.5657 93.834 9.32604C92.5944 8.08642 90.9131 7.39001 89.16 7.39001H60.54L95.77 42.66V14Z" fill="#FF0000"/>
<path d="M7.43005 89.17C7.43266 90.9145 8.12474 92.5871 9.35544 93.8235C10.5861 95.0598 12.2556 95.7595 14.0001 95.77H42.0001L7.43005 61.14V89.14V89.17Z" fill="#FF0000"/>
<path d="M84.95 62.57L54.33 31.95L32.24 54.0499L62.86 84.6699L51.76 95.7699H95.77V51.7599L84.95 62.57Z" fill="#00A400"/>
<path d="M32.2401 54.0499L54.3301 31.9499L84.9501 62.5699L95.7701 51.7599V42.6699L60.5401 7.43994H49.2701L7.43005 49.2699V61.1399L42.0701 95.7699H51.7601L62.8601 84.6699L32.2401 54.0499Z" fill="white"/>
</g>
<defs>
<clipPath id="clip0_2_22">
<path d="M0 12C0 5.37258 5.37258 0 12 0H560V103H12C5.37259 103 0 97.6274 0 91V12Z" fill="white"/>
</clipPath>
</defs>
</svg>
