<svg width="14" height="23" viewBox="0 0 14 23" fill="none" xmlns="http://www.w3.org/2000/svg">
<path d="M13.2378 13.7928C13.7625 13.2681 13.8375 12.5185 13.3877 11.7689C13.0129 11.1692 12.3382 10.8694 11.5886 11.0193C11.2888 11.0942 10.9889 11.2442 10.6891 11.469C8.3653 13.0432 5.21694 12.9683 2.89315 11.3941C2.74323 11.3191 2.5933 11.2442 2.44338 11.1692C1.61881 10.7944 0.794244 10.9443 0.344478 11.6939C-0.180249 12.4435 -0.105297 13.2681 0.569352 13.9428C0.719274 14.0927 0.869196 14.1676 0.944157 14.3176L1.01912 14.3925C2.06858 15.2171 3.34292 15.7418 4.99206 15.9667L4.01756 16.9412C3.19299 17.7658 2.29346 18.6653 1.46889 19.4899C1.24401 19.7148 0.944157 20.0896 0.944157 20.6143C0.944157 21.2889 1.31897 21.9636 1.99362 22.2634C2.2185 22.4134 2.44338 22.4133 2.66826 22.4133C3.04307 22.4133 3.49283 22.2634 3.79268 21.8886C4.91709 20.7642 5.81663 19.8647 6.71616 18.9651C6.79112 18.8902 6.79112 18.8902 6.79112 18.8902C6.79112 18.8902 6.86608 18.8902 6.86608 18.9651C7.46577 19.6398 8.14042 20.2395 8.74011 20.9141C9.03995 21.214 9.33979 21.5138 9.63964 21.8137C10.0144 22.1885 10.3143 22.3384 10.7641 22.3384C11.4387 22.4134 12.1883 21.9636 12.4882 21.2889C12.788 20.6892 12.6381 19.9396 12.1134 19.4899C11.3637 18.7403 10.6141 17.9157 9.78956 17.1661L8.51522 15.8917C9.18987 15.8168 9.93948 15.6669 10.6141 15.367C11.7385 14.9922 12.5631 14.4675 13.2378 13.7928Z" fill="#FF0000"/>
<path d="M6.79112 11.6939C10.0144 11.6939 12.6381 9.14524 12.6381 5.92192C12.6381 4.34773 12.0384 2.84852 10.914 1.72411C9.78956 0.59969 8.3653 0 6.86608 0C3.64276 0 1.09408 2.62363 1.01912 5.772C1.01912 7.34618 1.61881 8.77044 2.74323 9.89485C3.79268 11.0942 5.21694 11.6939 6.79112 11.6939ZM5.14198 4.19782C5.59174 3.74805 6.19143 3.52317 6.79112 3.52317C8.14041 3.52317 9.11491 4.57262 9.11491 5.84696C9.11491 7.19626 8.06545 8.17075 6.79112 8.17075C5.44182 8.17075 4.46733 7.1213 4.46733 5.84696C4.46733 5.24727 4.69221 4.64759 5.14198 4.19782Z" fill="#FF0000"/>
<path d="M13.2378 13.7928C13.7625 13.2681 13.8375 12.5185 13.3877 11.7689C13.0129 11.1692 12.3382 10.8694 11.5886 11.0193C11.2888 11.0942 10.9889 11.2442 10.6891 11.469C8.3653 13.0432 5.21694 12.9683 2.89315 11.3941C2.74323 11.3191 2.5933 11.2442 2.44338 11.1692C1.61881 10.7944 0.794244 10.9443 0.344478 11.6939C-0.180249 12.4435 -0.105297 13.2681 0.569352 13.9428C0.719274 14.0927 0.869196 14.1676 0.944157 14.3176L1.01912 14.3925C2.06858 15.2171 3.34292 15.7418 4.99206 15.9667L4.01756 16.9412C3.19299 17.7658 2.29346 18.6653 1.46889 19.4899C1.24401 19.7148 0.944157 20.0896 0.944157 20.6143C0.944157 21.2889 1.31897 21.9636 1.99362 22.2634C2.2185 22.4134 2.44338 22.4133 2.66826 22.4133C3.04307 22.4133 3.49283 22.2634 3.79268 21.8886C4.91709 20.7642 5.81663 19.8647 6.71616 18.9651C6.79112 18.8902 6.79112 18.8902 6.79112 18.8902C6.79112 18.8902 6.86608 18.8902 6.86608 18.9651C7.46577 19.6398 8.14042 20.2395 8.74011 20.9141C9.03995 21.214 9.33979 21.5138 9.63964 21.8137C10.0144 22.1885 10.3143 22.3384 10.7641 22.3384C11.4387 22.4134 12.1883 21.9636 12.4882 21.2889C12.788 20.6892 12.6381 19.9396 12.1134 19.4899C11.3637 18.7403 10.6141 17.9157 9.78956 17.1661L8.51522 15.8917C9.18987 15.8168 9.93948 15.6669 10.6141 15.367C11.7385 14.9922 12.5631 14.4675 13.2378 13.7928Z" fill="#FF0000"/>
</svg>
