<svg width="19" height="22" viewBox="0 0 19 22" fill="none" xmlns="http://www.w3.org/2000/svg">
<path d="M18.9763 5.25358C17.583 5.25354 16.2467 4.70002 15.2616 3.71479C14.2764 2.72955 13.7229 1.3933 13.7229 0H9.96957V14.6974C9.96887 15.3675 9.75729 16.0203 9.36481 16.5635C8.97234 17.1066 8.41887 17.5124 7.78287 17.7234C7.14687 17.9344 6.46059 17.9399 5.8213 17.7391C5.18202 17.5382 4.62215 17.1413 4.22106 16.6045C3.81996 16.0677 3.59799 15.4183 3.5866 14.7483C3.57521 14.0783 3.77498 13.4217 4.15759 12.8716C4.5402 12.3215 5.08625 11.9058 5.71834 11.6833C6.35043 11.4609 7.0365 11.443 7.67931 11.6323V7.98371C6.31323 7.79951 4.92346 8.03645 3.69559 8.66289C2.46772 9.28933 1.46017 10.2755 0.807507 11.4896C0.154839 12.7037 -0.111893 14.0881 0.0429303 15.4578C0.197753 16.8275 0.766762 18.1174 1.67397 19.1552C2.58119 20.193 3.78342 20.9294 5.12015 21.266C6.45687 21.6025 7.86446 21.5233 9.15496 21.0388C10.4455 20.5543 11.5574 19.6876 12.3424 18.5545C13.1274 17.4214 13.548 16.0758 13.5481 14.6974L13.6576 7.26833C15.1997 8.40042 17.0636 9.00955 18.9766 9.0067L18.9763 5.25358Z" fill="#FF0000"/>
</svg>
