<svg width="22" height="14" viewBox="0 0 22 14" fill="none" xmlns="http://www.w3.org/2000/svg">
<path d="M11.9825 14.0001C4.46596 14.0001 0.178638 8.74487 0 0.00012207H3.76515C3.88882 6.41854 6.66459 9.13726 8.86321 9.69782V0.00012207H12.4085V5.53566C14.5796 5.29742 16.8607 2.7749 17.6302 0.00012207H21.1755C20.8855 1.4392 20.3075 2.80178 19.4776 4.00262C18.6477 5.20347 17.5837 6.21676 16.3523 6.9791C17.7269 7.67568 18.941 8.66162 19.9145 9.87187C20.888 11.0821 21.5988 12.4892 22 14.0001H18.0974C17.7373 12.6877 17.0054 11.5129 15.9934 10.6229C14.9814 9.73297 13.7343 9.1674 12.4085 8.99712V14.0001H11.9825Z" fill="#FF0000"/>
</svg>
