<svg width="51" height="45" viewBox="0 0 51 45" fill="none" xmlns="http://www.w3.org/2000/svg">
<path fill-rule="evenodd" clip-rule="evenodd" d="M17.368 30.064H33.972L34.068 45H47.3504V18.9401C47.3504 18.5898 48.0389 18.327 48.548 17.7931C49.6997 16.5961 50.6678 14.6983 50.6678 12.8923V1.46399C50.6678 0.775791 49.8917 0 49.2073 0H2.13266C1.4483 0 0.672142 0.775791 0.667969 1.46399V12.8923C0.672142 15.0403 1.84473 17.0674 3.42626 18.3312C3.50555 18.3937 3.70585 18.5397 3.7601 18.5814C3.90198 18.7107 3.98961 18.6982 3.98961 18.9401V45H17.2929L17.368 30.064ZM27.3287 12.0081V3.42015H35.6286V12.6921C35.6286 14.6441 33.7383 16.5961 31.9189 16.5961C30.5001 16.5961 29.2775 16.3875 28.3469 15.1905C27.6876 14.3396 27.3287 13.4679 27.3287 12.0081ZM20.2014 16.5961C18.7367 16.5961 17.9981 16.5001 16.8547 15.3531C16.2371 14.7317 15.7072 13.7932 15.7072 12.592V3.42015H24.0112V11.812C24.0112 13.3886 23.7233 14.2353 23.0348 15.1321C22.5299 15.7994 21.3614 16.5961 20.2014 16.5961ZM43.5405 16.5961C42.6183 16.5961 42.1551 16.6461 41.2996 16.1998C40.077 15.5659 39.0504 14.2103 39.0504 12.592V3.42015H47.3504V11.7161C47.3504 13.2427 47.1 14.1728 46.4156 15.0779C45.8815 15.7911 44.7339 16.5961 43.5405 16.5961ZM3.98961 11.7161V3.42015H12.2895V12.592C12.2895 14.7066 10.3992 16.5961 8.57981 16.5961C7.1026 16.5961 5.91332 16.375 4.96607 15.1321C4.26502 14.2186 3.98961 13.3177 3.98961 11.7161Z" fill="#FF0000"/>
</svg>
