<svg width="50" height="50" viewBox="0 0 50 50" fill="none" xmlns="http://www.w3.org/2000/svg">
<path d="M34.7397 47.1052C34.7397 48.704 33.4473 50 31.8529 50C30.2589 50 28.9665 48.704 28.9665 47.1052C28.9665 45.5067 30.2589 44.2104 31.8529 44.2104C33.4473 44.2104 34.7397 45.5067 34.7397 47.1052Z" fill="#FF0000"/>
<path d="M45.0267 47.1052C45.0267 48.704 43.7344 50 42.14 50C40.5455 50 39.2532 48.704 39.2532 47.1052C39.2532 45.5067 40.5455 44.2104 42.14 44.2104C43.7344 44.2104 45.0267 45.5067 45.0267 47.1052Z" fill="#FF0000"/>
<path d="M49.6454 27C49.3305 26.5789 48.8583 26.3685 48.3857 26.3685L27.6016 26.3681L26.8145 23.21C26.6571 22.4732 25.9747 21.9996 25.2399 21.9996H21.566C21.8809 22.6311 21.9859 23.3679 21.8809 24.0522C21.7758 24.4733 21.6184 24.8944 21.4086 25.2627H23.9804L28.0219 41.4732C28.1793 42.21 28.8617 42.7364 29.5965 42.7364H45.237C45.9718 42.7364 46.6542 42.21 46.8117 41.4732L49.961 28.4206C50.0653 27.947 49.9606 27.421 49.6454 27Z" fill="#FF0000"/>
<path d="M18.9417 21.2105L14.1131 19.7893L10.754 12.9472C10.7017 12.7893 10.4915 12.4207 9.96692 11.8417C9.12708 10.9995 7.92 10.5785 6.71294 10.6313C5.55827 10.6838 4.78282 11.6053 4.04765 12.5C3.78515 12.8157 3.52265 13.3947 3.41795 13.7633L0.062982 26C-0.0944449 26.6843 0.0701168 27 0.272763 27.9473L1.56594 34.5C1.67102 34.7104 1.8087 36.4211 1.75634 36.6315L1.46773 46.6841C1.25795 48.1053 2.04508 49.526 3.35719 49.8946C3.61969 50 3.88219 50 4.14431 50C5.45644 50 6.61111 49.0528 6.87363 47.737L7.79197 36.316C7.89704 35.8424 7.79197 34 7.79197 34L8.04785 28.5C8.04785 28.1095 8.54897 26.5786 8.60169 26.3682L9.75636 21.2629L10.4911 22.6841C10.7536 23.2631 11.2783 23.6842 11.9083 23.8945L17.8392 25.6314C18.049 25.6839 18.2591 25.7367 18.4689 25.7367C19.5185 25.7367 20.5158 24.9999 20.7256 23.842C20.9361 22.6837 20.0964 21.5262 18.9417 21.2105Z" fill="#FF0000"/>
<path d="M15.1103 4.94745C15.1103 7.67959 12.9012 9.89491 10.1766 9.89491C7.45171 9.89491 5.24293 7.67969 5.24293 4.94745C5.24293 2.21494 7.45161 0 10.1766 0C12.9012 0 15.1103 2.21485 15.1103 4.94745Z" fill="#FF0000"/>
</svg>
