<svg width="51" height="50" viewBox="0 0 51 50" fill="none" xmlns="http://www.w3.org/2000/svg">
<path d="M50.3359 30.0479V19.9416L45.0234 19.2642C44.5961 17.8162 44.0232 16.4302 43.3047 15.1384L46.5755 10.8876L39.4297 3.74027L35.2111 7.0223C33.909 6.293 32.5237 5.73045 31.0548 5.30319L30.3777 0H20.2838L19.6066 5.30319C18.1378 5.73053 16.7631 6.29307 15.4711 7.0223L11.2314 3.74027L4.08563 10.8876L7.35643 15.1282C6.63782 16.4306 6.06487 17.8162 5.6271 19.2646L0.335938 19.9416V30.0479L5.62747 30.7354C6.06488 32.194 6.63778 33.5795 7.35681 34.8718L4.086 39.1019L11.2318 46.2597L15.4715 42.9777C16.7631 43.6965 18.1382 44.2696 19.607 44.6968L20.2842 50H30.378L31.0552 44.6863C32.5241 44.2695 33.9094 43.6964 35.2114 42.9777L39.4301 46.2597L46.5758 39.1019L43.305 34.8718C44.0236 33.5799 44.5966 32.1944 45.0238 30.7354L50.3359 30.0479ZM28.888 39.5495C27.7527 39.8307 26.565 39.9768 25.3361 39.9768C24.1382 39.9768 22.9612 39.8311 21.8465 39.5705C15.2529 37.9975 10.3566 32.0689 10.3566 24.9944C10.3566 16.7323 17.065 10.022 25.3351 10.022C33.5955 10.022 40.3043 16.7318 40.3043 24.9944C40.3043 32.0374 35.4398 37.9559 28.888 39.5495Z" fill="#FF0000"/>
<path fill-rule="evenodd" clip-rule="evenodd" d="M16.3325 32.1183C16.3325 32.2942 16.3621 32.4291 16.4213 32.5698C16.4834 32.7135 16.5574 32.7692 16.664 32.8718C16.8564 33.0566 17.0873 33.1299 17.4544 33.1299H32.6399C33.3089 33.1299 33.7618 32.7487 33.7618 32.1183C33.7618 31.784 33.4658 31.2621 33.3444 30.9835L32.1396 28.2976C32.0508 28.1071 31.9916 27.9458 31.8998 27.7581C31.7045 27.3564 31.6394 27.0603 31.2427 26.8579C31.1598 26.8169 31.0828 26.7846 30.994 26.7348L28.1434 25.2746C27.7823 25.2746 27.1311 26.2862 24.8754 26.2862C23.2592 26.2862 22.1551 25.2746 21.9834 25.2746C21.8295 25.2746 19.1683 26.6996 18.8723 26.8462C18.449 27.0573 18.4016 27.333 18.2033 27.7347L17.478 29.3444C17.3952 29.538 17.33 29.6963 17.2383 29.884C17.1495 30.0716 17.0903 30.2329 17.0015 30.4235C16.8268 30.79 16.3325 31.8016 16.3325 32.1183Z" fill="#FF0000"/>
<path fill-rule="evenodd" clip-rule="evenodd" d="M21.1305 20.2839C21.1305 21.6767 21.3851 22.5798 22.205 23.6706C22.7349 24.3743 23.8775 25.0721 24.8425 25.0721C25.621 25.0721 26.1213 25.0047 26.7903 24.6059C27.8915 23.9491 28.5634 22.8965 28.8446 21.6503C29.1791 20.1754 28.8861 17.8209 27.628 16.8151C27.4445 16.6656 27.4474 16.6363 27.1692 16.4955C26.4706 16.1466 25.9585 16 25.0112 16C24.3541 16 23.768 16.1231 23.2855 16.3137C22.9983 16.4252 22.7171 16.5952 22.501 16.7829C22.3146 16.9442 22.3086 16.9031 22.1044 17.167C21.4176 18.0408 21.1305 19.1228 21.1305 20.2839Z" fill="#FF0000"/>
</svg>
