<svg width="15" height="16" viewBox="0 0 15 16" fill="none" xmlns="http://www.w3.org/2000/svg">
<path d="M13.6652 7.56498C13.7805 7.68046 13.8452 7.83702 13.8451 8.00022C13.845 8.16341 13.7801 8.31989 13.6646 8.43522L7.35316 14.7385C6.95315 15.1385 6.47828 15.4558 5.95566 15.6722C5.43304 15.8886 4.87291 16 4.30725 16C3.16483 15.9999 2.06924 15.5461 1.26147 14.7382C0.453704 13.9303 -5.97862e-05 12.8347 5.90832e-09 11.6923C5.9798e-05 10.5498 0.453939 9.45422 1.26179 8.64645L8.89743 0.904428C9.18285 0.618149 9.52189 0.390924 9.89516 0.235737C10.2684 0.0805509 10.6686 0.000446369 11.0729 1.86019e-06C11.4771 -0.000442649 11.8775 0.0787815 12.2511 0.233147C12.6247 0.387512 12.9643 0.613991 13.2503 0.899641C13.5364 1.18529 13.7633 1.52451 13.9182 1.89792C14.0731 2.27132 14.1529 2.67159 14.153 3.07584C14.1531 3.48009 14.0736 3.88041 13.9189 4.2539C13.7642 4.6274 13.5375 4.96676 13.2516 5.25258L5.61595 12.9947C5.44477 13.1665 5.24141 13.3029 5.0175 13.396C4.79359 13.4892 4.55351 13.5374 4.31098 13.5377C4.06846 13.5381 3.82824 13.4907 3.60405 13.3981C3.37986 13.3056 3.1761 13.1698 3.00441 12.9985C2.83272 12.8272 2.69647 12.6238 2.60344 12.3998C2.51041 12.1758 2.46242 11.9357 2.46222 11.6932C2.46202 11.4507 2.50962 11.2105 2.60228 10.9864C2.69494 10.7622 2.83086 10.5586 3.00227 10.387L9.40665 3.87613C9.5211 3.75979 9.67708 3.69367 9.84028 3.69233C10.0035 3.691 10.1605 3.75454 10.2769 3.869C10.3932 3.98345 10.4593 4.13944 10.4607 4.30264C10.462 4.46584 10.3985 4.62288 10.284 4.73923L3.87606 11.2537C3.81822 11.3105 3.77218 11.3782 3.74057 11.4528C3.70897 11.5274 3.69242 11.6076 3.69188 11.6887C3.69135 11.7697 3.70684 11.8501 3.73746 11.9252C3.76807 12.0002 3.81322 12.0685 3.8703 12.126C3.92739 12.1836 3.99528 12.2293 4.07008 12.2606C4.14488 12.2918 4.22512 12.308 4.30619 12.3081C4.38725 12.3082 4.46754 12.2923 4.54245 12.2614C4.61735 12.2304 4.6854 12.1849 4.74268 12.1275L12.3784 4.38535C12.5503 4.2142 12.6869 4.01083 12.7802 3.78688C12.8735 3.56292 12.9217 3.32278 12.9221 3.08017C12.9225 2.83756 12.8751 2.59725 12.7826 2.37297C12.6901 2.1487 12.5543 1.94486 12.3829 1.77311C12.2116 1.60137 12.008 1.46508 11.784 1.37205C11.5599 1.27901 11.3197 1.23106 11.0771 1.23092C10.8345 1.23079 10.5942 1.27847 10.3701 1.37126C10.1459 1.46404 9.94224 1.6001 9.7707 1.77165L2.13502 9.51367C1.84874 9.7991 1.62151 10.1381 1.46632 10.5114C1.31114 10.8847 1.23103 11.2849 1.23059 11.6892C1.23014 12.0934 1.30937 12.4938 1.46373 12.8675C1.6181 13.2411 1.84458 13.5806 2.13023 13.8667C2.41588 14.1527 2.75511 14.3797 3.12851 14.5346C3.50192 14.6895 3.90219 14.7693 4.30644 14.7694C4.7107 14.7695 5.11102 14.69 5.48452 14.5353C5.85802 14.3806 6.19737 14.1539 6.4832 13.868L12.7949 7.56446C12.8521 7.50734 12.92 7.46204 12.9946 7.43115C13.0693 7.40027 13.1493 7.38439 13.2302 7.38444C13.311 7.38449 13.391 7.40046 13.4656 7.43144C13.5403 7.46242 13.6081 7.50779 13.6652 7.56498Z" fill="#999999"/>
</svg>
