<svg width="16" height="16" viewBox="0 0 16 16" fill="none" xmlns="http://www.w3.org/2000/svg">
<path d="M15.5437 11.3062L12.0436 9.80616C11.8941 9.74243 11.728 9.72901 11.5701 9.7679C11.4123 9.80679 11.2714 9.89589 11.1686 10.0218L9.61861 11.9156C7.18598 10.7686 5.22828 8.8109 4.08132 6.37827L5.9751 4.82823C6.10126 4.72563 6.19054 4.58472 6.22945 4.42683C6.26836 4.26895 6.25477 4.10268 6.19073 3.95321L4.69071 0.453134C4.62043 0.292008 4.49613 0.160454 4.33925 0.0811563C4.18236 0.00185863 4.00273 -0.0202124 3.83132 0.018749L0.58126 0.768766C0.415998 0.806929 0.26855 0.899981 0.162983 1.03274C0.0574151 1.16549 -3.80697e-05 1.33011 1.8926e-08 1.49972C1.8926e-08 9.51553 6.49699 16 14.5003 16C14.6699 16.0002 14.8346 15.9427 14.9674 15.8372C15.1002 15.7316 15.1933 15.5841 15.2315 15.4188L15.9815 12.1687C16.0202 11.9965 15.9977 11.8161 15.9178 11.6587C15.8379 11.5013 15.7056 11.3766 15.5437 11.3062Z" fill="#999999"/>
</svg>
