<svg width="187" height="110" viewBox="0 0 187 110" fill="none" xmlns="http://www.w3.org/2000/svg">
<path d="M101.794 30.1658C101.794 40.2149 107.225 48.5934 116.293 52.5524C104.761 56.9682 98.4984 66.5603 98.4984 78.2836C98.4984 96.9771 115.39 108.742 138.5 110V89.5311C128.08 88.6023 122.226 84.0178 122.226 76.3135C122.226 68.1896 127.967 64.0359 138.5 63.2194V43.9903C128.829 43.0801 125.353 38.8215 125.353 32.9C125.353 26.5065 129.514 21.6299 138.5 20.5063V0C117.484 1.4008 101.794 13.4312 101.794 30.1658ZM169.179 52.5524C178.074 48.5934 183.677 40.2149 183.677 30.1658C183.677 13.4649 168.055 1.45323 146.972 0.00749089V20.5325C155.878 21.6936 160.118 26.544 160.118 32.9C160.118 38.7878 156.556 43.0314 146.972 43.9753V63.2269C157.553 64.0696 163.246 68.2158 163.246 76.3135C163.246 83.9916 157.44 88.5686 146.972 89.5236V110C170.141 108.704 186.973 96.9509 186.973 78.2911C186.973 66.5603 180.711 56.9682 169.179 52.5524Z" fill="#FF0000"/>
<path d="M60.8708 35.8781C60.8708 43.6334 55.9353 47.8906 32.4092 67.053L22.6427 74.9306L22.5165 75.0311L15.7393 80.4991H47.9691L51.8161 77.3934C72.5442 60.6662 84.7164 51.2408 84.7164 34.8173C84.7164 17.7253 71.2033 3.07841 48.3536 1.50685V22.4873C56.9705 24.0924 60.8708 29.8226 60.8708 35.8781ZM0.816344 109.631H87.1969V88.9544H5.22933L0.816344 92.5096V109.631ZM39.9042 22.2408V1.52065C17.4903 3.12574 1.54593 17.1949 0 38.9227H23.6937C25.3185 29.2192 30.4118 23.3352 39.9042 22.2408Z" fill="#FF0000"/>
</svg>
