<svg width="55" height="38" viewBox="0 0 55 38" fill="none" xmlns="http://www.w3.org/2000/svg">
<path d="M54.8406 11.0783L44.7225 0.189769C44.4865 -0.0497195 44.1133 -0.0692971 43.8581 0.169738L39.6143 4.23782C39.3783 4.47731 39.359 4.85612 39.5945 5.11519L49.7126 16.0037C49.9486 16.2432 50.3218 16.2628 50.577 16.0237L54.8208 11.9557C55.0563 11.7166 55.0563 11.3378 54.8406 11.0783ZM51.1467 12.3149C50.6161 12.8135 49.7715 12.7935 49.2803 12.2553C48.7891 11.7167 48.8089 10.8593 49.3391 10.3608C49.8697 9.86223 50.7143 9.88227 51.2055 10.4204C51.6971 10.9591 51.6774 11.8164 51.1467 12.3149ZM10.3993 1.686C10.1441 1.48658 9.75113 1.52664 9.55466 1.78571L0.124196 14.11C-0.0722717 14.369 -0.0327985 14.7679 0.22243 14.9673L4.85919 18.6165C5.11442 18.8159 5.50735 18.7758 5.70382 18.5168L15.1343 6.19252C15.3307 5.93345 15.2913 5.53461 15.036 5.33519L10.3993 1.686ZM5.959 14.5287C5.50731 15.107 4.68196 15.2267 4.09256 14.7682C3.52289 14.3097 3.40492 13.472 3.85662 12.8737C4.30831 12.2955 5.13366 12.1758 5.72306 12.6342C6.3129 13.0927 6.41114 13.9305 5.959 14.5287Z" fill="#FF0000"/>
<path d="M41.0687 26.4736L30.6954 18.2572L28.8092 20.0119C26.1372 22.4451 23.7406 23.103 21.9131 23.103C21.4417 23.103 21.029 23.0629 20.6361 22.9832C18.1407 22.5443 16.4515 20.9294 15.6848 19.5335C14.742 18.0177 15.0169 16.1232 16.3527 14.8872L23.7988 8.00712C22.9147 7.32917 21.8928 6.98997 20.8517 6.98997C19.398 6.98997 17.9634 7.64788 17.0206 8.90453L9.7513 18.4367C9.1619 19.2143 8.88694 20.1913 9.00491 21.169L9.47634 25.0376C9.59431 26.0147 10.0855 26.892 10.8516 27.4903L23.6018 37.5811C23.9553 37.8602 24.3877 38 24.8004 38C25.331 38 25.8612 37.7805 26.2344 37.3617L26.8041 36.7233C27.5504 35.8856 27.472 34.5893 26.6273 33.8518L28.7687 35.6666C29.1419 35.9858 29.5743 36.1251 30.026 36.1251C30.5172 36.1251 31.0083 35.9457 31.3815 35.5669L32.0494 34.9286C32.894 34.1109 32.8353 32.735 31.9512 31.9774L33.5427 33.3137C33.9159 33.6129 34.3483 33.7722 34.8 33.7722C35.2911 33.7722 35.7823 33.5728 36.1752 33.214L36.7646 32.6358C37.59 31.8181 37.5308 30.4823 36.6861 29.7241L37.7272 30.6416C38.1004 30.9607 38.5526 31.1201 39.0043 31.1201C39.5542 31.1201 40.1243 30.8806 40.4975 30.4021L41.4014 29.3052C42.0702 28.4479 41.9331 27.1517 41.0687 26.4736ZM46.1374 16.6223L37.3748 7.54865C37.0016 7.14981 36.4907 6.91032 35.96 6.83064L31.4808 6.23238C30.7734 6.13267 30.066 6.37216 29.5358 6.85068L28.475 7.82775L18.3964 17.141C18.2784 17.2407 18.0232 17.5398 18.2587 17.8986L18.3175 17.9983C18.7104 18.7363 19.6927 19.6733 21.1465 19.9329C22.895 20.232 24.8207 19.4744 26.7656 17.6992L30.538 14.1892L42.4047 23.5821L46.098 20.0722C47.0611 19.1547 47.0609 17.5994 46.1374 16.6223Z" fill="#FF0000"/>
</svg>
