<svg width="41" height="40" viewBox="0 0 41 40" fill="none" xmlns="http://www.w3.org/2000/svg">
<path fill-rule="evenodd" clip-rule="evenodd" d="M2.84364 1.87493C2.84364 4.00633 4.53586 6.18061 6.66032 6.88593C7.53057 7.17485 8.15825 7.18721 9.32786 7.18721C9.31125 7.19803 9.28382 7.1903 9.27532 7.21309C9.26682 7.23627 9.23399 7.23318 9.22163 7.23781L8.37958 7.48927C6.63443 8.1212 5.03801 9.34295 4.08857 10.9328C3.91629 11.2214 3.78728 11.4894 3.62466 11.7969H18.5464C18.3154 10.8046 16.7924 9.20506 15.7974 8.53025C14.1859 7.43751 12.9 7.03116 10.6558 7.03116C10.2634 7.03116 10.3059 7.10146 9.95283 7.10957C9.95283 5.07512 9.98837 3.25775 8.44949 1.73742C7.92108 1.21557 7.64606 0.954072 6.93224 0.598709C6.10332 0.186179 5.5162 0.0432616 4.87037 0H2.84364V1.87493Z" fill="#FF0000"/>
<path fill-rule="evenodd" clip-rule="evenodd" d="M28.7032 3.5938C27.542 3.5938 26.8066 3.21217 25.0561 4.08744C23.8606 4.68538 22.8864 5.55911 22.2688 6.76889C21.0965 9.06523 21.9636 10.8641 21.9841 11.7969H37.6089C37.9148 11.7969 37.965 11.1816 38.0214 10.8811C38.578 7.92922 37.4231 5.41812 34.8227 4.11448C33.723 3.56328 33.2008 3.51577 31.9841 3.51577C31.5507 3.51577 31.521 3.5938 31.1246 3.5938V0H28.7032V3.5938Z" fill="#FF0000"/>
<path fill-rule="evenodd" clip-rule="evenodd" d="M9.95304 30.625H31.0465V32.8904H9.95304V30.625ZM9.95304 21.172H31.0465V23.5154H9.95304V21.172ZM0.5 40H40.4996V32.8904H38.1557V30.625H40.4996V23.5154H38.1557V21.172H40.4996V14.0624H0.5V21.172H2.84385V23.5154H0.5V30.625H2.84385V32.8904H0.5V40Z" fill="#FF0000"/>
</svg>
