<svg width="40" height="40" viewBox="0 0 40 40" fill="none" xmlns="http://www.w3.org/2000/svg">
<path d="M32.0952 0.211543C31.814 -0.0697041 31.3577 -0.0700225 31.0764 0.211543L28.9591 2.32892C28.8947 2.37451 28.8379 2.43191 28.7917 2.49601L28.1868 3.10092C26.425 4.86303 26.0369 7.4848 26.9747 9.69401L15.2721 21.3966L18.6293 24.702L30.3065 13.0248C32.5156 13.9629 35.1375 13.5745 36.8993 11.813L37.5083 11.204C37.5714 11.1596 37.6266 11.1038 37.6716 11.041L39.7889 8.92365C40.0702 8.64208 40.0705 8.18609 39.7889 7.90455L32.0952 0.211543ZM29.3848 3.94082L36.0592 10.6152L35.88 10.7944C34.1125 12.5619 31.1938 12.5237 29.3347 10.6643C27.476 8.80556 27.4378 5.88697 29.2053 4.11906L29.3848 3.94082ZM17.2366 26.0942L13.8635 22.8047L9.7713 26.8969C9.697 26.9696 9.63992 27.0522 9.59815 27.1376L9.45083 27.5952L8.49165 30.8669C8.36091 31.3104 8.68936 31.6379 9.13228 31.5075L12.7362 30.4508C12.7693 30.4364 12.8012 30.4278 12.8337 30.4138C12.9313 30.3711 13.0235 30.3067 13.1022 30.2285L17.2366 26.0942ZM7.86519 20.0236C7.72744 19.8849 7.53866 19.8096 7.34383 19.8125C7.15665 19.8125 6.97872 19.8896 6.84638 20.0232L2.52821 24.3377L2.05053 24.8153C0.787443 26.0781 0.167609 28.5391 0.026631 31.1415C-0.114315 33.7435 0.275358 36.4964 1.89143 38.1125C3.50751 39.7285 6.25622 40.1143 8.85824 39.9731C11.4606 39.8315 13.9194 39.2104 15.1825 37.9473L15.6602 37.4696L19.9784 33.1552C20.2596 32.8737 20.2596 32.4177 19.9784 32.1365L16.4899 28.648L13.9048 31.2331C13.7893 31.3489 13.6385 31.42 13.4768 31.4382L7.86301 32.9321C7.40383 32.9834 7.01575 32.5954 7.0671 32.1362L8.56105 26.5221C8.57891 26.3604 8.65098 26.2096 8.76608 26.0942C9.62771 25.2329 10.4893 24.3707 11.3512 23.5091L7.86519 20.0236Z" fill="#FF0000"/>
</svg>
