<svg width="41" height="38" viewBox="0 0 41 38" fill="none" xmlns="http://www.w3.org/2000/svg">
<path d="M20.0185 32.9828C20.401 35.3397 18.8001 37.561 16.4431 37.9436C14.0858 38.3258 11.8649 36.7252 11.4823 34.3679C11.0998 32.0109 12.7007 29.7896 15.0577 29.4071C17.415 29.0248 19.636 30.6254 20.0185 32.9828Z" fill="#FF0000"/>
<path d="M34.6522 32.9828C35.0347 35.3397 33.4338 37.561 31.0768 37.9436C28.7195 38.3258 26.4985 36.7252 26.116 34.3679C25.7334 32.0109 27.3344 29.7896 29.6914 29.4071C32.0487 29.0248 34.2696 30.6254 34.6522 32.9828Z" fill="#FF0000"/>
<path d="M39.8687 9.08745H30.2745V16.8777H38.0065L40.4643 9.92941C40.5322 9.73596 40.5021 9.52206 40.384 9.35465C40.2656 9.18755 40.0733 9.08807 39.8687 9.08745Z" fill="#FF0000"/>
<path d="M30.2737 26.906H34.0165C34.284 26.9056 34.5224 26.7373 34.612 26.4853L37.2164 19.1161H30.2737L30.2737 26.906Z" fill="#FF0000"/>
<path d="M12.4949 26.906H19.9761V19.116H13.8292L13.4845 16.8775H19.9764L19.9761 9.0869H12.2845L11.1204 1.51149C11.076 1.21543 10.9269 0.945414 10.7 0.749793C10.4734 0.554489 10.1841 0.446603 9.8847 0.446294H1.754C1.42167 0.445364 1.10267 0.577115 0.867362 0.811799C0.632377 1.04647 0.5 1.36517 0.5 1.69749C0.5 2.0298 0.632377 2.34851 0.867362 2.58317C1.10266 2.81785 1.42166 2.94961 1.754 2.94899H8.80553L12.4949 26.906Z" fill="#FF0000"/>
<path d="M22.2152 19.1165H28.0357V26.9068H22.2152V19.1165Z" fill="#FF0000"/>
<path d="M22.2152 9.08745H28.0357V16.8777H22.2152V9.08745Z" fill="#FF0000"/>
</svg>
