<svg width="41" height="40" viewBox="0 0 41 40" fill="none" xmlns="http://www.w3.org/2000/svg">
<path d="M17.0117 0C15.8399 0 14.7165 0.465234 13.888 1.2937C13.0596 2.12209 12.594 3.24583 12.594 4.41741C12.594 5.58898 13.0592 6.71231 13.8877 7.54079C14.7161 8.36919 15.8398 8.83481 17.0114 8.83481C18.183 8.83481 19.3066 8.36926 20.1351 7.54079C20.9633 6.7124 21.4288 5.58866 21.4288 4.41708C21.4285 3.24551 20.9632 2.12217 20.1348 1.2937C19.3066 0.465544 18.183 0 17.0117 0Z" fill="#FF0000"/>
<path d="M37.6416 25.7139H31.9274V39.9994H40.4987L37.6416 25.7139Z" fill="#FF0000"/>
<path d="M1.28785 23.1866L2.23616 23.6703C2.57704 23.8438 2.97276 23.8751 3.33688 23.7574C3.70071 23.6394 4.00301 23.3818 4.17744 23.0409L6.53137 18.5997L6.53105 18.6C6.78136 18.122 7.16018 17.7234 7.62508 17.4498L8.90759 16.6956L7.0339 29.8261C6.98511 30.2499 6.8429 30.6577 6.61745 31.0199L3.38533 36.2179C3.02118 36.8034 2.91531 37.5135 3.09293 38.1796C3.27022 38.8457 3.71537 39.4089 4.32222 39.7356L4.34071 39.7455C4.74791 39.9056 5.19817 39.918 5.61367 39.7806C6.02884 39.6432 6.3828 39.3642 6.61366 38.9927L10.7185 33.2243C11.1075 32.5986 11.3731 31.9048 11.501 31.1793L12.0182 28.9363C12.0696 28.7077 12.2475 28.5288 12.4758 28.4762C12.7041 28.4236 12.9423 28.5065 13.0887 28.6895L16.1072 31.7102L17.389 38.8128C17.449 39.1457 17.624 39.447 17.8839 39.6642C18.1435 39.8811 18.4713 40 18.8096 40H29.0707V25.7145H23.3565L21.0603 37.196L20.2156 30.7745C20.0985 29.8877 19.7774 29.0402 19.2771 28.2988L16.8119 24.6445C16.3834 24.0093 16.2249 23.23 16.3713 22.4777L16.6391 21.1027C16.6732 20.9277 16.7909 20.7803 16.9542 20.708C17.1171 20.6356 17.3055 20.6477 17.458 20.7402L18.059 21.104C18.7807 21.5412 19.5607 21.8738 20.376 22.0916L25.7506 23.5281H25.7503C26.1432 23.6598 26.5736 23.6164 26.9323 23.4089C27.2911 23.2013 27.543 22.8499 27.6246 22.4437L27.7958 21.5897C27.8634 21.2533 27.8089 20.9035 27.6421 20.6038C27.475 20.3037 27.2066 20.0732 26.8851 19.9533L21.3202 17.879V17.8793C20.691 17.6465 20.1643 17.1998 19.832 16.6172C18.8735 14.82 17.8183 13.0758 16.671 11.3928C15.8473 10.5631 14.7281 10.0934 13.5591 10.0873C12.2406 10.0873 10.9421 10.4107 9.77762 11.0283L5.50821 13.2939C5.00343 13.5618 4.5892 13.9734 4.31851 14.4766L0.672197 21.2172C0.488208 21.5591 0.449939 21.9608 0.565692 22.3313C0.681764 22.7022 0.941964 23.0105 1.28794 23.1868L1.28785 23.1866Z" fill="#FF0000"/>
</svg>
