<svg width="38" height="40" viewBox="0 0 38 40" fill="none" xmlns="http://www.w3.org/2000/svg">
<path fill-rule="evenodd" clip-rule="evenodd" d="M25.0724 5.56014L19.0426 0.803875L26.3324 3.21113C26.6086 3.30227 26.8448 3.44301 27.0321 3.62469C27.2215 3.80759 27.3691 4.04041 27.4667 4.31167L37.6015 32.2652C37.7711 32.7327 37.7351 33.2284 37.5392 33.6472C37.3429 34.0666 36.987 34.412 36.5198 34.5822L26.1113 38.3712C26.1144 38.3117 26.1165 38.2524 26.1165 38.1926V7.7082C26.1165 7.27915 26.0248 6.87613 25.8484 6.51124C25.6723 6.14917 25.4109 5.82738 25.0724 5.56014ZM14.894 4.08723C14.2981 3.49201 13.4735 3.12185 12.5648 3.12185C11.6562 3.12185 10.8322 3.49198 10.2342 4.08938C9.63894 4.68587 9.26878 5.50991 9.26878 6.41854C9.26878 7.32718 9.63891 8.1512 10.2363 8.74922C10.8322 9.34507 11.6562 9.7146 12.5648 9.7146C13.4735 9.7146 14.2981 9.3451 14.8961 8.74708C15.492 8.15121 15.8615 7.32718 15.8615 6.41854C15.8615 5.50927 15.492 4.68556 14.894 4.08723ZM0.679239 6.28434L8.51173 0.00158731L8.51254 0.000930044L16.5307 0L24.4988 6.28553C24.7235 6.46317 24.8972 6.67615 25.0128 6.91393C25.1269 7.15017 25.1861 7.41771 25.1861 7.70757V38.192C25.1861 38.6893 24.9824 39.1416 24.6547 39.4693C24.3277 39.7963 23.8744 40 23.3774 40H1.81113C1.31384 40 0.860914 39.7963 0.533848 39.4693C0.206162 39.1416 0.00248012 38.6889 0 38.192L0.00310015 7.69646C0.00310015 7.40845 0.0607573 7.14215 0.172676 6.90964C0.284897 6.67496 0.455718 6.46322 0.679239 6.28434ZM7.69749 31.2623H5.35432V28.8078H7.69749V17.1961H10.5429V34.0001H7.69749V31.2623ZM11.7147 19.8393H12.0494C12.2151 19.8393 12.431 19.8223 12.6796 19.8028C14.189 19.684 16.9034 19.4704 16.9034 22.3884C16.9034 25.3875 14.6874 25.2988 13.1313 25.2366H13.1312C12.9241 25.2283 12.7286 25.2205 12.5516 25.2205H11.7147V27.5805H13.0536C14.2254 27.5805 15.5643 27.5805 16.5686 27.2029C20.7531 25.6925 20.7531 19.1787 16.7359 17.6681C15.397 17.1961 14.3927 17.1961 13.0536 17.1961H11.7147V19.8393ZM11.8817 28.8074H15.8531V31.3205H11.8817V28.8074Z" fill="#FF0000"/>
</svg>
