<svg width="196" height="60" viewBox="0 0 196 60" fill="none" xmlns="http://www.w3.org/2000/svg">
<path d="M173.633 0V11.359C179.114 12.0639 183.029 15.7911 183.029 21.4655C183.029 25.1927 180.048 29.9544 178.856 31.9929L162.005 59.1228H175.534C186.645 42.3124 194.718 30.6998 195.088 21.3793C195.59 8.85397 185.935 0.796147 173.633 0ZM168.303 40.5832L173.775 31.3794C173.075 31.4757 172.355 31.5213 171.609 31.5213C165.134 31.5213 160.184 27.8652 160.184 21.5467C160.184 16.1156 163.775 12.4087 169.008 11.4757V0.040568C156.746 1.06491 147.233 9.34078 147.233 21.5416C147.233 34.1785 157.395 40.5832 167.918 40.5832C168.055 40.5832 168.176 40.5832 168.303 40.5832Z" fill="#FF0000"/>
<path d="M53.805 29.9971C53.805 47.5915 62.9701 58.9758 78.5514 59.9941V48.6334C70.6636 47.6562 66.7492 41.4696 66.7492 29.9912C66.7492 18.5127 70.6636 12.3261 78.5514 11.3549V0C62.9701 1.01835 53.805 12.4026 53.805 29.9971ZM83.1722 0V11.3607C91.0482 12.332 94.8861 18.5245 94.8861 29.9971C94.8861 41.4755 91.0482 47.668 83.1722 48.6393V60C98.7594 58.9758 107.924 47.515 107.924 30.0029C107.924 12.4909 98.7594 1.02423 83.1722 0Z" fill="#FF0000"/>
<path d="M135.221 0.823119L114.098 8.38267V20.0728L141.06 8.83417V0.823119H135.221ZM128.204 58.981H141.06V13.8434L128.204 19.1942V58.981Z" fill="#FF0000"/>
<path d="M33.2509 18.7754C33.2509 23.0117 30.5548 25.3372 17.7036 35.8047L12.3686 40.1079L12.2997 40.1628L8.59762 43.1497H26.2032L28.3047 41.4532C39.6275 32.3159 46.2766 27.1673 46.2766 18.1959C46.2766 8.85936 38.895 0.858469 26.4133 0V11.4606C31.1203 12.3374 33.2509 15.4675 33.2509 18.7754ZM0.44593 59.0631H47.6316V47.7684H2.85654L0.44593 49.7104V59.0631ZM21.7978 11.326V0.00753988C9.5541 0.88432 0.844467 8.56961 0 20.4385H12.9427C13.8303 15.1379 16.6125 11.9238 21.7978 11.326Z" fill="#FF0000"/>
</svg>
