<svg width="41" height="36" viewBox="0 0 41 36" fill="none" xmlns="http://www.w3.org/2000/svg">
<path fill-rule="evenodd" clip-rule="evenodd" d="M7.07571 15.0738V23.2111C7.07571 23.6508 9.61585 24.266 10.2672 24.4828L20.6178 27.7927C20.9819 27.8487 21.8379 27.4883 22.2817 27.3397L30.9726 24.5802C31.5441 24.3889 32.0498 24.1971 32.6511 24.027C33.1836 23.8762 34.001 23.5393 34.4546 23.5016V14.88C33.7219 14.5288 28.9625 13.8068 27.9471 13.7202C21.9304 13.2056 19.6415 13.0204 13.4916 13.7256C11.4834 13.956 9.63581 14.3233 7.69189 14.7197C7.33073 14.7934 7.07571 14.7156 7.07571 15.0738Z" fill="white"/>
<path fill-rule="evenodd" clip-rule="evenodd" d="M0.667969 9.5518C0.893217 9.88718 5.49196 12.8791 6.20002 13.3406C6.66255 13.6421 7.49575 13.2243 8.62928 13.0393C14.1727 12.1353 15.6123 11.877 21.348 11.877C25.9667 11.877 28.7869 12.3774 32.8886 13.0523C33.2957 13.1193 34.715 13.4869 34.9238 13.462C35.1097 13.4398 36.1837 12.6644 36.4356 12.4969C36.8138 12.2453 37.6828 11.5865 38.0472 11.4892V29.7016C40.094 29.7016 39.6977 30.1037 39.6977 27.5702V10.2302C39.9917 10.0749 40.4862 9.80057 40.6687 9.5518L39.4386 9.03561C39.0039 8.83362 38.6038 8.66957 38.1764 8.4543C37.7757 8.25295 37.36 8.07814 36.9776 7.90681C36.5512 7.71557 36.1004 7.49778 35.7034 7.33752C35.2415 7.1507 34.9817 6.99961 34.4961 6.79857L30.6821 5.08214C30.2835 4.92093 29.9316 4.73822 29.4757 4.54224L23.9373 2.02766C20.5937 0.473076 21.0369 0.39974 19.4076 1.12519C19.0189 1.29841 18.5361 1.51526 18.1442 1.70524L15.6608 2.81159C15.2385 2.98576 14.8662 3.17005 14.4563 3.3537C14.0511 3.53546 13.5917 3.73682 13.1935 3.93438C11.235 4.90607 7.85849 6.2495 5.68426 7.29137C4.31313 7.94854 1.82209 8.94267 0.667969 9.5518Z" fill="white"/>
<path fill-rule="evenodd" clip-rule="evenodd" d="M38.1447 35.3186H39.3099C39.5332 35.3186 39.601 35.2513 39.601 35.0281V30.475H38.1447V35.3186Z" fill="white"/>
</svg>
