<svg width="40" height="26" viewBox="0 0 40 26" fill="none" xmlns="http://www.w3.org/2000/svg">
<path d="M14.7189 22.8433V24.3152C14.6549 24.5072 14.2069 24.6992 13.375 24.9551C12.1591 25.2751 10.1112 25.5311 7.35943 25.5311C4.60764 25.5311 2.6238 25.2751 1.3439 24.9551C0.51196 24.7631 0.063995 24.5072 0 24.3152V22.7793C0.25598 22.9713 0.703945 23.0993 1.3439 23.2913C1.53588 23.3553 1.72787 23.3553 1.91985 23.4193C3.39174 23.7392 5.31159 23.8672 7.35943 23.8672H8.44735C10.0472 23.8032 11.5831 23.6752 12.799 23.4193C12.991 23.3553 13.183 23.3553 13.375 23.2913C13.9509 23.0993 14.3989 22.9073 14.7189 22.8433Z" fill="white"/>
<path d="M14.7189 19.8359V21.3078C14.6549 21.4998 14.2069 21.6918 13.375 21.9477C12.2231 22.2677 10.3032 22.5237 7.67941 22.5237H7.35943C4.60764 22.5237 2.6238 22.2677 1.3439 21.9477C0.51196 21.7557 0.063995 21.4998 0 21.3078V19.7719C0.25598 19.9639 0.703945 20.0919 1.3439 20.2839C1.53588 20.3479 1.72787 20.3479 1.91985 20.4119C3.39174 20.6678 5.31159 20.8598 7.35943 20.8598C8.12737 20.8598 8.89531 20.8598 9.66325 20.7958C10.8152 20.7318 11.9031 20.6038 12.799 20.4119C12.991 20.3479 13.183 20.3479 13.375 20.2839C13.5669 20.2199 13.6949 20.2199 13.8229 20.1559C14.2069 20.0279 14.4629 19.8999 14.7189 19.8359Z" fill="white"/>
<path d="M14.7189 16.8285V18.3004C14.6549 18.4924 14.2709 18.6844 13.567 18.8763C13.503 18.8763 13.439 18.9403 13.375 18.9403C12.543 19.1323 11.2631 19.3883 9.66325 19.4523C8.95931 19.5163 8.19137 19.5163 7.35943 19.5163C4.60764 19.5163 2.6238 19.2603 1.40789 18.9403C0.575955 18.7484 0.12799 18.4924 0.0639949 18.3004V16.7645C0.319975 16.9565 0.767941 17.0845 1.40789 17.2765C1.59988 17.3405 1.79186 17.3405 1.98385 17.4045C3.39174 17.6604 5.31159 17.8524 7.35943 17.8524C8.12737 17.8524 8.89531 17.8524 9.66325 17.7884C10.6872 17.7244 11.6471 17.5964 12.479 17.4685C12.607 17.4685 12.671 17.4045 12.799 17.4045C12.991 17.3405 13.183 17.3405 13.375 17.2765C13.9509 17.0845 14.3989 16.9565 14.7189 16.8285Z" fill="white"/>
<path d="M14.7189 13.8204V15.2923C14.6549 15.4842 14.2069 15.6762 13.375 15.9322C12.927 16.0602 12.415 16.1242 11.8391 16.2522C11.1991 16.3162 10.4952 16.4442 9.66325 16.4442C8.95931 16.5082 8.19137 16.5082 7.35943 16.5082C4.60764 16.5082 2.6238 16.2522 1.40789 15.9322C0.575955 15.7402 0.12799 15.4842 0.0639949 15.2923V13.8204C0.25598 13.3724 2.81578 12.6045 7.42306 12.6045C11.9027 12.6045 14.5269 13.3724 14.7189 13.8204Z" fill="white"/>
<path d="M38.2047 0.468918H9.15093C8.12701 0.468918 7.29507 1.30085 7.29507 2.32477V11.2602C9.98286 11.2602 11.7747 11.5162 12.8626 11.7082C14.9745 12.1561 15.5504 12.6681 15.8064 13.1801C15.9344 13.372 15.9984 13.564 15.9984 13.82V22.0114H38.1407C39.1646 22.0114 39.9965 21.1794 39.9965 20.1555V2.32441C40.0605 1.30049 39.2286 0.468918 38.2047 0.468918ZM9.66289 7.18838V2.77273H14.0785C12 5.04021 11.5 5.39689 9.66289 7.18838ZM37.7563 19.7075H33.3407C36 17.4601 36 16.9601 37.7563 15.2919V19.7075ZM37.7563 7.18838C36 5.54021 35 4.54021 33.3407 2.77273H37.7563V7.18838Z" fill="white"/>
<path fill-rule="evenodd" clip-rule="evenodd" d="M20 14.3709H21.3944V16.0002H23.0877V6.00017H21.3944V12.9103H20V14.3709Z" fill="#FF0000"/>
<path fill-rule="evenodd" clip-rule="evenodd" d="M23.7852 7.57314H23.9843C24.6816 7.57314 26.873 7.06757 26.873 9.09007C26.873 11.1125 25.1797 10.7755 24.2832 10.7755H23.7852V12.1799H24.5819C25.2793 12.1799 26.0761 12.1799 26.6737 11.9552C29.1639 11.0563 29.1639 7.17998 26.7733 6.28103C25.9765 6.00017 25.3789 6.00017 24.5819 6.00017H23.7852V7.57314Z" fill="#FF0000"/>
<path d="M26.2462 12.9099H23.8828V14.4054H26.2462V12.9099Z" fill="#FF0000"/>
</svg>
