<svg width="16" height="17" viewBox="0 0 16 17" fill="none" xmlns="http://www.w3.org/2000/svg">
<path d="M15.5437 11.6981L12.0436 10.198C11.8941 10.1343 11.728 10.1209 11.5701 10.1598C11.4123 10.1987 11.2714 10.2878 11.1686 10.4137L9.61861 12.3075C7.18598 11.1605 5.22828 9.20278 4.08132 6.77014L5.9751 5.22011C6.10126 5.11751 6.19054 4.97659 6.22945 4.81871C6.26836 4.66082 6.25477 4.49456 6.19073 4.34509L4.69071 0.84501C4.62043 0.683884 4.49613 0.55233 4.33925 0.473033C4.18236 0.393735 4.00273 0.371664 3.83132 0.410625L0.58126 1.16064C0.415998 1.1988 0.26855 1.29186 0.162983 1.42461C0.0574151 1.55737 -3.80697e-05 1.72198 1.8926e-08 1.8916C1.8926e-08 9.9074 6.49699 16.3919 14.5003 16.3919C14.6699 16.392 14.8346 16.3346 14.9674 16.229C15.1002 16.1235 15.1933 15.976 15.2315 15.8107L15.9815 12.5606C16.0202 12.3883 15.9977 12.208 15.9178 12.0506C15.8379 11.8931 15.7056 11.7685 15.5437 11.6981Z" fill="#999999"/>
</svg>
