<svg width="825" height="103" viewBox="0 0 825 103" fill="none" xmlns="http://www.w3.org/2000/svg">
<g clip-path="url(#clip0_3_38)">
<path d="M0 12C0 5.37258 5.37258 0 12 0H825V103H12C5.37257 103 0 97.6274 0 91V12Z" fill="#FF0000"/>
<path d="M123.63 83.44H141.56V43.44H170.32V83.44H188.25V26.89H123.63V83.44ZM470.7 55.44C470.7 74.44 486.12 84.28 503.98 84.28C510.69 84.28 516.98 82.9 522.24 79.51L522.73 79.83V83.47H539.73V26.89H522.73V30.77L522.24 31.01C516.633 27.6543 510.193 25.9457 503.66 26.08C486.05 26.08 470.66 36.08 470.66 54.92V55.41L470.7 55.44ZM505.52 67.88C495.99 67.88 488.52 65.05 488.52 55.28C488.52 45.28 496.44 42.51 505.52 42.51C514.6 42.51 522.73 45.26 522.73 55.28C522.73 65.05 515.13 67.88 505.52 67.88ZM397.66 92.57H414.39V83.44H450.26V92.57H467V69.06H461V26.89L410.11 27.05L409.79 33.35C409 49.43 407 63.16 403.41 69.06H397.67V92.57H397.66ZM444 69.06H418.91C421.41 63.73 423.03 54.06 423.84 41.35H444V69.06ZM336.59 83.44H392.25V69.06H351.94V62H390.47V48.3H351.94V41.3H391.84V26.89H336.59V83.44ZM270.33 83.44H307.25C321.96 83.44 329.25 76.65 329.25 65.44V64.7C329.25 53.63 322.79 47.7 306.46 47.7H285.68V41.27H325.58V26.89H270.32V83.44H270.33ZM307.74 69.06H285.68V61.14H307.74C310.89 61.14 312.59 61.95 312.59 65.14C312.59 67.97 310.9 69.14 307.74 69.14V69.06ZM212.9 55.25C212.9 45.47 220.58 42.48 229.3 42.48C238.02 42.48 245.7 45.48 245.7 55.25C245.7 64.78 238.51 67.85 229.3 67.85C220.09 67.85 212.9 64.78 212.9 55.25ZM229.3 84.25C248.2 84.25 263.47 74.39 263.47 55.41V54.92C263.47 36.1 248.28 26.09 229.3 26.09C210.32 26.09 195.12 36.09 195.12 54.92V55.41C195.12 74.41 210.39 84.25 229.3 84.25Z" fill="white"/>
<path d="M11.7 103.2C10.1648 103.201 8.64447 102.9 7.22567 102.314C5.80687 101.728 4.51744 100.868 3.43099 99.7832C2.34455 98.6986 1.48236 97.4106 0.893674 95.9928C0.304983 94.575 0.00131266 93.0552 0 91.52L0 11.69C-5.61992e-07 10.154 0.302701 8.63307 0.890804 7.21412C1.47891 5.79518 2.34088 4.50604 3.42746 3.42039C4.51403 2.33474 5.80391 1.47387 7.22336 0.886981C8.64281 0.300092 10.164 -0.00130966 11.7 4.27755e-06H91.5C93.036 -0.00130966 94.5572 0.300092 95.9766 0.886981C97.3961 1.47387 98.686 2.33474 99.7725 3.42039C100.859 4.50604 101.721 5.79518 102.309 7.21412C102.897 8.63307 103.2 10.154 103.2 11.69V103.21L11.7 103.2Z" fill="white"/>
<path d="M14.0001 7.44C12.2617 7.44787 10.5967 8.14122 9.36658 9.36948C8.13646 10.5977 7.44057 12.2617 7.43005 14V49.28L49.2701 7.44H14.0001Z" fill="#FF0000"/>
<path d="M95.77 14C95.77 12.2469 95.0736 10.5657 93.834 9.32604C92.5944 8.08642 90.9131 7.39001 89.16 7.39001H60.54L95.77 42.66V14Z" fill="#FF0000"/>
<path d="M7.43005 89.17C7.43266 90.9145 8.12474 92.5871 9.35544 93.8235C10.5861 95.0598 12.2556 95.7595 14.0001 95.77H42.0001L7.43005 61.14V89.14V89.17Z" fill="#FF0000"/>
<path d="M84.95 62.57L54.33 31.95L32.24 54.0499L62.86 84.6699L51.76 95.7699H95.77V51.7599L84.95 62.57Z" fill="#00A400"/>
<path d="M32.2401 54.05L54.3301 31.95L84.9501 62.57L95.7701 51.76V42.67L60.5401 7.44H49.2701L7.43005 49.27V61.14L42.0701 95.77H51.7601L62.8601 84.67L32.2401 54.05Z" fill="white"/>
<path d="M600.4 27.49V48.28H595V32.59H586.07V48.28H580.67V27.49H600.4ZM616.88 27C618.159 26.9747 619.428 27.2302 620.598 27.7485C621.768 28.2669 622.809 29.0354 623.65 30C625.51 32.1666 626.482 34.9566 626.37 37.81C626.485 40.6604 625.521 43.4494 623.67 45.62C622.828 46.5883 621.783 47.3591 620.61 47.8776C619.436 48.3962 618.163 48.6496 616.88 48.62C615.601 48.6562 614.333 48.379 613.186 47.8125C612.039 47.246 611.048 46.4074 610.3 45.37V57.73H604.9V27.49H610.3V30.4C611.021 29.3245 612.003 28.4488 613.153 27.8544C614.303 27.2599 615.585 26.966 616.88 27ZM615.63 43.56C616.333 43.5796 617.032 43.4508 617.681 43.182C618.331 42.9132 618.917 42.5105 619.4 42C620.417 40.8748 620.952 39.3955 620.89 37.88C620.955 36.3659 620.423 34.8867 619.41 33.76C618.931 33.2387 618.346 32.8268 617.693 32.5524C617.041 32.278 616.337 32.1476 615.63 32.17C614.918 32.1485 614.21 32.2792 613.553 32.5534C612.896 32.8276 612.305 33.239 611.82 33.76C611.308 34.3127 610.91 34.9613 610.649 35.6683C610.388 36.3754 610.269 37.127 610.3 37.88C610.269 38.633 610.388 39.3846 610.649 40.0917C610.91 40.7987 611.308 41.4473 611.82 42C612.305 42.521 612.896 42.9324 613.553 43.2066C614.21 43.4808 614.918 43.6115 615.63 43.59V43.56ZM632.8 30.13C634.32 28.6036 636.261 27.5648 638.374 27.1462C640.488 26.7276 642.678 26.9482 644.665 27.7798C646.652 28.6115 648.347 30.0164 649.532 31.8154C650.717 33.6144 651.34 35.7257 651.32 37.88C651.362 39.3201 651.107 40.7535 650.57 42.0905C650.034 43.4274 649.227 44.6392 648.2 45.65C647.186 46.6587 645.979 47.4517 644.65 47.981C643.322 48.5104 641.9 48.7652 640.47 48.73C639.04 48.7545 637.62 48.4903 636.295 47.9532C634.97 47.4162 633.766 46.6172 632.757 45.6042C631.748 44.5912 630.953 43.385 630.421 42.0578C629.889 40.7306 629.63 39.3096 629.66 37.88C629.62 36.4415 629.879 35.0103 630.419 33.6766C630.96 32.3428 631.77 31.1353 632.8 30.13ZM644.31 33.76C643.806 33.2557 643.207 32.8556 642.548 32.5826C641.889 32.3097 641.183 32.1692 640.47 32.1692C639.757 32.1692 639.051 32.3097 638.392 32.5826C637.733 32.8556 637.134 33.2557 636.63 33.76C636.114 34.311 635.714 34.959 635.451 35.6663C635.188 36.3736 635.069 37.1261 635.1 37.88C635.069 38.6339 635.188 39.3864 635.451 40.0937C635.714 40.801 636.114 41.449 636.63 42C637.134 42.5043 637.733 42.9044 638.392 43.1774C639.051 43.4503 639.757 43.5908 640.47 43.5908C641.183 43.5908 641.889 43.4503 642.548 43.1774C643.207 42.9044 643.806 42.5043 644.31 42C644.825 41.449 645.226 40.801 645.489 40.0937C645.751 39.3864 645.871 38.6339 645.84 37.88C645.871 37.1261 645.751 36.3736 645.489 35.6663C645.226 34.959 644.825 34.311 644.31 33.76ZM675.4 43.17H679.18V53.53H673.77V48.28H658.16V53.53H652.75V43.17H656.46C657.14 42.59 657.64 41.28 657.97 39.24L659.86 27.49H675.4V43.17ZM662.17 43.17H670V32.59H664.48L663.35 39.51C663.208 40.7958 662.81 42.0402 662.18 43.17H662.17ZM692.17 48.73C690.738 48.772 689.312 48.5184 687.982 47.985C686.652 47.4517 685.446 46.65 684.44 45.63C683.428 44.6146 682.633 43.4039 682.103 42.0716C681.574 40.7393 681.321 39.3132 681.36 37.88C681.316 36.4409 681.566 35.008 682.096 33.6693C682.626 32.3306 683.424 31.1144 684.441 30.0954C685.458 29.0764 686.673 28.2762 688.011 27.7439C689.348 27.2116 690.781 26.9584 692.22 27C694.695 26.9521 697.114 27.7454 699.08 29.25C700.042 29.9818 700.847 30.9 701.447 31.9498C702.046 32.9996 702.428 34.1594 702.57 35.36H697C696.745 34.3368 696.117 33.4455 695.24 32.86C694.349 32.2775 693.304 31.9745 692.24 31.99C691.505 31.956 690.772 32.0844 690.093 32.3661C689.414 32.6479 688.805 33.076 688.31 33.62C687.29 34.7845 686.772 36.3052 686.87 37.85C686.822 38.6165 686.927 39.3849 687.177 40.1109C687.428 40.8369 687.82 41.5061 688.33 42.08C688.818 42.6161 689.417 43.0395 690.086 43.321C690.754 43.6024 691.475 43.7352 692.2 43.71C693.284 43.732 694.35 43.429 695.26 42.84C696.13 42.251 696.75 41.3601 697 40.34H702.55C702.402 41.5554 702.012 42.7287 701.402 43.7903C700.792 44.8519 699.975 45.7802 699 46.52C697.023 47.9999 694.609 48.7776 692.14 48.73H692.17ZM726.83 48.28H719.92L711.41 39.2V48.28H706V27.49H711.41V36.14L719.31 27.49H726.19L716.7 37.39L726.83 48.28ZM735 27.49H750.38V48.28H745V32.59H739.63L738.38 40.15C737.46 45.87 735 48.73 731 48.73C730.15 48.7205 729.303 48.63 728.47 48.46V43.59C728.934 43.6587 729.401 43.6955 729.87 43.7C730.26 43.7297 730.652 43.6684 731.015 43.5209C731.378 43.3734 731.701 43.1437 731.96 42.85C732.563 41.8734 732.92 40.765 733 39.62L735 27.49ZM770.23 27.49H775.63V48.28H770.23V45.48C769.502 46.5195 768.527 47.3611 767.392 47.9286C766.257 48.496 764.998 48.7715 763.73 48.73C762.444 48.764 761.166 48.5126 759.988 47.9939C758.811 47.4752 757.763 46.702 756.92 45.73C755.079 43.555 754.122 40.7673 754.24 37.92C754.127 35.0699 755.091 32.2816 756.94 30.11C757.775 29.1443 758.813 28.3747 759.98 27.8562C761.147 27.3376 762.413 27.0828 763.69 27.11C764.982 27.0728 766.262 27.3621 767.412 27.9512C768.562 28.5403 769.545 29.41 770.27 30.48V27.49H770.23ZM764.9 43.59C765.614 43.6105 766.325 43.4794 766.985 43.2054C767.645 42.9313 768.24 42.5205 768.73 42C769.757 40.8797 770.3 39.3988 770.24 37.88C770.3 36.3612 769.757 34.8803 768.73 33.76C768.241 33.2408 767.648 32.8307 766.99 32.5567C766.332 32.2827 765.623 32.1509 764.91 32.17C764.203 32.1476 763.499 32.278 762.846 32.5524C762.194 32.8268 761.609 33.2387 761.13 33.76C760.116 34.8867 759.585 36.3659 759.65 37.88C759.586 39.3975 760.125 40.8787 761.15 42C761.626 42.5187 762.209 42.9291 762.857 43.2034C763.506 43.4777 764.206 43.6095 764.91 43.59H764.9ZM801.11 43.17H804.89V53.53H799.48V48.28H783.88V53.53H778.48V43.17H782.18C782.86 42.59 783.37 41.28 783.69 39.24L785.58 27.49H801.12V43.17H801.11ZM787.88 43.17H795.7V32.59H790.2L789.06 39.51C788.918 40.7958 788.52 42.0402 787.89 43.17H787.88Z" fill="white"/>
<path d="M592.41 65.26H597.23V83.81H592.41V77.81C591.047 78.36 589.589 78.6353 588.12 78.62C586.202 78.7059 584.31 78.1538 582.74 77.05C581.36 76.05 580.67 74.29 580.67 71.91V65.26H585.49V70.69C585.394 71.6816 585.664 72.674 586.25 73.48C586.642 73.7979 587.093 74.0342 587.577 74.1751C588.061 74.3159 588.569 74.3584 589.07 74.3C590.221 74.3518 591.368 74.1218 592.41 73.63V65.26ZM610.35 64.86C611.709 64.7995 613.064 65.0499 614.312 65.5924C615.56 66.1348 616.667 66.9548 617.55 67.99C618.435 69.0698 619.092 70.3175 619.482 71.658C619.872 72.9984 619.987 74.404 619.82 75.79H605.59C605.666 77.0476 606.221 78.2285 607.14 79.09C608.048 79.869 609.214 80.2793 610.41 80.24C611.294 80.2574 612.167 80.04 612.94 79.61C613.647 79.2394 614.207 78.6401 614.53 77.91H619.53C618.99 79.8465 617.768 81.5227 616.09 82.63C614.41 83.7011 612.452 84.254 610.46 84.22C609.16 84.2698 607.863 84.0523 606.651 83.581C605.438 83.1097 604.335 82.3946 603.41 81.48C602.507 80.5755 601.799 79.4959 601.33 78.3075C600.86 77.1191 600.639 75.8471 600.68 74.57C600.642 73.2872 600.864 72.01 601.333 70.8155C601.803 69.621 602.509 68.534 603.41 67.62C604.323 66.7012 605.416 65.9815 606.621 65.5065C607.826 65.0314 609.116 64.8113 610.41 64.86H610.35ZM610.35 68.86C609.317 68.8236 608.304 69.1529 607.49 69.79C606.706 70.4244 606.139 71.288 605.87 72.26H614.74C614.508 71.2892 613.963 70.4215 613.19 69.79C612.382 69.1559 611.376 68.8266 610.35 68.86ZM632.35 84.24C629.783 84.24 627.32 83.2201 625.505 81.4048C623.69 79.5894 622.67 77.1273 622.67 74.56C622.67 71.9927 623.69 69.5306 625.505 67.7152C627.32 65.8998 629.783 64.88 632.35 64.88C634.557 64.8368 636.714 65.5417 638.47 66.88C639.327 67.5323 640.045 68.3497 640.581 69.2841C641.117 70.2185 641.46 71.2508 641.59 72.32H636.59C636.364 71.4092 635.803 70.6168 635.02 70.1C634.217 69.5711 633.271 69.299 632.31 69.32C631.655 69.2919 631.001 69.4071 630.395 69.6575C629.789 69.908 629.244 70.2876 628.8 70.77C627.897 71.8151 627.438 73.1713 627.52 74.55C627.437 75.9292 627.905 77.2849 628.82 78.32C629.255 78.7977 629.789 79.1749 630.385 79.4253C630.981 79.6757 631.624 79.7933 632.27 79.77C633.237 79.7942 634.188 79.5258 635 79C635.795 78.4736 636.363 77.6666 636.59 76.74H641.59C641.462 77.8239 641.116 78.8708 640.573 79.8177C640.03 80.7645 639.301 81.5919 638.43 82.25C636.672 83.5841 634.516 84.2885 632.31 84.25L632.35 84.24ZM659.57 65.24V69.8H653.84V83.8H649V69.8H643.3V65.26H659.56L659.57 65.24ZM675.35 65.24H680.17V83.81H675.3V76.66H667V83.81H662.18V65.26H667V72.11H675.33V65.26L675.35 65.24ZM693.56 70.67C695.297 70.608 697.002 71.1447 698.39 72.19C699.67 73.2033 700.31 74.8333 700.31 77.08C700.33 78.1398 700.129 79.1921 699.72 80.17C699.377 80.9935 698.829 81.7162 698.13 82.27C697.477 82.7848 696.734 83.1746 695.94 83.42C695.114 83.6722 694.254 83.797 693.39 83.79H684V65.26H688.82V70.69L693.56 70.67ZM702.8 65.24H707.63V83.81H702.8V65.26V65.24ZM693.23 79.24C693.524 79.2601 693.819 79.2195 694.097 79.1208C694.374 79.0221 694.629 78.8674 694.844 78.6662C695.059 78.4651 695.231 78.2218 695.349 77.9515C695.466 77.6812 695.526 77.3897 695.526 77.095C695.526 76.8003 695.466 76.5088 695.349 76.2385C695.231 75.9682 695.059 75.7249 694.844 75.5238C694.629 75.3226 694.374 75.1679 694.097 75.0692C693.819 74.9705 693.524 74.9299 693.23 74.95H688.81V79.24H693.23ZM729.23 83.82H723.49L719.65 78L716 83.81H710.2L716.74 74.23L710.54 65.23H716.27L719.78 70.66L723.05 65.23H728.85L722.65 74.34L729.16 83.78L729.23 83.82ZM759.14 79.27H762.51V88.5H757.69V83.81H742V65.26H746.82V79.26H754.31V65.26H759.13V79.26L759.14 79.27ZM774.14 64.87C775.499 64.8072 776.855 65.0567 778.103 65.5992C779.351 66.1418 780.459 66.9631 781.34 68C782.227 69.079 782.886 70.3264 783.277 71.6669C783.669 73.0074 783.786 74.4133 783.62 75.8H769.4C769.468 77.0597 770.024 78.2434 770.95 79.1C771.856 79.8815 773.024 80.2923 774.22 80.25C775.104 80.2651 775.976 80.0478 776.75 79.62C777.454 79.2489 778.011 78.6494 778.33 77.92H783.33C782.794 79.8585 781.571 81.5361 779.89 82.64C778.21 83.7121 776.252 84.2652 774.26 84.23C772.968 84.2729 771.681 84.0521 770.478 83.581C769.274 83.1099 768.179 82.3984 767.26 81.49C766.357 80.5855 765.649 79.5059 765.18 78.3175C764.71 77.1291 764.489 75.8571 764.53 74.58C764.492 73.2972 764.714 72.02 765.183 70.8255C765.653 69.631 766.359 68.544 767.26 67.63C768.167 66.7175 769.252 66.0015 770.448 65.5266C771.643 65.0518 772.924 64.8283 774.21 64.87H774.14ZM774.14 68.87C773.104 68.8321 772.087 69.1615 771.27 69.8C770.494 70.4414 769.929 71.3023 769.65 72.27H778.52C778.302 71.2923 777.767 70.4137 777 69.77C776.196 69.1358 775.193 68.8064 774.17 68.84L774.14 68.87ZM800.07 65.29H804.89V83.81H800.07V76.66H791.74V83.81H786.9V65.26H791.72V72.11H800.05V65.26L800.07 65.29Z" fill="white"/>
</g>
<defs>
<clipPath id="clip0_3_38">
<path d="M0 12C0 5.37258 5.37258 0 12 0H825V103H12C5.37257 103 0 97.6274 0 91V12Z" fill="white"/>
</clipPath>
</defs>
</svg>
