<svg width="60" height="36" viewBox="0 0 60 36" fill="none" xmlns="http://www.w3.org/2000/svg">
<path d="M5.15285 28.7166C5.15285 32.4984 8.21852 35.564 12.0003 35.564C15.7821 35.564 18.8477 32.4966 18.8477 28.7166C18.8477 24.9327 15.7803 21.8692 12.0003 21.8692C8.21852 21.8692 5.15285 24.9348 5.15285 28.7166ZM8.72479 28.7166C8.72479 26.9091 10.191 25.4411 12.0003 25.4411C13.8096 25.4411 15.274 26.9094 15.274 28.7166C15.274 30.5259 13.8096 31.9903 12.0003 31.9903C10.191 31.9903 8.72479 30.5263 8.72479 28.7166Z" fill="#FF0000"/>
<path d="M39.9939 28.7166C39.9939 32.4984 43.0596 35.564 46.8413 35.564C50.6231 35.564 53.6888 32.4966 53.6888 28.7166C53.6888 24.9327 50.6213 21.8692 46.8413 21.8692C43.0596 21.8692 39.9939 24.9348 39.9939 28.7166ZM43.5658 28.7166C43.5658 26.9091 45.032 25.4411 46.8413 25.4411C48.6506 25.4411 50.1151 26.9094 50.1151 28.7166C50.1151 30.5259 48.6506 31.9903 46.8413 31.9903C45.032 31.9903 43.5658 30.5263 43.5658 28.7166Z" fill="#FF0000"/>
<path d="M0 26.1875V27.3951C0 28.1284 0.592595 28.7188 1.32202 28.7188H3.34323C3.34323 23.9376 7.21902 20.0639 12 20.0639C16.7791 20.0639 20.6549 23.9376 20.6549 28.7188H38.1843C38.1843 28.2557 38.2313 27.8077 38.3025 27.3614C38.4411 26.4766 38.713 25.6384 39.1014 24.862H22.4008V3.95388C22.4008 3.22447 21.8047 2.62844 21.0771 2.62844H8.38869C7.66101 2.62844 7.59946 3.27792 7.50024 4V5.99867L11.6428 5.93973L10.6958 14.2723L2.4625 15.6521L1.71236 24.862H1.32263C0.593213 24.862 0 25.4542 0 26.1875ZM12.7318 13.9307L13.6395 5.93962H18.9215V12.8919L12.7318 13.9307Z" fill="#FF0000"/>
<path d="M58.6746 24.8616C59.4079 24.8616 60 25.4542 60 26.187V27.3947C60 28.128 59.4074 28.7184 58.6746 28.7184H55.4984C55.4984 28.2553 55.4535 27.8073 55.3823 27.361C55.2437 26.4762 54.9697 25.638 54.5834 24.8616H58.6746Z" fill="#FF0000"/>
<path d="M25.1042 0.436523H57.4326C58.1621 0.436523 58.7581 1.03257 58.7581 1.76197L58.7585 23.2889H53.5516C51.9655 21.3294 49.5597 20.0622 46.8428 20.0622C44.1258 20.0622 41.7205 21.3299 40.1339 23.2889H23.7779L23.7784 1.76197C23.7784 1.03429 24.3748 0.436523 25.1042 0.436523Z" fill="#FF0000"/>
</svg>
