<svg width="51" height="44" viewBox="0 0 51 44" fill="none" xmlns="http://www.w3.org/2000/svg">
<path d="M46.0412 23.7458L45.4047 23.2924C45.1127 23.0974 44.732 23.0977 44.4401 23.2927C44.3758 23.201 44.2976 23.1197 44.2085 23.0515L43.572 22.5981C42.9452 22.1544 42.0675 22.7137 41.6431 23.8617L38.1418 32.629H29.8573C29.8573 32.629 28.97 31.3847 27.6391 29.8321H32.4615C33.0173 29.7462 33.5181 29.4475 33.8582 28.9996C34.1983 28.5517 34.351 27.9891 34.2845 27.4305V26.3215C34.3449 25.7629 34.1854 25.2026 33.8395 24.7595C33.4939 24.3167 32.9892 24.0258 32.4324 23.9486L20.5881 24.0742C20.2513 23.9689 19.899 23.9234 19.5463 23.9392C15.6307 24.1417 0.333496 30.9608 0.333496 30.9608L5.56113 43.2962C5.56113 43.2962 10.7597 39.9396 15.1287 39.6987C18.2524 39.7048 21.3423 40.341 24.2139 41.5698H40.1091C40.4895 41.2597 40.785 40.8583 40.9675 40.4027L46.3686 26.6685C46.822 25.5015 46.6296 24.1993 46.0412 23.7458Z" fill="#FF0000"/>
<path d="M41.9911 7.60968L39.4735 0.703735H34.4099L31.8927 7.60968H41.9911Z" fill="#FF0000"/>
<path d="M36.9366 22.8489L41.9715 9.60661H31.9021L36.9366 22.8489Z" fill="#FF0000"/>
<path d="M50.3335 7.60968C48.8674 5.75768 45.5111 1.4849 44.7586 0.703735H41.5374L44.0546 7.60968H50.3335Z" fill="#FF0000"/>
<path d="M32.3359 0.703735H29.1243C28.3913 1.48491 25.006 5.75768 23.5592 7.60968H29.8187L32.3359 0.703735Z" fill="#FF0000"/>
<path d="M44.0447 9.60611L39.3185 22.0382C42.3664 18.701 48.4041 11.9399 50.3328 9.60611H44.0447Z" fill="#FF0000"/>
<path d="M29.8285 9.60611H23.5401C25.4689 11.9403 31.5068 18.7016 34.5544 22.0382L29.8285 9.60611Z" fill="#FF0000"/>
</svg>
