<svg width="50" height="50" viewBox="0 0 50 50" fill="none" xmlns="http://www.w3.org/2000/svg">
<path d="M40.9607 4.34979V23.843H49.8348V4.34979C49.8348 1.99197 47.8026 0 45.3975 0C45.2503 0 45.1045 0.00757427 44.9606 0.0222481C44.8758 0.0426028 44.7882 0.0539629 44.6983 0.057276C42.6117 0.397152 40.9607 2.2244 40.9607 4.34979Z" fill="#FF0000"/>
<path d="M13.226 36.2204L12.8023 49.9938L17.3116 47.1021C17.7476 46.8223 18.3066 46.8223 18.7426 47.1021L23.2618 50L22.8902 36.1914C21.4172 36.8991 19.7679 37.2963 18.0274 37.2963C16.3105 37.2967 14.683 36.909 13.2261 36.2198L13.226 36.2204Z" fill="#FF0000"/>
<path d="M10.6255 34.5154C8.25916 32.4486 6.76039 29.4131 6.76039 26.0322C6.76039 19.8202 11.814 14.7666 18.026 14.7666C24.238 14.7666 29.2916 19.8202 29.2916 26.0322C29.2916 29.3813 27.8208 32.3918 25.4938 34.4571L25.6732 41.1305H38.3099L38.3104 4.34967C38.3104 2.78801 38.8458 1.29264 39.8294 0.0596209H5.65151C2.53535 0.0596209 0 2.59497 0 5.71114V41.1311H10.4225L10.6255 34.5154Z" fill="#FF0000"/>
<path d="M26.6407 26.0315C26.6407 30.7898 22.7838 34.6467 18.026 34.6467C13.2682 34.6467 9.41122 30.7898 9.41122 26.0315C9.41122 21.2737 13.2682 17.4167 18.026 17.4167C22.7838 17.4167 26.6407 21.2737 26.6407 26.0315Z" fill="#FF0000"/>
</svg>
