<svg width="50" height="44" viewBox="0 0 50 44" fill="none" xmlns="http://www.w3.org/2000/svg">
<path d="M36.691 19.0846H40.6991C41.1866 19.0886 41.2294 19.0973 41.3509 19.555L42.4667 23.9914C42.6843 24.9299 42.7208 24.966 41.7887 24.966H36.8029C36.1542 24.966 35.9923 24.987 35.9923 24.0808V19.8459C35.9927 19.1234 36.1384 19.0846 36.691 19.0846ZM20.9425 9.06202C20.9595 9.33513 20.9822 9.60903 20.9822 9.88612C20.9822 16.4464 15.6636 21.7638 9.10243 21.7638C7.798 21.7638 6.54712 21.5439 5.37409 21.1549V35.7063C5.37409 37.1512 6.36571 38.3171 7.60065 38.3171H11.4603L11.4531 38.1591C11.4531 34.501 14.4173 31.5369 18.0769 31.5369C21.733 31.5369 24.6999 34.501 24.6999 38.1591C24.6967 38.2123 24.6928 38.2654 24.6904 38.3171H30.6841L30.6777 38.1591C30.6777 34.501 33.6419 31.5369 37.3015 31.5369C40.9568 31.5369 43.9205 34.501 43.9205 38.1591C43.9205 38.2123 43.9174 38.2654 43.9134 38.3171H48.0704C49.141 38.3171 50 37.3068 50 36.0547V32.3272C50 30.3968 49.3811 29.0177 48.3792 27.8935L45.8045 25.0083L44.2237 18.2444C43.8943 16.5712 43.0909 15.9885 41.3025 15.9885L34.4715 15.9877V11.1169C34.4715 9.6719 33.4763 9.06175 32.2425 9.06175L20.9425 9.06202Z" fill="#FF0000"/>
<path d="M18.0767 40.0555C19.1239 40.0555 19.9738 39.2056 19.9738 38.1584C19.9738 37.1112 19.1239 36.2613 18.0767 36.2613C17.0295 36.2613 16.1796 37.1112 16.1796 38.1584C16.18 39.206 17.0303 40.0555 18.0767 40.0555ZM18.0767 43.2173C15.2837 43.2173 13.0182 40.9522 13.0182 38.1588C13.0182 35.3665 15.2837 33.1003 18.0767 33.1003C19.418 33.1003 20.7046 33.6338 21.6529 34.5826C22.6013 35.5309 23.1352 36.8191 23.1352 38.1588C23.1356 40.9522 20.8693 43.2173 18.0767 43.2173Z" fill="#FF0000"/>
<path d="M37.3007 36.2619C38.3479 36.2619 39.1978 37.1118 39.1978 38.159C39.1978 39.2062 38.3479 40.0561 37.3007 40.0561C36.2524 40.0561 35.4036 39.2062 35.4036 38.159C35.404 37.1118 36.2523 36.2619 37.3007 36.2619ZM37.3007 33.1005C34.5077 33.1005 32.2446 35.3668 32.2422 38.159C32.2422 39.5003 32.7746 40.7869 33.7233 41.7352C34.6716 42.6836 35.9606 43.2175 37.3011 43.2175C38.6441 43.2175 39.929 42.684 40.8773 41.7352C41.8297 40.7869 42.3596 39.4999 42.3596 38.159C42.3596 35.3667 40.0969 33.1005 37.3007 33.1005Z" fill="#FF0000"/>
<path d="M13.6774 5.73234L14.3928 6.44768C14.7286 6.78351 14.6849 7.36268 14.2999 7.75211L8.02263 14.029C7.71974 14.3318 7.13978 14.3541 6.81352 14.029L3.90934 11.1227C3.52032 10.7353 3.48061 10.1557 3.81367 9.81831L4.52741 9.10814C4.86364 8.77111 5.4432 8.81399 5.83184 9.19983L7.41574 10.7881L12.3759 5.82798C12.874 5.33138 13.2698 5.32145 13.6775 5.73232L13.6774 5.73234ZM9.10277 0.782593C4.07721 0.782593 0 4.85666 0 9.88537C0 14.9141 4.07721 18.9877 9.10277 18.9877C14.1323 18.9877 18.2095 14.9149 18.2095 9.88537C18.2091 4.85584 14.1319 0.782593 9.10277 0.782593Z" fill="#FF0000"/>
</svg>
