<svg width="48" height="50" viewBox="0 0 48 50" fill="none" xmlns="http://www.w3.org/2000/svg">
<path d="M10 42.3776H17.6142V49.9998H10V42.3776Z" fill="#FF0000"/>
<path d="M10 32.5885H17.6142V40.195H10V32.5885Z" fill="#FF0000"/>
<path d="M47.9975 49.9994V15.3023L24.0034 0L0.00244141 15.3023V49.9994H7.81758V18.7011C7.81758 18.0985 8.30669 17.6098 8.90883 17.6098H39.0973C39.701 17.6098 40.1886 18.0989 40.1886 18.7011V49.9994H47.9975Z" fill="#FF0000"/>
<path d="M19.7959 42.3776H27.4112V49.9998H19.7959V42.3776Z" fill="#FF0000"/>
<path d="M38.0058 49.9994V19.7934H10V30.4058H18.7059C19.3084 30.4058 19.7971 30.8938 19.7971 31.4971V40.1953H28.504C29.1077 40.1953 29.5953 40.6833 29.5953 41.2866V50L38.0058 49.9994Z" fill="#FF0000"/>
</svg>
