<svg width="60" height="40" viewBox="0 0 60 40" fill="none" xmlns="http://www.w3.org/2000/svg">
<path d="M1.04483 19.077H14.8V32.1283H1.04483V19.077Z" fill="#FF0000"/>
<path d="M2.27096 6.66096H14.7996V17.6653H2.27096V6.66096Z" fill="#FF0000"/>
<path d="M43.8176 32.1294C43.8176 36.3199 47.213 39.7158 51.4019 39.7158C55.5924 39.7158 58.99 36.3203 58.99 32.1294C58.99 27.9406 55.5924 24.543 51.4019 24.543C47.2131 24.543 43.8176 27.9389 43.8176 32.1294ZM48.1544 32.1294C48.1544 30.333 49.6076 28.8798 51.4019 28.8798C53.1982 28.8798 54.6532 30.333 54.6532 32.1294C54.6532 33.9258 53.1982 35.3789 51.4019 35.3789C49.6077 35.3785 48.1544 33.9258 48.1544 32.1294Z" fill="#FF0000"/>
<path d="M22.2982 32.8056C22.2982 36.6214 25.3902 39.7152 29.2057 39.7152C33.0215 39.7152 36.1153 36.6232 36.1153 32.8056C36.1153 28.9936 33.0215 25.8998 29.2057 25.8998C25.3903 25.8998 22.2982 28.9936 22.2982 32.8056ZM26.2431 32.8056C26.2431 31.1724 27.5685 29.8447 29.2039 29.8447C30.8389 29.8447 32.1648 31.1724 32.1648 32.8056C32.1648 34.4405 30.8393 35.7664 29.2039 35.7664C27.569 35.7664 26.2431 34.4405 26.2431 32.8056Z" fill="#FF0000"/>
<path d="M0.000243623 33.5116C0.000243623 34.3274 0.660178 34.9856 1.47586 34.9856H15.3879C17.0134 34.9856 17.8706 34.4344 17.8706 32.8086V30.2811H19.7118V31.2992C19.7118 32.1711 20.2332 32.9118 20.9716 33.2734C20.9604 33.1141 20.9246 32.9661 20.9246 32.8064C20.9246 28.237 24.6317 24.5281 29.2028 24.5281C33.774 24.5281 37.4829 28.2386 37.4829 32.8064C37.4829 33.0481 37.4324 33.2751 37.4117 33.5112H42.6484C42.5755 33.0576 42.5099 32.6035 42.5099 32.1292C42.5099 27.2166 46.4906 23.2359 51.4011 23.2359C55.5635 23.2359 59.0284 26.1026 60 29.9634V18.2822C60 17.0672 59.0064 16.0715 57.7893 16.0715H51.6488C51.0545 16.0715 50.3005 16.182 49.5603 16.3563V4.89168C49.5603 2.85708 47.9085 1.20743 45.876 1.20743H35.7941C33.9153 1.20743 32.0741 2.63256 31.6015 4.45137L27.1559 21.5964H21.9266C20.7116 21.5964 19.7142 22.59 19.7142 23.8071V23.8335H17.873L17.8725 1.75827C17.8725 0.944679 17.4319 0.284302 16.6161 0.284302C16.2786 0.284302 16.1586 0.417235 16.1025 0.608872V33.2637H0.0336655C0.0112224 33.3258 0 33.4061 0 33.5114L0.000243623 33.5116ZM30.1977 21.5973L34.4559 5.19253C34.591 4.66941 35.2549 4.15365 35.7948 4.15365H45.8767C46.276 4.15365 46.6135 4.49117 46.6135 4.89256V17.513L44.4498 18.6231L45.0424 11.3047C45.1266 10.2922 44.3691 9.39964 43.357 9.31887C42.3518 9.24205 41.454 9.99002 41.3695 11.0043L40.5913 20.5929C39.5075 21.1424 37.6343 21.5943 36.4193 21.5943L30.1976 21.5951L30.1977 21.5973Z" fill="#FF0000"/>
</svg>
