<svg width="55" height="38" viewBox="0 0 55 38" fill="none" xmlns="http://www.w3.org/2000/svg">
<path d="M54.51 11.2868L44.5758 0.684775C44.3442 0.451589 43.9778 0.432526 43.7272 0.665271L39.5605 4.6263C39.3289 4.85949 39.3099 5.22833 39.5411 5.48058L49.4753 16.0826C49.7069 16.3158 50.0733 16.3348 50.3239 16.1021L54.4906 12.141C54.7218 11.9083 54.7218 11.5394 54.51 11.2868ZM50.8833 12.4909C50.3623 12.9763 49.533 12.9568 49.0508 12.4328C48.5686 11.9083 48.5879 11.0736 49.1085 10.5881C49.6295 10.1027 50.4588 10.1222 50.941 10.6462C51.4237 11.1707 51.4043 12.0054 50.8833 12.4909ZM10.8767 2.14163C10.6261 1.94746 10.2403 1.98647 10.0474 2.23872L0.788442 14.2386C0.595546 14.4909 0.634302 14.8792 0.88489 15.0734L5.43734 18.6266C5.68793 18.8207 6.07372 18.7817 6.26662 18.5295L15.5256 6.52956C15.7185 6.27731 15.6798 5.88896 15.4292 5.69479L10.8767 2.14163ZM6.51716 14.6464C6.07368 15.2094 5.26334 15.326 4.68465 14.8796C4.12534 14.4332 4.00951 13.6175 4.453 13.0349C4.89648 12.4719 5.70682 12.3553 6.28551 12.8018C6.86463 13.2482 6.96107 14.0639 6.51716 14.6464Z" fill="#FF0000"/>
<path d="M40.9885 26.277L30.8038 18.2768L28.9519 19.9853C26.3284 22.3544 23.9754 22.995 22.1812 22.995C21.7183 22.995 21.3131 22.956 20.9274 22.8784C18.4774 22.451 16.8189 20.8786 16.0662 19.5194C15.1404 18.0436 15.4104 16.1989 16.7219 14.9954L24.0326 8.2964C23.1645 7.6363 22.1613 7.30603 21.1391 7.30603C19.7118 7.30603 18.3033 7.94662 17.3777 9.1702L10.2405 18.4515C9.66182 19.2087 9.39186 20.16 9.50769 21.1119L9.97055 24.8787C10.0864 25.8301 10.5686 26.6843 11.3208 27.2669L23.8392 37.0921C24.1862 37.3639 24.6108 37.5 25.016 37.5C25.537 37.5 26.0575 37.2863 26.4239 36.8785L26.9832 36.2569C27.716 35.4412 27.639 34.1791 26.8097 33.4609L28.9121 35.228C29.2786 35.5388 29.7031 35.6745 30.1466 35.6745C30.6288 35.6745 31.111 35.4998 31.4774 35.1309L32.1332 34.5094C32.9625 33.7132 32.9048 32.3735 32.0367 31.6359L33.5993 32.9371C33.9657 33.2283 34.3903 33.3835 34.8337 33.3835C35.316 33.3835 35.7982 33.1893 36.184 32.84L36.7627 32.277C37.573 31.4808 37.5149 30.1801 36.6856 29.4419L37.7078 30.3352C38.0742 30.646 38.5181 30.8011 38.9616 30.8011C39.5015 30.8011 40.0613 30.5679 40.4277 30.102L41.3151 29.0341C41.9718 28.1993 41.8372 26.9372 40.9885 26.277ZM45.965 16.6849L37.3618 7.85C36.9953 7.46166 36.4937 7.22847 35.9727 7.15089L31.5749 6.56837C30.8804 6.47128 30.1858 6.70447 29.6653 7.17039L28.6238 8.12175L18.7284 17.1899C18.6126 17.287 18.362 17.5782 18.5932 17.9276L18.6509 18.0247C19.0367 18.7433 20.0012 19.6556 21.4285 19.9084C23.1452 20.1996 25.0359 19.4619 26.9454 17.7334L30.6493 14.3158L42.3002 23.4615L45.9264 20.0439C46.8719 19.1507 46.8718 17.6362 45.965 16.6849Z" fill="#FF0000"/>
</svg>
