<svg width="120" height="35" viewBox="0 0 120 35" fill="none" xmlns="http://www.w3.org/2000/svg">
<path d="M32.95 0H25.9641L21.3979 19.6973H28.4384L32.95 0ZM36.4079 11.158C35.1473 11.158 34.0467 11.2985 33.071 11.5444L31.7402 17.3517C32.5793 17.059 33.5589 16.8834 34.6751 16.8834C38.4022 16.8834 41.0795 18.9674 41.0795 22.316C41.0795 25.5163 38.5583 27.9906 34.5736 27.9906C31.3694 27.9906 28.4306 26.5349 27.9077 23.1395H20.2973C20.8749 30.9489 27.5915 34.5395 34.6243 34.5395C42.6016 34.5395 48.6899 29.8835 48.6899 22.4136C48.6899 15.2325 42.9684 11.158 36.4079 11.158ZM46.9571 0H35.7171L34.2067 6.59958H46.9571V0Z" fill="#FF0000"/>
<path d="M52.2911 17.4983C52.2911 27.7617 57.6374 34.4025 66.7264 34.9966V28.3695C62.1253 27.7995 59.8418 24.1906 59.8418 17.4948C59.8418 10.7991 62.1253 7.19023 66.7264 6.62366V0C57.6374 0.594035 52.2911 7.23487 52.2911 17.4983ZM69.4219 0V6.6271C74.0163 7.19366 76.2551 10.8059 76.2551 17.4983C76.2551 24.1941 74.0163 27.8063 69.4219 28.3729V35C78.5144 34.4025 83.8608 27.7171 83.8608 17.5017C83.8608 7.28637 78.5144 0.597469 69.4219 0Z" fill="#FF0000"/>
<path d="M87.4619 17.4983C87.4619 27.7617 92.8082 34.4025 101.897 34.9966V28.3695C97.2961 27.7995 95.0127 24.1906 95.0127 17.4948C95.0127 10.7991 97.2961 7.19023 101.897 6.62366V0C92.8082 0.594035 87.4619 7.23487 87.4619 17.4983ZM104.593 0V6.6271C109.187 7.19366 111.426 10.8059 111.426 17.4983C111.426 24.1941 109.187 27.8063 104.593 28.3729V35C113.685 34.4025 119.032 27.7171 119.032 17.5017C119.032 7.28637 113.685 0.597469 104.593 0Z" fill="#FF0000"/>
<path d="M13.2901 0L0.968414 4.40974V11.229L16.6961 4.67311V0H13.2901ZM9.19708 33.9254H16.6961V7.59514L9.19708 10.7165V33.9254Z" fill="#FF0000"/>
</svg>
