<svg width="216" height="35" viewBox="0 0 216 35" fill="none" xmlns="http://www.w3.org/2000/svg">
<path d="M58.1352 19.9366V0H47.0888L32.4822 19.9855V26.4696H47.9569V19.9366H40.4939L50.1776 6.43513H50.6516V33.8759H58.1352V26.4696L63.2668 26.4232V19.9855L58.1352 19.9366Z" fill="#FF0000"/>
<path d="M66.8627 17.4727C66.8627 27.7212 72.2012 34.3523 81.277 34.9455V28.3281C76.6826 27.7589 74.4025 24.1553 74.4025 17.4693C74.4025 10.7833 76.6826 7.17973 81.277 6.61399V0C72.2012 0.593168 66.8627 7.2243 66.8627 17.4727ZM83.9686 0V6.61742C88.5562 7.18316 90.7917 10.7902 90.7917 17.4727C90.7917 24.1587 88.5562 27.7657 83.9686 28.3315V34.9489C93.0478 34.3523 98.3863 27.6766 98.3863 17.4762C98.3863 7.27574 93.0478 0.596597 83.9686 0Z" fill="#FF0000"/>
<path d="M23.4896 16.6645C26.2144 15.3566 27.7852 12.7913 27.7852 9.83767C27.7852 4.43316 23.0396 0.477418 16.1413 0.00880033V6.61565C18.9827 7.05236 20.2433 8.69582 20.2433 10.7595C20.2433 13.2764 18.0422 14.1487 14.6903 14.1487H10.7621V20.2022H15.6353C19.9309 20.2022 21.3434 21.6554 21.3434 23.9787C21.3434 26.5198 19.745 28.1962 16.1413 28.4482V35C23.7987 34.7228 28.8864 30.9893 28.8864 24.6563C28.8842 20.8293 26.8942 17.9714 23.4896 16.6645ZM8.29689 23.8797H0.702209C1.28083 30.7967 6.62483 34.4214 13.4462 34.9472V28.3767C10.673 28.0147 8.82381 26.6782 8.29689 23.8797ZM13.4462 6.54524V0C6.88664 0.409215 1.80665 3.97885 1.06742 10.7089H8.61151C9.25613 7.9456 10.9502 6.78835 13.4462 6.54524Z" fill="#FF0000"/>
<path d="M113.386 17.4983C113.386 27.7617 118.733 34.4025 127.822 34.9966V28.3695C123.221 27.7995 120.937 24.1906 120.937 17.4949C120.937 10.7991 123.221 7.19023 127.822 6.62366V0C118.733 0.594035 113.386 7.23487 113.386 17.4983ZM130.517 0V6.6271C135.112 7.19366 137.35 10.8059 137.35 17.4983C137.35 24.1941 135.112 27.8063 130.517 28.3729V35C139.61 34.4025 144.956 27.7171 144.956 17.5017C144.956 7.28637 139.61 0.597469 130.517 0Z" fill="#FF0000"/>
<path d="M148.557 17.4983C148.557 27.7617 153.904 34.4025 162.993 34.9966V28.3695C158.391 27.7995 156.108 24.1906 156.108 17.4949C156.108 10.7991 158.391 7.19023 162.993 6.62366V0C153.904 0.594035 148.557 7.23487 148.557 17.4983ZM165.688 0V6.6271C170.282 7.19366 172.521 10.8059 172.521 17.4983C172.521 24.1941 170.282 27.8063 165.688 28.3729V35C174.781 34.4025 180.127 27.7171 180.127 17.5017C180.127 7.28637 174.781 0.597469 165.688 0Z" fill="#FF0000"/>
<path d="M183.728 17.4983C183.728 27.7617 189.074 34.4025 198.163 34.9966V28.3695C193.562 27.7995 191.279 24.1906 191.279 17.4949C191.279 10.7991 193.562 7.19023 198.163 6.62366V0C189.074 0.594035 183.728 7.23487 183.728 17.4983ZM200.859 0V6.6271C205.453 7.19366 207.692 10.8059 207.692 17.4983C207.692 24.1941 205.453 27.8063 200.859 28.3729V35C209.951 34.4025 215.298 27.7171 215.298 17.5017C215.298 7.28637 209.951 0.597469 200.859 0Z" fill="#FF0000"/>
</svg>
