<svg width="96" height="35" viewBox="0 0 96 35" fill="none" xmlns="http://www.w3.org/2000/svg">
<path d="M26.5429 21.0903V1.19614H15.52L0.944519 21.1391V27.6094H16.3863V21.0903H8.9392L18.6022 7.61759H19.0752V35H26.5429V27.6094L31.6636 27.5631V21.1391L26.5429 21.0903Z" fill="#FF0000"/>
<path d="M68.0108 9.5778C68.0108 12.7684 69.7351 15.4286 72.6142 16.6856C68.9526 18.0877 66.9643 21.1332 66.9643 24.8554C66.9643 30.7907 72.3276 34.526 79.6649 34.9255V28.4266C76.3566 28.1317 74.4978 26.6761 74.4978 24.2299C74.4978 21.6505 76.3209 20.3317 79.6649 20.0725V13.9671C76.5944 13.6782 75.4908 12.326 75.4908 10.4459C75.4908 8.41595 76.812 6.86762 79.6649 6.51086V0C72.9923 0.44476 68.0108 4.26446 68.0108 9.5778ZM89.4056 16.6856C92.23 15.4286 94.009 12.7684 94.009 9.5778C94.009 4.27517 89.0489 0.461409 82.3549 0.0023784V6.51918C85.1828 6.88783 86.529 8.42784 86.529 10.4459C86.529 12.3153 85.398 13.6627 82.3549 13.9624V20.0748C85.7144 20.3424 87.5219 21.6589 87.5219 24.2299C87.5219 26.6678 85.6787 28.121 82.3549 28.4242V34.9255C89.7113 34.5141 95.0555 30.7824 95.0555 24.8578C95.0555 21.1332 93.0672 18.0877 89.4056 16.6856Z" fill="#FF0000"/>
<path d="M57.9907 16.6291C60.7097 15.3239 62.2772 12.7641 62.2772 9.81674C62.2772 4.42373 57.5418 0.476402 50.6581 0.00878161V6.60157C53.4934 7.03736 54.7514 8.67733 54.7514 10.7366C54.7514 13.2482 52.5549 14.1186 49.2102 14.1186H45.2903V20.1593H50.1531C54.4397 20.1593 55.8491 21.6093 55.8491 23.9277C55.8491 26.4634 54.2542 28.1363 50.6581 28.3876V34.9255C58.2992 34.6489 63.376 30.9233 63.376 24.6039C63.3738 20.785 61.3881 17.9331 57.9907 16.6291ZM42.8304 23.8289H35.2518C35.8292 30.7312 41.1619 34.3482 47.9687 34.8729V28.3163C45.2014 27.9551 43.3562 26.6214 42.8304 23.8289ZM47.9687 6.53132V0C41.4231 0.408345 36.3539 3.97038 35.6163 10.6861H43.1443C43.7876 7.92869 45.478 6.77391 47.9687 6.53132Z" fill="#FF0000"/>
</svg>
