<svg width="30" height="35" viewBox="0 0 30 35" fill="none" xmlns="http://www.w3.org/2000/svg">
<path d="M1.97319 9.5982C1.97319 12.7956 3.7012 15.4615 6.58638 16.7212C2.91704 18.1262 0.924469 21.1782 0.924469 24.9084C0.924469 30.8563 6.29917 34.5995 13.6521 34.9999V28.4871C10.3368 28.1916 8.47408 26.7329 8.47408 24.2815C8.47408 21.6966 10.301 20.375 13.6521 20.1152V13.9969C10.5751 13.7073 9.46918 12.3523 9.46918 10.4682C9.46918 8.43388 10.7932 6.88224 13.6521 6.52472V0C6.96535 0.445707 1.97319 4.27354 1.97319 9.5982ZM23.4136 16.7212C26.244 15.4615 28.0268 12.7956 28.0268 9.5982C28.0268 4.28427 23.0561 0.462391 16.3478 0.00238346V6.53307C19.1818 6.9025 20.5308 8.44579 20.5308 10.4682C20.5308 12.3416 19.3975 13.6918 16.3478 13.9921V20.1176C19.7145 20.3857 21.5259 21.705 21.5259 24.2815C21.5259 26.7246 19.6787 28.1808 16.3478 28.4847V34.9999C23.7199 34.5876 29.0755 30.8479 29.0755 24.9107C29.0755 21.1782 27.083 18.1262 23.4136 16.7212Z" fill="#FF0000"/>
</svg>
